G04 #@! TF.GenerationSoftware,KiCad,Pcbnew,5.0.1*
G04 #@! TF.CreationDate,2018-12-01T13:03:43-05:00*
G04 #@! TF.ProjectId,fightkeyb-pcb-top,66696768746B6579622D7063622D746F,rev?*
G04 #@! TF.SameCoordinates,Original*
G04 #@! TF.FileFunction,Profile,NP*
%FSLAX46Y46*%
G04 Gerber Fmt 4.6, Leading zero omitted, Abs format (unit mm)*
G04 Created by KiCad (PCBNEW 5.0.1) date Sat 01 Dec 2018 01:03:43 PM EST*
%MOMM*%
%LPD*%
G01*
G04 APERTURE LIST*
%ADD10C,0.200000*%
G04 APERTURE END LIST*
D10*
X21938675Y-150450684D02*
X21749885Y-150398318D01*
X276308115Y-26492000D02*
X276480115Y-26588000D01*
X275755115Y-26290000D02*
X275946115Y-26342000D01*
X277074115Y-27096000D02*
X277195115Y-27250000D01*
X275368115Y-26227000D02*
X275564115Y-26251000D01*
X275946115Y-26342000D02*
X276130115Y-26411000D01*
X276480115Y-26588000D02*
X276643115Y-26697000D01*
X275564115Y-26251000D02*
X275755115Y-26290000D01*
X277195115Y-27250000D02*
X277304115Y-27412000D01*
X277643115Y-28328000D02*
X277665115Y-28523000D01*
X277551115Y-27947000D02*
X277603115Y-28136000D01*
X277603115Y-28136000D02*
X277643115Y-28328000D01*
X21632745Y-148667500D02*
X21875285Y-148910040D01*
X21475655Y-148360200D02*
X21632745Y-148667500D01*
X21423285Y-148021200D02*
X21475655Y-148360200D01*
X21475655Y-147680830D02*
X21423285Y-148021200D01*
X21632745Y-147373520D02*
X21475655Y-147680830D01*
X276940115Y-149787846D02*
X276797115Y-149921517D01*
X277483115Y-148977560D02*
X277401115Y-149155330D01*
X275755115Y-150450684D02*
X275564115Y-150490647D01*
X275174115Y-26220000D02*
X275368115Y-26227000D01*
X276130115Y-26411000D02*
X276308115Y-26492000D01*
X21387455Y-150246734D02*
X21215205Y-150151648D01*
X148847115Y-149120880D02*
X149188115Y-149067130D01*
X148507115Y-149067130D02*
X148847115Y-149120880D01*
X148201115Y-148910040D02*
X148507115Y-149067130D01*
X147957115Y-148667500D02*
X148201115Y-148910040D01*
X274074115Y-148021200D02*
X274125115Y-148360200D01*
X274125115Y-147680830D02*
X274074115Y-148021200D01*
X274284115Y-147373520D02*
X274125115Y-147680830D01*
X115510115Y-126468700D02*
X115510115Y-145521440D01*
X82171515Y-126468700D02*
X115510115Y-126468700D01*
X22522965Y-146921510D02*
X22182585Y-146973900D01*
X22861955Y-146973900D02*
X22522965Y-146921510D01*
X23169265Y-147130990D02*
X22861955Y-146973900D01*
X23411795Y-147373520D02*
X23169265Y-147130990D01*
X23568885Y-147680830D02*
X23411795Y-147373520D01*
X23622655Y-148021200D02*
X23568885Y-147680830D01*
X23568885Y-148360200D02*
X23622655Y-148021200D01*
X21052595Y-150042785D02*
X20898254Y-149921517D01*
X22522965Y-26219000D02*
X275174115Y-26220000D01*
X22325905Y-26227000D02*
X22522965Y-26219000D01*
X22130225Y-26251000D02*
X22325905Y-26227000D01*
X275174115Y-146921510D02*
X274833115Y-146973900D01*
X275513115Y-146973900D02*
X275174115Y-146921510D01*
X275820115Y-147130990D02*
X275513115Y-146973900D01*
X151192979Y-80594000D02*
G75*
G03X151192979Y-80594000I-1264864J0D01*
G01*
X22522965Y-27621000D02*
X22182585Y-27673000D01*
X22861955Y-27673000D02*
X22522965Y-27621000D01*
X23169265Y-27830000D02*
X22861955Y-27673000D01*
X23411795Y-28073000D02*
X23169265Y-27830000D01*
X23568885Y-28380000D02*
X23411795Y-28073000D01*
X23622655Y-28720000D02*
X23568885Y-28380000D01*
X23568885Y-29059000D02*
X23622655Y-28720000D01*
X23411795Y-29367000D02*
X23568885Y-29059000D01*
X23169265Y-29609000D02*
X23411795Y-29367000D01*
X22861955Y-29766000D02*
X23169265Y-29609000D01*
X22522965Y-29820000D02*
X22861955Y-29766000D01*
X22182585Y-29766000D02*
X22522965Y-29820000D01*
X21875285Y-29609000D02*
X22182585Y-29766000D01*
X21632745Y-29367000D02*
X21875285Y-29609000D01*
X21475655Y-29059000D02*
X21632745Y-29367000D01*
X21423285Y-28720000D02*
X21475655Y-29059000D01*
X21475655Y-28380000D02*
X21423285Y-28720000D01*
X21632745Y-28073000D02*
X21475655Y-28380000D01*
X21875285Y-27830000D02*
X21632745Y-28073000D01*
X22182585Y-27673000D02*
X21875285Y-27830000D01*
X275174115Y-27621000D02*
X274833115Y-27673000D01*
X275513115Y-27673000D02*
X275174115Y-27621000D01*
X275820115Y-27830000D02*
X275513115Y-27673000D01*
X276063115Y-28073000D02*
X275820115Y-27830000D01*
X276220115Y-28380000D02*
X276063115Y-28073000D01*
X276273115Y-28720000D02*
X276220115Y-28380000D01*
X276220115Y-29059000D02*
X276273115Y-28720000D01*
X276063115Y-29367000D02*
X276220115Y-29059000D01*
X275820115Y-29609000D02*
X276063115Y-29367000D01*
X275513115Y-29766000D02*
X275820115Y-29609000D01*
X275174115Y-29820000D02*
X275513115Y-29766000D01*
X274833115Y-29766000D02*
X275174115Y-29820000D01*
X274526115Y-29609000D02*
X274833115Y-29766000D01*
X274284115Y-29367000D02*
X274526115Y-29609000D01*
X274125115Y-29059000D02*
X274284115Y-29367000D01*
X274074115Y-28720000D02*
X274125115Y-29059000D01*
X274125115Y-28380000D02*
X274074115Y-28720000D01*
X274284115Y-28073000D02*
X274125115Y-28380000D01*
X274526115Y-27830000D02*
X274284115Y-28073000D01*
X274833115Y-27673000D02*
X274526115Y-27830000D01*
X148847115Y-27621000D02*
X148507115Y-27673000D01*
X149188115Y-27673000D02*
X148847115Y-27621000D01*
X149495115Y-27830000D02*
X149188115Y-27673000D01*
X149738115Y-28073000D02*
X149495115Y-27830000D01*
X149893115Y-28380000D02*
X149738115Y-28073000D01*
X149947115Y-28720000D02*
X149893115Y-28380000D01*
X149893115Y-29059000D02*
X149947115Y-28720000D01*
X149738115Y-29367000D02*
X149893115Y-29059000D01*
X149495115Y-29609000D02*
X149738115Y-29367000D01*
X149188115Y-29766000D02*
X149495115Y-29609000D01*
X148847115Y-29820000D02*
X149188115Y-29766000D01*
X148507115Y-29766000D02*
X148847115Y-29820000D01*
X148201115Y-29609000D02*
X148507115Y-29766000D01*
X147957115Y-29367000D02*
X148201115Y-29609000D01*
X147802115Y-29059000D02*
X147957115Y-29367000D01*
X147748115Y-28720000D02*
X147802115Y-29059000D01*
X147802115Y-28380000D02*
X147748115Y-28720000D01*
X147957115Y-28073000D02*
X147802115Y-28380000D01*
X148201115Y-27830000D02*
X147957115Y-28073000D01*
X148507115Y-27673000D02*
X148201115Y-27830000D01*
X253621115Y-50271000D02*
X253621115Y-31219000D01*
X272674115Y-50271000D02*
X253621115Y-50271000D01*
X272674115Y-31219000D02*
X272674115Y-50271000D01*
X253621115Y-31219000D02*
X272674115Y-31219000D01*
X25021345Y-50271000D02*
X25021345Y-31219000D01*
X101224015Y-50271000D02*
X25021345Y-50271000D01*
X101224015Y-31219000D02*
X101224015Y-50271000D01*
X25021345Y-31219000D02*
X101224015Y-31219000D01*
X39308815Y-88371400D02*
X39308815Y-69318600D01*
X77410115Y-88371400D02*
X39308815Y-88371400D01*
X77410115Y-69318600D02*
X77410115Y-88371400D01*
X39308815Y-69318600D02*
X77410115Y-69318600D01*
X253624115Y-69318600D02*
X177421115Y-69318600D01*
X253624115Y-88368600D02*
X253624115Y-69318600D01*
X258385115Y-88368600D02*
X253624115Y-88368600D01*
X258385115Y-107421400D02*
X258385115Y-88368600D01*
X276480115Y-150151648D02*
X276308115Y-150246734D01*
X277673115Y-28720000D02*
X277673115Y-148019820D01*
X147957115Y-147373520D02*
X147802115Y-147680830D01*
X148201115Y-147130990D02*
X147957115Y-147373520D01*
X148507115Y-146973900D02*
X148201115Y-147130990D01*
X23411795Y-148667500D02*
X23568885Y-148360200D01*
X23169265Y-148910040D02*
X23411795Y-148667500D01*
X22861955Y-149067130D02*
X23169265Y-148910040D01*
X22522965Y-149120880D02*
X22861955Y-149067130D01*
X22182585Y-149067130D02*
X22522965Y-149120880D01*
X21875285Y-148910040D02*
X22182585Y-149067130D01*
X274526115Y-148910040D02*
X274833115Y-149067130D01*
X274284115Y-148667500D02*
X274526115Y-148910040D01*
X274125115Y-148360200D02*
X274284115Y-148667500D01*
X20294672Y-149155330D02*
X20213369Y-148977560D01*
X20391136Y-149327580D02*
X20294672Y-149155330D01*
X276308115Y-150246734D02*
X276130115Y-150330795D01*
X276940115Y-26952000D02*
X277074115Y-27096000D01*
X275368115Y-150512696D02*
X275172115Y-150519586D01*
X277665115Y-28523000D02*
X277673115Y-28720000D01*
X147802115Y-148360200D02*
X147957115Y-148667500D01*
X147748115Y-148021200D02*
X147802115Y-148360200D01*
X147802115Y-147680830D02*
X147748115Y-148021200D01*
X21565225Y-150330795D02*
X21387455Y-150246734D01*
X276063115Y-147373520D02*
X275820115Y-147130990D01*
X276220115Y-147680830D02*
X276063115Y-147373520D01*
X276273115Y-148021200D02*
X276220115Y-147680830D01*
X277603115Y-148604110D02*
X277551115Y-148792900D01*
X22522965Y-150519586D02*
X22325905Y-150512696D01*
X20500000Y-149490190D02*
X20391136Y-149327580D01*
X277304115Y-27412000D02*
X277401115Y-27585000D01*
X20754938Y-149787846D02*
X20621267Y-149644530D01*
X275564115Y-150490647D02*
X275368115Y-150512696D01*
X277401115Y-149155330D02*
X277304115Y-149327580D01*
X20092102Y-28136000D02*
X20144467Y-27947000D01*
X20053517Y-28328000D02*
X20092102Y-28136000D01*
X20053517Y-148412570D02*
X20030090Y-148216880D01*
X20092102Y-148604110D02*
X20053517Y-148412570D01*
X22130225Y-150490647D02*
X21938675Y-150450684D01*
X277665115Y-148216880D02*
X277643115Y-148412570D01*
X182184115Y-107421400D02*
X258385115Y-107421400D01*
X182184115Y-88371400D02*
X182184115Y-107421400D01*
X177421115Y-88371400D02*
X182184115Y-88371400D01*
X177421115Y-69318600D02*
X177421115Y-88371400D01*
X82171515Y-107421400D02*
X82171515Y-88368600D01*
X101224015Y-107421400D02*
X82171515Y-107421400D01*
X101224015Y-88368600D02*
X101224015Y-107421400D01*
X82171515Y-88368600D02*
X101224015Y-88368600D01*
X82171515Y-145521440D02*
X82171515Y-126468700D01*
X115510115Y-145521440D02*
X82171515Y-145521440D01*
X275172115Y-150519586D02*
X22522965Y-150519586D01*
X21875285Y-147130990D02*
X21632745Y-147373520D01*
X22182585Y-146973900D02*
X21875285Y-147130990D01*
X148847115Y-146921510D02*
X148507115Y-146973900D01*
X149188115Y-146973900D02*
X148847115Y-146921510D01*
X277401115Y-27585000D02*
X277483115Y-27762000D01*
X21938675Y-26290000D02*
X22130225Y-26251000D01*
X21749885Y-26342000D02*
X21938675Y-26290000D01*
X276797115Y-26819000D02*
X276940115Y-26952000D01*
X277304115Y-149327580D02*
X277195115Y-149490190D01*
X20030090Y-28523000D02*
X20053517Y-28328000D01*
X20023200Y-28720000D02*
X20030090Y-28523000D01*
X20021822Y-148021200D02*
X20023200Y-28720000D01*
X20030090Y-148216880D02*
X20021822Y-148021200D01*
X274526115Y-147130990D02*
X274284115Y-147373520D01*
X274833115Y-146973900D02*
X274526115Y-147130990D01*
X21565225Y-26411000D02*
X21749885Y-26342000D01*
X21387455Y-26492000D02*
X21565225Y-26411000D01*
X276220115Y-148360200D02*
X276273115Y-148021200D01*
X276063115Y-148667500D02*
X276220115Y-148360200D01*
X275820115Y-148910040D02*
X276063115Y-148667500D01*
X20213369Y-27762000D02*
X20294672Y-27585000D01*
X20144467Y-27947000D02*
X20213369Y-27762000D01*
X277673115Y-148019820D02*
X277665115Y-148216880D01*
X149495115Y-147130990D02*
X149188115Y-146973900D01*
X149738115Y-147373520D02*
X149495115Y-147130990D01*
X149893115Y-147680830D02*
X149738115Y-147373520D01*
X149947115Y-148021200D02*
X149893115Y-147680830D01*
X275513115Y-149067130D02*
X275820115Y-148910040D01*
X275174115Y-149120880D02*
X275513115Y-149067130D01*
X274833115Y-149067130D02*
X275174115Y-149120880D01*
X20391136Y-27412000D02*
X20500000Y-27250000D01*
X20294672Y-27585000D02*
X20391136Y-27412000D01*
X20621267Y-149644530D02*
X20500000Y-149490190D01*
X276643115Y-150042785D02*
X276480115Y-150151648D01*
X149893115Y-148360200D02*
X149947115Y-148021200D01*
X149738115Y-148667500D02*
X149893115Y-148360200D01*
X149495115Y-148910040D02*
X149738115Y-148667500D01*
X149188115Y-149067130D02*
X149495115Y-148910040D01*
X20898254Y-149921517D02*
X20754938Y-149787846D01*
X275946115Y-150398318D02*
X275755115Y-150450684D01*
X21749885Y-150398318D02*
X21565225Y-150330795D01*
X22325905Y-150512696D02*
X22130225Y-150490647D01*
X277551115Y-148792900D02*
X277483115Y-148977560D01*
X21215205Y-150151648D02*
X21052595Y-150042785D01*
X277074115Y-149644530D02*
X276940115Y-149787846D01*
X276643115Y-26697000D02*
X276797115Y-26819000D01*
X277643115Y-148412570D02*
X277603115Y-148604110D01*
X277195115Y-149490190D02*
X277074115Y-149644530D01*
X276797115Y-149921517D02*
X276643115Y-150042785D01*
X276130115Y-150330795D02*
X275946115Y-150398318D01*
X277483115Y-27762000D02*
X277551115Y-27947000D01*
X21215205Y-26588000D02*
X21387455Y-26492000D01*
X21052595Y-26697000D02*
X21215205Y-26588000D01*
X20144467Y-148792900D02*
X20092102Y-148604110D01*
X20213369Y-148977560D02*
X20144467Y-148792900D01*
X20898254Y-26819000D02*
X21052595Y-26697000D01*
X20754938Y-26952000D02*
X20898254Y-26819000D01*
X20621267Y-27096000D02*
X20754938Y-26952000D01*
X20500000Y-27250000D02*
X20621267Y-27096000D01*
M02*
