M48
INCH,TZ
T1C0.0472
T2C0.0689
T3C0.1570
T4C0.1693
%
G90
G05
T1
X73621Y-10061
T2
X37938Y-49913
X41938Y-49913
X20125Y-12413
X24125Y-12413
X35125Y-34913
X39125Y-34913
X27625Y-34900
X31625Y-34900
X25750Y-27400
X29750Y-27400
X72625Y-27413
X76625Y-27413
X18250Y-27400
X22250Y-27400
X35125Y-12413
X39125Y-12413
X87625Y-27413
X91625Y-27413
X12625Y-12413
X16625Y-12413
X89500Y-34900
X93500Y-34900
X82000Y-34900
X86000Y-34900
X102600Y-12400
X106600Y-12400
X95125Y-27400
X99125Y-27400
X33250Y-27413
X37250Y-27413
X74500Y-34900
X78500Y-34900
X80125Y-27400
X84125Y-27400
X20125Y-34913
X24125Y-34913
X27625Y-12413
X31625Y-12413
X97000Y-34900
X101000Y-34900
T3
X20250Y-27400
X37125Y-12413
X89625Y-27413
X14625Y-12413
X91500Y-34900
X84000Y-34900
X104600Y-12400
X97125Y-27400
X35250Y-27413
X76500Y-34900
X82125Y-27400
X22125Y-34913
X29625Y-12413
X99000Y-34900
X39938Y-49913
X22125Y-12413
X37125Y-34913
X29625Y-34900
X27750Y-27400
X74625Y-27413
T4
X59686Y-25594
T0
M30
