M48
;DRILL file {KiCad 5.0.1} date Thu 29 Nov 2018 02:11:53 AM EST
;FORMAT={-:-/ absolute / inch / decimal}
FMAT,2
INCH,TZ
T1C0.0157
T2C0.0276
T3C0.0400
T4C0.0591
T5C0.0866
%
G90
G05
M72
T1
X4.21Y-1.95
X4.44Y-1.86
X5.9Y-2.3
X7.03Y-1.86
X7.06Y-1.75
X7.19Y-1.92
X7.38Y-2.1
X7.84Y-1.71
X9.52Y-2.3
T2
X7.2188Y-2.0647
X7.2188Y-2.3718
X3.75Y-4.221
X3.75Y-4.5281
X9.Y-4.1272
X9.Y-4.4343
X3.9375Y-1.7532
X3.9375Y-2.0603
X2.625Y-1.7532
X2.625Y-2.0603
X5.075Y-5.0152
X5.075Y-5.3222
X3.Y-2.0344
X3.Y-2.3415
X4.9688Y-4.1907
X4.9688Y-4.4978
X8.375Y-2.0335
X8.375Y-2.3406
X3.375Y-1.7532
X3.375Y-2.0603
X8.3438Y-4.1272
X8.3438Y-4.4343
X4.3125Y-4.1907
X4.3125Y-4.4978
X9.1875Y-1.2527
X9.1875Y-1.5598
X9.15Y-2.0585
X9.15Y-2.3656
X7.7812Y-4.159
X7.7812Y-4.466
X4.3125Y-2.0647
X4.3125Y-2.3718
X7.7812Y-2.0153
X7.7812Y-2.3223
X3.6562Y-2.0647
X3.6562Y-2.3718
X4.5938Y-1.7835
X4.5938Y-2.0906
X7.3125Y-4.1907
X7.3125Y-4.4978
T3
X5.8875Y-0.9
X5.8875Y-1.
X5.8875Y-1.1
X5.8875Y-1.2
X5.8875Y-1.3
X5.8875Y-1.4
X5.8875Y-1.5
X5.8875Y-1.6
X5.8875Y-1.7
X5.8875Y-1.8
X5.8875Y-1.9
X5.8875Y-2.
X6.4875Y-0.9
X6.4875Y-1.
X6.4875Y-1.1
X6.4875Y-1.2
X6.4875Y-1.3
X6.4875Y-1.4
X6.4875Y-1.5
X6.4875Y-1.6
X6.4875Y-1.7
X6.4875Y-1.8
X6.4875Y-1.9
X6.4875Y-2.
T5
X10.125Y-1.0312
X1.9688Y-5.3438
X10.0312Y-5.3438
X6.1875Y-2.625
X1.7812Y-1.0312
X6.1875Y-4.5938
T4
X9.5382Y-3.405G85X9.5062Y-3.4625
G05
X9.7562Y-3.3625G85X9.7547Y-3.3853
G05
X4.3819Y-1.155G85X4.35Y-1.2125
G05
X4.6Y-1.1125G85X4.5984Y-1.1353
G05
X2.8819Y-3.405G85X2.85Y-3.4625
G05
X3.1Y-3.3625G85X3.0984Y-3.3853
G05
X4.3819Y-3.405G85X4.35Y-3.4625
G05
X4.6Y-3.3625G85X4.5984Y-3.3853
G05
X3.6319Y-2.655G85X3.6Y-2.7125
G05
X3.85Y-2.6125G85X3.8484Y-2.6353
G05
X8.7882Y-3.405G85X8.7562Y-3.4625
G05
X9.0062Y-3.3625G85X9.0047Y-3.3853
G05
X8.0382Y-3.405G85X8.0062Y-3.4625
G05
X8.2562Y-3.3625G85X8.2547Y-3.3853
G05
X4.3819Y-2.655G85X4.35Y-2.7125
G05
X4.6Y-2.6125G85X4.5984Y-2.6353
G05
X4.3819Y-4.905G85X4.35Y-4.9625
G05
X4.6Y-4.8625G85X4.5984Y-4.8853
G05
X7.2882Y-3.405G85X7.2562Y-3.4625
G05
X7.5062Y-3.3625G85X7.5047Y-3.3853
G05
X2.1319Y-1.155G85X2.1Y-1.2125
G05
X2.35Y-1.1125G85X2.3484Y-1.1353
G05
X7.2882Y-2.655G85X7.2562Y-2.7125
G05
X7.5062Y-2.6125G85X7.5047Y-2.6353
G05
X8.7882Y-2.655G85X8.7562Y-2.7125
G05
X9.0062Y-2.6125G85X9.0047Y-2.6353
G05
X2.8819Y-1.155G85X2.85Y-1.2125
G05
X3.1Y-1.1125G85X3.0984Y-1.1353
G05
X8.0382Y-2.655G85X8.0062Y-2.7125
G05
X8.2562Y-2.6125G85X8.2547Y-2.6353
G05
X2.8819Y-2.655G85X2.85Y-2.7125
G05
X3.1Y-2.6125G85X3.0984Y-2.6353
G05
X9.5382Y-2.655G85X9.5062Y-2.7125
G05
X9.7562Y-2.6125G85X9.7547Y-2.6353
G05
X3.6319Y-3.405G85X3.6Y-3.4625
G05
X3.85Y-3.3625G85X3.8484Y-3.3853
G05
X9.5382Y-1.155G85X9.5062Y-1.2125
G05
X9.7562Y-1.1125G85X9.7547Y-1.1353
G05
X3.6319Y-1.155G85X3.6Y-1.2125
G05
X3.85Y-1.1125G85X3.8484Y-1.1353
G05
T0
M30
