G04 #@! TF.GenerationSoftware,KiCad,Pcbnew,5.0.1*
G04 #@! TF.CreationDate,2018-12-01T12:37:31-05:00*
G04 #@! TF.ProjectId,fightkeyb-pcb,66696768746B6579622D7063622E6B69,rev?*
G04 #@! TF.SameCoordinates,Original*
G04 #@! TF.FileFunction,Soldermask,Top*
G04 #@! TF.FilePolarity,Negative*
%FSLAX46Y46*%
G04 Gerber Fmt 4.6, Leading zero omitted, Abs format (unit mm)*
G04 Created by KiCad (PCBNEW 5.0.1) date Sat 01 Dec 2018 12:37:31 PM EST*
%MOMM*%
%LPD*%
G01*
G04 APERTURE LIST*
%ADD10C,0.100000*%
G04 APERTURE END LIST*
D10*
G36*
X104910160Y-135726120D02*
X103055960Y-135726120D01*
X103055960Y-134524700D01*
X104910160Y-134524700D01*
X104910160Y-135726120D01*
X104910160Y-135726120D01*
G37*
G36*
X99759040Y-135726120D02*
X97904840Y-135726120D01*
X97904840Y-134524700D01*
X99759040Y-134524700D01*
X99759040Y-135726120D01*
X99759040Y-135726120D01*
G37*
G36*
X99759040Y-132530800D02*
X97904840Y-132530800D01*
X97904840Y-131329380D01*
X99759040Y-131329380D01*
X99759040Y-132530800D01*
X99759040Y-132530800D01*
G37*
G36*
X104910160Y-132530800D02*
X103055960Y-132530800D01*
X103055960Y-131329380D01*
X104910160Y-131329380D01*
X104910160Y-132530800D01*
X104910160Y-132530800D01*
G37*
G36*
X102022849Y-124860474D02*
X102385716Y-125010778D01*
X102712287Y-125228986D01*
X102990014Y-125506713D01*
X103208222Y-125833284D01*
X103358526Y-126196151D01*
X103435150Y-126581368D01*
X103435150Y-126974132D01*
X103358526Y-127359349D01*
X103208222Y-127722216D01*
X102990014Y-128048787D01*
X102712287Y-128326514D01*
X102385716Y-128544722D01*
X102022849Y-128695026D01*
X101637632Y-128771650D01*
X101244868Y-128771650D01*
X100859651Y-128695026D01*
X100496784Y-128544722D01*
X100170213Y-128326514D01*
X99892486Y-128048787D01*
X99674278Y-127722216D01*
X99523974Y-127359349D01*
X99447350Y-126974132D01*
X99447350Y-126581368D01*
X99523974Y-126196151D01*
X99674278Y-125833284D01*
X99892486Y-125506713D01*
X100170213Y-125228986D01*
X100496784Y-125010778D01*
X100859651Y-124860474D01*
X101244868Y-124783850D01*
X101637632Y-124783850D01*
X102022849Y-124860474D01*
X102022849Y-124860474D01*
G37*
G36*
X106776478Y-125936375D02*
X106935717Y-126002334D01*
X107079033Y-126098095D01*
X107200905Y-126219967D01*
X107296666Y-126363283D01*
X107362625Y-126522522D01*
X107396250Y-126691569D01*
X107396250Y-126863931D01*
X107362625Y-127032978D01*
X107296666Y-127192217D01*
X107200905Y-127335533D01*
X107079033Y-127457405D01*
X106935717Y-127553166D01*
X106776478Y-127619125D01*
X106607431Y-127652750D01*
X106435069Y-127652750D01*
X106266022Y-127619125D01*
X106106783Y-127553166D01*
X105963467Y-127457405D01*
X105841595Y-127335533D01*
X105745834Y-127192217D01*
X105679875Y-127032978D01*
X105646250Y-126863931D01*
X105646250Y-126691569D01*
X105679875Y-126522522D01*
X105745834Y-126363283D01*
X105841595Y-126219967D01*
X105963467Y-126098095D01*
X106106783Y-126002334D01*
X106266022Y-125936375D01*
X106435069Y-125902750D01*
X106607431Y-125902750D01*
X106776478Y-125936375D01*
X106776478Y-125936375D01*
G37*
G36*
X96616478Y-125936375D02*
X96775717Y-126002334D01*
X96919033Y-126098095D01*
X97040905Y-126219967D01*
X97136666Y-126363283D01*
X97202625Y-126522522D01*
X97236250Y-126691569D01*
X97236250Y-126863931D01*
X97202625Y-127032978D01*
X97136666Y-127192217D01*
X97040905Y-127335533D01*
X96919033Y-127457405D01*
X96775717Y-127553166D01*
X96616478Y-127619125D01*
X96447431Y-127652750D01*
X96275069Y-127652750D01*
X96106022Y-127619125D01*
X95946783Y-127553166D01*
X95803467Y-127457405D01*
X95681595Y-127335533D01*
X95585834Y-127192217D01*
X95519875Y-127032978D01*
X95486250Y-126863931D01*
X95486250Y-126691569D01*
X95519875Y-126522522D01*
X95585834Y-126363283D01*
X95681595Y-126219967D01*
X95803467Y-126098095D01*
X95946783Y-126002334D01*
X96106022Y-125936375D01*
X96275069Y-125902750D01*
X96447431Y-125902750D01*
X96616478Y-125936375D01*
X96616478Y-125936375D01*
G37*
G36*
X97800160Y-97476120D02*
X95945960Y-97476120D01*
X95945960Y-96274700D01*
X97800160Y-96274700D01*
X97800160Y-97476120D01*
X97800160Y-97476120D01*
G37*
G36*
X59910160Y-97476120D02*
X58055960Y-97476120D01*
X58055960Y-96274700D01*
X59910160Y-96274700D01*
X59910160Y-97476120D01*
X59910160Y-97476120D01*
G37*
G36*
X54759040Y-97476120D02*
X52904840Y-97476120D01*
X52904840Y-96274700D01*
X54759040Y-96274700D01*
X54759040Y-97476120D01*
X54759040Y-97476120D01*
G37*
G36*
X73599040Y-97476120D02*
X71744840Y-97476120D01*
X71744840Y-96274700D01*
X73599040Y-96274700D01*
X73599040Y-97476120D01*
X73599040Y-97476120D01*
G37*
G36*
X78750160Y-97476120D02*
X76895960Y-97476120D01*
X76895960Y-96274700D01*
X78750160Y-96274700D01*
X78750160Y-97476120D01*
X78750160Y-97476120D01*
G37*
G36*
X92649040Y-97476120D02*
X90794840Y-97476120D01*
X90794840Y-96274700D01*
X92649040Y-96274700D01*
X92649040Y-97476120D01*
X92649040Y-97476120D01*
G37*
G36*
X197812660Y-97476120D02*
X195958460Y-97476120D01*
X195958460Y-96274700D01*
X197812660Y-96274700D01*
X197812660Y-97476120D01*
X197812660Y-97476120D01*
G37*
G36*
X249811540Y-97476120D02*
X247957340Y-97476120D01*
X247957340Y-96274700D01*
X249811540Y-96274700D01*
X249811540Y-97476120D01*
X249811540Y-97476120D01*
G37*
G36*
X254962660Y-97476120D02*
X253108460Y-97476120D01*
X253108460Y-96274700D01*
X254962660Y-96274700D01*
X254962660Y-97476120D01*
X254962660Y-97476120D01*
G37*
G36*
X235910160Y-97476120D02*
X234055960Y-97476120D01*
X234055960Y-96274700D01*
X235910160Y-96274700D01*
X235910160Y-97476120D01*
X235910160Y-97476120D01*
G37*
G36*
X230759040Y-97476120D02*
X228904840Y-97476120D01*
X228904840Y-96274700D01*
X230759040Y-96274700D01*
X230759040Y-97476120D01*
X230759040Y-97476120D01*
G37*
G36*
X216862660Y-97476120D02*
X215008460Y-97476120D01*
X215008460Y-96274700D01*
X216862660Y-96274700D01*
X216862660Y-97476120D01*
X216862660Y-97476120D01*
G37*
G36*
X192661540Y-97476120D02*
X190807340Y-97476120D01*
X190807340Y-96274700D01*
X192661540Y-96274700D01*
X192661540Y-97476120D01*
X192661540Y-97476120D01*
G37*
G36*
X211711540Y-97476120D02*
X209857340Y-97476120D01*
X209857340Y-96274700D01*
X211711540Y-96274700D01*
X211711540Y-97476120D01*
X211711540Y-97476120D01*
G37*
G36*
X197812660Y-94280800D02*
X195958460Y-94280800D01*
X195958460Y-93079380D01*
X197812660Y-93079380D01*
X197812660Y-94280800D01*
X197812660Y-94280800D01*
G37*
G36*
X54759040Y-94280800D02*
X52904840Y-94280800D01*
X52904840Y-93079380D01*
X54759040Y-93079380D01*
X54759040Y-94280800D01*
X54759040Y-94280800D01*
G37*
G36*
X59910160Y-94280800D02*
X58055960Y-94280800D01*
X58055960Y-93079380D01*
X59910160Y-93079380D01*
X59910160Y-94280800D01*
X59910160Y-94280800D01*
G37*
G36*
X73599040Y-94280800D02*
X71744840Y-94280800D01*
X71744840Y-93079380D01*
X73599040Y-93079380D01*
X73599040Y-94280800D01*
X73599040Y-94280800D01*
G37*
G36*
X78750160Y-94280800D02*
X76895960Y-94280800D01*
X76895960Y-93079380D01*
X78750160Y-93079380D01*
X78750160Y-94280800D01*
X78750160Y-94280800D01*
G37*
G36*
X254962660Y-94280800D02*
X253108460Y-94280800D01*
X253108460Y-93079380D01*
X254962660Y-93079380D01*
X254962660Y-94280800D01*
X254962660Y-94280800D01*
G37*
G36*
X249811540Y-94280800D02*
X247957340Y-94280800D01*
X247957340Y-93079380D01*
X249811540Y-93079380D01*
X249811540Y-94280800D01*
X249811540Y-94280800D01*
G37*
G36*
X97800160Y-94280800D02*
X95945960Y-94280800D01*
X95945960Y-93079380D01*
X97800160Y-93079380D01*
X97800160Y-94280800D01*
X97800160Y-94280800D01*
G37*
G36*
X192661540Y-94280800D02*
X190807340Y-94280800D01*
X190807340Y-93079380D01*
X192661540Y-93079380D01*
X192661540Y-94280800D01*
X192661540Y-94280800D01*
G37*
G36*
X230759040Y-94280800D02*
X228904840Y-94280800D01*
X228904840Y-93079380D01*
X230759040Y-93079380D01*
X230759040Y-94280800D01*
X230759040Y-94280800D01*
G37*
G36*
X235910160Y-94280800D02*
X234055960Y-94280800D01*
X234055960Y-93079380D01*
X235910160Y-93079380D01*
X235910160Y-94280800D01*
X235910160Y-94280800D01*
G37*
G36*
X216862660Y-94280800D02*
X215008460Y-94280800D01*
X215008460Y-93079380D01*
X216862660Y-93079380D01*
X216862660Y-94280800D01*
X216862660Y-94280800D01*
G37*
G36*
X211711540Y-94280800D02*
X209857340Y-94280800D01*
X209857340Y-93079380D01*
X211711540Y-93079380D01*
X211711540Y-94280800D01*
X211711540Y-94280800D01*
G37*
G36*
X92649040Y-94280800D02*
X90794840Y-94280800D01*
X90794840Y-93079380D01*
X92649040Y-93079380D01*
X92649040Y-94280800D01*
X92649040Y-94280800D01*
G37*
G36*
X56779099Y-86760474D02*
X57141966Y-86910778D01*
X57468537Y-87128986D01*
X57746264Y-87406713D01*
X57964472Y-87733284D01*
X58114776Y-88096151D01*
X58191400Y-88481368D01*
X58191400Y-88874132D01*
X58114776Y-89259349D01*
X57964472Y-89622216D01*
X57746264Y-89948787D01*
X57468537Y-90226514D01*
X57141966Y-90444722D01*
X56779099Y-90595026D01*
X56393882Y-90671650D01*
X56001118Y-90671650D01*
X55615901Y-90595026D01*
X55253034Y-90444722D01*
X54926463Y-90226514D01*
X54648736Y-89948787D01*
X54430528Y-89622216D01*
X54280224Y-89259349D01*
X54203600Y-88874132D01*
X54203600Y-88481368D01*
X54280224Y-88096151D01*
X54430528Y-87733284D01*
X54648736Y-87406713D01*
X54926463Y-87128986D01*
X55253034Y-86910778D01*
X55615901Y-86760474D01*
X56001118Y-86683850D01*
X56393882Y-86683850D01*
X56779099Y-86760474D01*
X56779099Y-86760474D01*
G37*
G36*
X94879099Y-86760474D02*
X95241966Y-86910778D01*
X95568537Y-87128986D01*
X95846264Y-87406713D01*
X96064472Y-87733284D01*
X96214776Y-88096151D01*
X96291400Y-88481368D01*
X96291400Y-88874132D01*
X96214776Y-89259349D01*
X96064472Y-89622216D01*
X95846264Y-89948787D01*
X95568537Y-90226514D01*
X95241966Y-90444722D01*
X94879099Y-90595026D01*
X94493882Y-90671650D01*
X94101118Y-90671650D01*
X93715901Y-90595026D01*
X93353034Y-90444722D01*
X93026463Y-90226514D01*
X92748736Y-89948787D01*
X92530528Y-89622216D01*
X92380224Y-89259349D01*
X92303600Y-88874132D01*
X92303600Y-88481368D01*
X92380224Y-88096151D01*
X92530528Y-87733284D01*
X92748736Y-87406713D01*
X93026463Y-87128986D01*
X93353034Y-86910778D01*
X93715901Y-86760474D01*
X94101118Y-86683850D01*
X94493882Y-86683850D01*
X94879099Y-86760474D01*
X94879099Y-86760474D01*
G37*
G36*
X75829099Y-86728724D02*
X76191966Y-86879028D01*
X76518537Y-87097236D01*
X76796264Y-87374963D01*
X77014472Y-87701534D01*
X77164776Y-88064401D01*
X77241400Y-88449618D01*
X77241400Y-88842382D01*
X77164776Y-89227599D01*
X77014472Y-89590466D01*
X76796264Y-89917037D01*
X76518537Y-90194764D01*
X76191966Y-90412972D01*
X75829099Y-90563276D01*
X75443882Y-90639900D01*
X75051118Y-90639900D01*
X74665901Y-90563276D01*
X74303034Y-90412972D01*
X73976463Y-90194764D01*
X73698736Y-89917037D01*
X73480528Y-89590466D01*
X73330224Y-89227599D01*
X73253600Y-88842382D01*
X73253600Y-88449618D01*
X73330224Y-88064401D01*
X73480528Y-87701534D01*
X73698736Y-87374963D01*
X73976463Y-87097236D01*
X74303034Y-86879028D01*
X74665901Y-86728724D01*
X75051118Y-86652100D01*
X75443882Y-86652100D01*
X75829099Y-86728724D01*
X75829099Y-86728724D01*
G37*
G36*
X194891599Y-86728724D02*
X195254466Y-86879028D01*
X195581037Y-87097236D01*
X195858764Y-87374963D01*
X196076972Y-87701534D01*
X196227276Y-88064401D01*
X196303900Y-88449618D01*
X196303900Y-88842382D01*
X196227276Y-89227599D01*
X196076972Y-89590466D01*
X195858764Y-89917037D01*
X195581037Y-90194764D01*
X195254466Y-90412972D01*
X194891599Y-90563276D01*
X194506382Y-90639900D01*
X194113618Y-90639900D01*
X193728401Y-90563276D01*
X193365534Y-90412972D01*
X193038963Y-90194764D01*
X192761236Y-89917037D01*
X192543028Y-89590466D01*
X192392724Y-89227599D01*
X192316100Y-88842382D01*
X192316100Y-88449618D01*
X192392724Y-88064401D01*
X192543028Y-87701534D01*
X192761236Y-87374963D01*
X193038963Y-87097236D01*
X193365534Y-86879028D01*
X193728401Y-86728724D01*
X194113618Y-86652100D01*
X194506382Y-86652100D01*
X194891599Y-86728724D01*
X194891599Y-86728724D01*
G37*
G36*
X252041599Y-86728724D02*
X252404466Y-86879028D01*
X252731037Y-87097236D01*
X253008764Y-87374963D01*
X253226972Y-87701534D01*
X253377276Y-88064401D01*
X253453900Y-88449618D01*
X253453900Y-88842382D01*
X253377276Y-89227599D01*
X253226972Y-89590466D01*
X253008764Y-89917037D01*
X252731037Y-90194764D01*
X252404466Y-90412972D01*
X252041599Y-90563276D01*
X251656382Y-90639900D01*
X251263618Y-90639900D01*
X250878401Y-90563276D01*
X250515534Y-90412972D01*
X250188963Y-90194764D01*
X249911236Y-89917037D01*
X249693028Y-89590466D01*
X249542724Y-89227599D01*
X249466100Y-88842382D01*
X249466100Y-88449618D01*
X249542724Y-88064401D01*
X249693028Y-87701534D01*
X249911236Y-87374963D01*
X250188963Y-87097236D01*
X250515534Y-86879028D01*
X250878401Y-86728724D01*
X251263618Y-86652100D01*
X251656382Y-86652100D01*
X252041599Y-86728724D01*
X252041599Y-86728724D01*
G37*
G36*
X213941599Y-86728724D02*
X214304466Y-86879028D01*
X214631037Y-87097236D01*
X214908764Y-87374963D01*
X215126972Y-87701534D01*
X215277276Y-88064401D01*
X215353900Y-88449618D01*
X215353900Y-88842382D01*
X215277276Y-89227599D01*
X215126972Y-89590466D01*
X214908764Y-89917037D01*
X214631037Y-90194764D01*
X214304466Y-90412972D01*
X213941599Y-90563276D01*
X213556382Y-90639900D01*
X213163618Y-90639900D01*
X212778401Y-90563276D01*
X212415534Y-90412972D01*
X212088963Y-90194764D01*
X211811236Y-89917037D01*
X211593028Y-89590466D01*
X211442724Y-89227599D01*
X211366100Y-88842382D01*
X211366100Y-88449618D01*
X211442724Y-88064401D01*
X211593028Y-87701534D01*
X211811236Y-87374963D01*
X212088963Y-87097236D01*
X212415534Y-86879028D01*
X212778401Y-86728724D01*
X213163618Y-86652100D01*
X213556382Y-86652100D01*
X213941599Y-86728724D01*
X213941599Y-86728724D01*
G37*
G36*
X232991599Y-86728724D02*
X233354466Y-86879028D01*
X233681037Y-87097236D01*
X233958764Y-87374963D01*
X234176972Y-87701534D01*
X234327276Y-88064401D01*
X234403900Y-88449618D01*
X234403900Y-88842382D01*
X234327276Y-89227599D01*
X234176972Y-89590466D01*
X233958764Y-89917037D01*
X233681037Y-90194764D01*
X233354466Y-90412972D01*
X232991599Y-90563276D01*
X232606382Y-90639900D01*
X232213618Y-90639900D01*
X231828401Y-90563276D01*
X231465534Y-90412972D01*
X231138963Y-90194764D01*
X230861236Y-89917037D01*
X230643028Y-89590466D01*
X230492724Y-89227599D01*
X230416100Y-88842382D01*
X230416100Y-88449618D01*
X230492724Y-88064401D01*
X230643028Y-87701534D01*
X230861236Y-87374963D01*
X231138963Y-87097236D01*
X231465534Y-86879028D01*
X231828401Y-86728724D01*
X232213618Y-86652100D01*
X232606382Y-86652100D01*
X232991599Y-86728724D01*
X232991599Y-86728724D01*
G37*
G36*
X99632728Y-87836375D02*
X99791967Y-87902334D01*
X99935283Y-87998095D01*
X100057155Y-88119967D01*
X100152916Y-88263283D01*
X100218875Y-88422522D01*
X100252500Y-88591569D01*
X100252500Y-88763931D01*
X100218875Y-88932978D01*
X100152916Y-89092217D01*
X100057155Y-89235533D01*
X99935283Y-89357405D01*
X99791967Y-89453166D01*
X99632728Y-89519125D01*
X99463681Y-89552750D01*
X99291319Y-89552750D01*
X99122272Y-89519125D01*
X98963033Y-89453166D01*
X98819717Y-89357405D01*
X98697845Y-89235533D01*
X98602084Y-89092217D01*
X98536125Y-88932978D01*
X98502500Y-88763931D01*
X98502500Y-88591569D01*
X98536125Y-88422522D01*
X98602084Y-88263283D01*
X98697845Y-88119967D01*
X98819717Y-87998095D01*
X98963033Y-87902334D01*
X99122272Y-87836375D01*
X99291319Y-87802750D01*
X99463681Y-87802750D01*
X99632728Y-87836375D01*
X99632728Y-87836375D01*
G37*
G36*
X61532728Y-87836375D02*
X61691967Y-87902334D01*
X61835283Y-87998095D01*
X61957155Y-88119967D01*
X62052916Y-88263283D01*
X62118875Y-88422522D01*
X62152500Y-88591569D01*
X62152500Y-88763931D01*
X62118875Y-88932978D01*
X62052916Y-89092217D01*
X61957155Y-89235533D01*
X61835283Y-89357405D01*
X61691967Y-89453166D01*
X61532728Y-89519125D01*
X61363681Y-89552750D01*
X61191319Y-89552750D01*
X61022272Y-89519125D01*
X60863033Y-89453166D01*
X60719717Y-89357405D01*
X60597845Y-89235533D01*
X60502084Y-89092217D01*
X60436125Y-88932978D01*
X60402500Y-88763931D01*
X60402500Y-88591569D01*
X60436125Y-88422522D01*
X60502084Y-88263283D01*
X60597845Y-88119967D01*
X60719717Y-87998095D01*
X60863033Y-87902334D01*
X61022272Y-87836375D01*
X61191319Y-87802750D01*
X61363681Y-87802750D01*
X61532728Y-87836375D01*
X61532728Y-87836375D01*
G37*
G36*
X51372728Y-87836375D02*
X51531967Y-87902334D01*
X51675283Y-87998095D01*
X51797155Y-88119967D01*
X51892916Y-88263283D01*
X51958875Y-88422522D01*
X51992500Y-88591569D01*
X51992500Y-88763931D01*
X51958875Y-88932978D01*
X51892916Y-89092217D01*
X51797155Y-89235533D01*
X51675283Y-89357405D01*
X51531967Y-89453166D01*
X51372728Y-89519125D01*
X51203681Y-89552750D01*
X51031319Y-89552750D01*
X50862272Y-89519125D01*
X50703033Y-89453166D01*
X50559717Y-89357405D01*
X50437845Y-89235533D01*
X50342084Y-89092217D01*
X50276125Y-88932978D01*
X50242500Y-88763931D01*
X50242500Y-88591569D01*
X50276125Y-88422522D01*
X50342084Y-88263283D01*
X50437845Y-88119967D01*
X50559717Y-87998095D01*
X50703033Y-87902334D01*
X50862272Y-87836375D01*
X51031319Y-87802750D01*
X51203681Y-87802750D01*
X51372728Y-87836375D01*
X51372728Y-87836375D01*
G37*
G36*
X89472728Y-87836375D02*
X89631967Y-87902334D01*
X89775283Y-87998095D01*
X89897155Y-88119967D01*
X89992916Y-88263283D01*
X90058875Y-88422522D01*
X90092500Y-88591569D01*
X90092500Y-88763931D01*
X90058875Y-88932978D01*
X89992916Y-89092217D01*
X89897155Y-89235533D01*
X89775283Y-89357405D01*
X89631967Y-89453166D01*
X89472728Y-89519125D01*
X89303681Y-89552750D01*
X89131319Y-89552750D01*
X88962272Y-89519125D01*
X88803033Y-89453166D01*
X88659717Y-89357405D01*
X88537845Y-89235533D01*
X88442084Y-89092217D01*
X88376125Y-88932978D01*
X88342500Y-88763931D01*
X88342500Y-88591569D01*
X88376125Y-88422522D01*
X88442084Y-88263283D01*
X88537845Y-88119967D01*
X88659717Y-87998095D01*
X88803033Y-87902334D01*
X88962272Y-87836375D01*
X89131319Y-87802750D01*
X89303681Y-87802750D01*
X89472728Y-87836375D01*
X89472728Y-87836375D01*
G37*
G36*
X237745228Y-87804625D02*
X237904467Y-87870584D01*
X238047783Y-87966345D01*
X238169655Y-88088217D01*
X238265416Y-88231533D01*
X238331375Y-88390772D01*
X238365000Y-88559819D01*
X238365000Y-88732181D01*
X238331375Y-88901228D01*
X238265416Y-89060467D01*
X238169655Y-89203783D01*
X238047783Y-89325655D01*
X237904467Y-89421416D01*
X237745228Y-89487375D01*
X237576181Y-89521000D01*
X237403819Y-89521000D01*
X237234772Y-89487375D01*
X237075533Y-89421416D01*
X236932217Y-89325655D01*
X236810345Y-89203783D01*
X236714584Y-89060467D01*
X236648625Y-88901228D01*
X236615000Y-88732181D01*
X236615000Y-88559819D01*
X236648625Y-88390772D01*
X236714584Y-88231533D01*
X236810345Y-88088217D01*
X236932217Y-87966345D01*
X237075533Y-87870584D01*
X237234772Y-87804625D01*
X237403819Y-87771000D01*
X237576181Y-87771000D01*
X237745228Y-87804625D01*
X237745228Y-87804625D01*
G37*
G36*
X256795228Y-87804625D02*
X256954467Y-87870584D01*
X257097783Y-87966345D01*
X257219655Y-88088217D01*
X257315416Y-88231533D01*
X257381375Y-88390772D01*
X257415000Y-88559819D01*
X257415000Y-88732181D01*
X257381375Y-88901228D01*
X257315416Y-89060467D01*
X257219655Y-89203783D01*
X257097783Y-89325655D01*
X256954467Y-89421416D01*
X256795228Y-89487375D01*
X256626181Y-89521000D01*
X256453819Y-89521000D01*
X256284772Y-89487375D01*
X256125533Y-89421416D01*
X255982217Y-89325655D01*
X255860345Y-89203783D01*
X255764584Y-89060467D01*
X255698625Y-88901228D01*
X255665000Y-88732181D01*
X255665000Y-88559819D01*
X255698625Y-88390772D01*
X255764584Y-88231533D01*
X255860345Y-88088217D01*
X255982217Y-87966345D01*
X256125533Y-87870584D01*
X256284772Y-87804625D01*
X256453819Y-87771000D01*
X256626181Y-87771000D01*
X256795228Y-87804625D01*
X256795228Y-87804625D01*
G37*
G36*
X246635228Y-87804625D02*
X246794467Y-87870584D01*
X246937783Y-87966345D01*
X247059655Y-88088217D01*
X247155416Y-88231533D01*
X247221375Y-88390772D01*
X247255000Y-88559819D01*
X247255000Y-88732181D01*
X247221375Y-88901228D01*
X247155416Y-89060467D01*
X247059655Y-89203783D01*
X246937783Y-89325655D01*
X246794467Y-89421416D01*
X246635228Y-89487375D01*
X246466181Y-89521000D01*
X246293819Y-89521000D01*
X246124772Y-89487375D01*
X245965533Y-89421416D01*
X245822217Y-89325655D01*
X245700345Y-89203783D01*
X245604584Y-89060467D01*
X245538625Y-88901228D01*
X245505000Y-88732181D01*
X245505000Y-88559819D01*
X245538625Y-88390772D01*
X245604584Y-88231533D01*
X245700345Y-88088217D01*
X245822217Y-87966345D01*
X245965533Y-87870584D01*
X246124772Y-87804625D01*
X246293819Y-87771000D01*
X246466181Y-87771000D01*
X246635228Y-87804625D01*
X246635228Y-87804625D01*
G37*
G36*
X218695228Y-87804625D02*
X218854467Y-87870584D01*
X218997783Y-87966345D01*
X219119655Y-88088217D01*
X219215416Y-88231533D01*
X219281375Y-88390772D01*
X219315000Y-88559819D01*
X219315000Y-88732181D01*
X219281375Y-88901228D01*
X219215416Y-89060467D01*
X219119655Y-89203783D01*
X218997783Y-89325655D01*
X218854467Y-89421416D01*
X218695228Y-89487375D01*
X218526181Y-89521000D01*
X218353819Y-89521000D01*
X218184772Y-89487375D01*
X218025533Y-89421416D01*
X217882217Y-89325655D01*
X217760345Y-89203783D01*
X217664584Y-89060467D01*
X217598625Y-88901228D01*
X217565000Y-88732181D01*
X217565000Y-88559819D01*
X217598625Y-88390772D01*
X217664584Y-88231533D01*
X217760345Y-88088217D01*
X217882217Y-87966345D01*
X218025533Y-87870584D01*
X218184772Y-87804625D01*
X218353819Y-87771000D01*
X218526181Y-87771000D01*
X218695228Y-87804625D01*
X218695228Y-87804625D01*
G37*
G36*
X208535228Y-87804625D02*
X208694467Y-87870584D01*
X208837783Y-87966345D01*
X208959655Y-88088217D01*
X209055416Y-88231533D01*
X209121375Y-88390772D01*
X209155000Y-88559819D01*
X209155000Y-88732181D01*
X209121375Y-88901228D01*
X209055416Y-89060467D01*
X208959655Y-89203783D01*
X208837783Y-89325655D01*
X208694467Y-89421416D01*
X208535228Y-89487375D01*
X208366181Y-89521000D01*
X208193819Y-89521000D01*
X208024772Y-89487375D01*
X207865533Y-89421416D01*
X207722217Y-89325655D01*
X207600345Y-89203783D01*
X207504584Y-89060467D01*
X207438625Y-88901228D01*
X207405000Y-88732181D01*
X207405000Y-88559819D01*
X207438625Y-88390772D01*
X207504584Y-88231533D01*
X207600345Y-88088217D01*
X207722217Y-87966345D01*
X207865533Y-87870584D01*
X208024772Y-87804625D01*
X208193819Y-87771000D01*
X208366181Y-87771000D01*
X208535228Y-87804625D01*
X208535228Y-87804625D01*
G37*
G36*
X199645228Y-87804625D02*
X199804467Y-87870584D01*
X199947783Y-87966345D01*
X200069655Y-88088217D01*
X200165416Y-88231533D01*
X200231375Y-88390772D01*
X200265000Y-88559819D01*
X200265000Y-88732181D01*
X200231375Y-88901228D01*
X200165416Y-89060467D01*
X200069655Y-89203783D01*
X199947783Y-89325655D01*
X199804467Y-89421416D01*
X199645228Y-89487375D01*
X199476181Y-89521000D01*
X199303819Y-89521000D01*
X199134772Y-89487375D01*
X198975533Y-89421416D01*
X198832217Y-89325655D01*
X198710345Y-89203783D01*
X198614584Y-89060467D01*
X198548625Y-88901228D01*
X198515000Y-88732181D01*
X198515000Y-88559819D01*
X198548625Y-88390772D01*
X198614584Y-88231533D01*
X198710345Y-88088217D01*
X198832217Y-87966345D01*
X198975533Y-87870584D01*
X199134772Y-87804625D01*
X199303819Y-87771000D01*
X199476181Y-87771000D01*
X199645228Y-87804625D01*
X199645228Y-87804625D01*
G37*
G36*
X189485228Y-87804625D02*
X189644467Y-87870584D01*
X189787783Y-87966345D01*
X189909655Y-88088217D01*
X190005416Y-88231533D01*
X190071375Y-88390772D01*
X190105000Y-88559819D01*
X190105000Y-88732181D01*
X190071375Y-88901228D01*
X190005416Y-89060467D01*
X189909655Y-89203783D01*
X189787783Y-89325655D01*
X189644467Y-89421416D01*
X189485228Y-89487375D01*
X189316181Y-89521000D01*
X189143819Y-89521000D01*
X188974772Y-89487375D01*
X188815533Y-89421416D01*
X188672217Y-89325655D01*
X188550345Y-89203783D01*
X188454584Y-89060467D01*
X188388625Y-88901228D01*
X188355000Y-88732181D01*
X188355000Y-88559819D01*
X188388625Y-88390772D01*
X188454584Y-88231533D01*
X188550345Y-88088217D01*
X188672217Y-87966345D01*
X188815533Y-87870584D01*
X188974772Y-87804625D01*
X189143819Y-87771000D01*
X189316181Y-87771000D01*
X189485228Y-87804625D01*
X189485228Y-87804625D01*
G37*
G36*
X80582728Y-87804625D02*
X80741967Y-87870584D01*
X80885283Y-87966345D01*
X81007155Y-88088217D01*
X81102916Y-88231533D01*
X81168875Y-88390772D01*
X81202500Y-88559819D01*
X81202500Y-88732181D01*
X81168875Y-88901228D01*
X81102916Y-89060467D01*
X81007155Y-89203783D01*
X80885283Y-89325655D01*
X80741967Y-89421416D01*
X80582728Y-89487375D01*
X80413681Y-89521000D01*
X80241319Y-89521000D01*
X80072272Y-89487375D01*
X79913033Y-89421416D01*
X79769717Y-89325655D01*
X79647845Y-89203783D01*
X79552084Y-89060467D01*
X79486125Y-88901228D01*
X79452500Y-88732181D01*
X79452500Y-88559819D01*
X79486125Y-88390772D01*
X79552084Y-88231533D01*
X79647845Y-88088217D01*
X79769717Y-87966345D01*
X79913033Y-87870584D01*
X80072272Y-87804625D01*
X80241319Y-87771000D01*
X80413681Y-87771000D01*
X80582728Y-87804625D01*
X80582728Y-87804625D01*
G37*
G36*
X70422728Y-87804625D02*
X70581967Y-87870584D01*
X70725283Y-87966345D01*
X70847155Y-88088217D01*
X70942916Y-88231533D01*
X71008875Y-88390772D01*
X71042500Y-88559819D01*
X71042500Y-88732181D01*
X71008875Y-88901228D01*
X70942916Y-89060467D01*
X70847155Y-89203783D01*
X70725283Y-89325655D01*
X70581967Y-89421416D01*
X70422728Y-89487375D01*
X70253681Y-89521000D01*
X70081319Y-89521000D01*
X69912272Y-89487375D01*
X69753033Y-89421416D01*
X69609717Y-89325655D01*
X69487845Y-89203783D01*
X69392084Y-89060467D01*
X69326125Y-88901228D01*
X69292500Y-88732181D01*
X69292500Y-88559819D01*
X69326125Y-88390772D01*
X69392084Y-88231533D01*
X69487845Y-88088217D01*
X69609717Y-87966345D01*
X69753033Y-87870584D01*
X69912272Y-87804625D01*
X70081319Y-87771000D01*
X70253681Y-87771000D01*
X70422728Y-87804625D01*
X70422728Y-87804625D01*
G37*
G36*
X227585228Y-87804625D02*
X227744467Y-87870584D01*
X227887783Y-87966345D01*
X228009655Y-88088217D01*
X228105416Y-88231533D01*
X228171375Y-88390772D01*
X228205000Y-88559819D01*
X228205000Y-88732181D01*
X228171375Y-88901228D01*
X228105416Y-89060467D01*
X228009655Y-89203783D01*
X227887783Y-89325655D01*
X227744467Y-89421416D01*
X227585228Y-89487375D01*
X227416181Y-89521000D01*
X227243819Y-89521000D01*
X227074772Y-89487375D01*
X226915533Y-89421416D01*
X226772217Y-89325655D01*
X226650345Y-89203783D01*
X226554584Y-89060467D01*
X226488625Y-88901228D01*
X226455000Y-88732181D01*
X226455000Y-88559819D01*
X226488625Y-88390772D01*
X226554584Y-88231533D01*
X226650345Y-88088217D01*
X226772217Y-87966345D01*
X226915533Y-87870584D01*
X227074772Y-87804625D01*
X227243819Y-87771000D01*
X227416181Y-87771000D01*
X227585228Y-87804625D01*
X227585228Y-87804625D01*
G37*
G36*
X187962540Y-78476120D02*
X186108340Y-78476120D01*
X186108340Y-77274700D01*
X187962540Y-77274700D01*
X187962540Y-78476120D01*
X187962540Y-78476120D01*
G37*
G36*
X87886540Y-78476120D02*
X86032340Y-78476120D01*
X86032340Y-77274700D01*
X87886540Y-77274700D01*
X87886540Y-78476120D01*
X87886540Y-78476120D01*
G37*
G36*
X68836540Y-78476120D02*
X66982340Y-78476120D01*
X66982340Y-77274700D01*
X68836540Y-77274700D01*
X68836540Y-78476120D01*
X68836540Y-78476120D01*
G37*
G36*
X49786540Y-78476120D02*
X47932340Y-78476120D01*
X47932340Y-77274700D01*
X49786540Y-77274700D01*
X49786540Y-78476120D01*
X49786540Y-78476120D01*
G37*
G36*
X73987660Y-78476120D02*
X72133460Y-78476120D01*
X72133460Y-77274700D01*
X73987660Y-77274700D01*
X73987660Y-78476120D01*
X73987660Y-78476120D01*
G37*
G36*
X54937660Y-78476120D02*
X53083460Y-78476120D01*
X53083460Y-77274700D01*
X54937660Y-77274700D01*
X54937660Y-78476120D01*
X54937660Y-78476120D01*
G37*
G36*
X212100160Y-78476120D02*
X210245960Y-78476120D01*
X210245960Y-77274700D01*
X212100160Y-77274700D01*
X212100160Y-78476120D01*
X212100160Y-78476120D01*
G37*
G36*
X206949040Y-78476120D02*
X205094840Y-78476120D01*
X205094840Y-77274700D01*
X206949040Y-77274700D01*
X206949040Y-78476120D01*
X206949040Y-78476120D01*
G37*
G36*
X193113660Y-78476120D02*
X191259460Y-78476120D01*
X191259460Y-77274700D01*
X193113660Y-77274700D01*
X193113660Y-78476120D01*
X193113660Y-78476120D01*
G37*
G36*
X226009040Y-78476120D02*
X224154840Y-78476120D01*
X224154840Y-77274700D01*
X226009040Y-77274700D01*
X226009040Y-78476120D01*
X226009040Y-78476120D01*
G37*
G36*
X245049040Y-78476120D02*
X243194840Y-78476120D01*
X243194840Y-77274700D01*
X245049040Y-77274700D01*
X245049040Y-78476120D01*
X245049040Y-78476120D01*
G37*
G36*
X93037660Y-78476120D02*
X91183460Y-78476120D01*
X91183460Y-77274700D01*
X93037660Y-77274700D01*
X93037660Y-78476120D01*
X93037660Y-78476120D01*
G37*
G36*
X250200160Y-78476120D02*
X248345960Y-78476120D01*
X248345960Y-77274700D01*
X250200160Y-77274700D01*
X250200160Y-78476120D01*
X250200160Y-78476120D01*
G37*
G36*
X231160160Y-78476120D02*
X229305960Y-78476120D01*
X229305960Y-77274700D01*
X231160160Y-77274700D01*
X231160160Y-78476120D01*
X231160160Y-78476120D01*
G37*
G36*
X193113660Y-75280800D02*
X191259460Y-75280800D01*
X191259460Y-74079380D01*
X193113660Y-74079380D01*
X193113660Y-75280800D01*
X193113660Y-75280800D01*
G37*
G36*
X245049040Y-75280800D02*
X243194840Y-75280800D01*
X243194840Y-74079380D01*
X245049040Y-74079380D01*
X245049040Y-75280800D01*
X245049040Y-75280800D01*
G37*
G36*
X231160160Y-75280800D02*
X229305960Y-75280800D01*
X229305960Y-74079380D01*
X231160160Y-74079380D01*
X231160160Y-75280800D01*
X231160160Y-75280800D01*
G37*
G36*
X250200160Y-75280800D02*
X248345960Y-75280800D01*
X248345960Y-74079380D01*
X250200160Y-74079380D01*
X250200160Y-75280800D01*
X250200160Y-75280800D01*
G37*
G36*
X206949040Y-75280800D02*
X205094840Y-75280800D01*
X205094840Y-74079380D01*
X206949040Y-74079380D01*
X206949040Y-75280800D01*
X206949040Y-75280800D01*
G37*
G36*
X212100160Y-75280800D02*
X210245960Y-75280800D01*
X210245960Y-74079380D01*
X212100160Y-74079380D01*
X212100160Y-75280800D01*
X212100160Y-75280800D01*
G37*
G36*
X87886540Y-75280800D02*
X86032340Y-75280800D01*
X86032340Y-74079380D01*
X87886540Y-74079380D01*
X87886540Y-75280800D01*
X87886540Y-75280800D01*
G37*
G36*
X93037660Y-75280800D02*
X91183460Y-75280800D01*
X91183460Y-74079380D01*
X93037660Y-74079380D01*
X93037660Y-75280800D01*
X93037660Y-75280800D01*
G37*
G36*
X68836540Y-75280800D02*
X66982340Y-75280800D01*
X66982340Y-74079380D01*
X68836540Y-74079380D01*
X68836540Y-75280800D01*
X68836540Y-75280800D01*
G37*
G36*
X73987660Y-75280800D02*
X72133460Y-75280800D01*
X72133460Y-74079380D01*
X73987660Y-74079380D01*
X73987660Y-75280800D01*
X73987660Y-75280800D01*
G37*
G36*
X54937660Y-75280800D02*
X53083460Y-75280800D01*
X53083460Y-74079380D01*
X54937660Y-74079380D01*
X54937660Y-75280800D01*
X54937660Y-75280800D01*
G37*
G36*
X226009040Y-75280800D02*
X224154840Y-75280800D01*
X224154840Y-74079380D01*
X226009040Y-74079380D01*
X226009040Y-75280800D01*
X226009040Y-75280800D01*
G37*
G36*
X49786540Y-75280800D02*
X47932340Y-75280800D01*
X47932340Y-74079380D01*
X49786540Y-74079380D01*
X49786540Y-75280800D01*
X49786540Y-75280800D01*
G37*
G36*
X187962540Y-75280800D02*
X186108340Y-75280800D01*
X186108340Y-74079380D01*
X187962540Y-74079380D01*
X187962540Y-75280800D01*
X187962540Y-75280800D01*
G37*
G36*
X90116599Y-67710474D02*
X90479466Y-67860778D01*
X90806037Y-68078986D01*
X91083764Y-68356713D01*
X91301972Y-68683284D01*
X91452276Y-69046151D01*
X91528900Y-69431368D01*
X91528900Y-69824132D01*
X91452276Y-70209349D01*
X91301972Y-70572216D01*
X91083764Y-70898787D01*
X90806037Y-71176514D01*
X90479466Y-71394722D01*
X90116599Y-71545026D01*
X89731382Y-71621650D01*
X89338618Y-71621650D01*
X88953401Y-71545026D01*
X88590534Y-71394722D01*
X88263963Y-71176514D01*
X87986236Y-70898787D01*
X87768028Y-70572216D01*
X87617724Y-70209349D01*
X87541100Y-69824132D01*
X87541100Y-69431368D01*
X87617724Y-69046151D01*
X87768028Y-68683284D01*
X87986236Y-68356713D01*
X88263963Y-68078986D01*
X88590534Y-67860778D01*
X88953401Y-67710474D01*
X89338618Y-67633850D01*
X89731382Y-67633850D01*
X90116599Y-67710474D01*
X90116599Y-67710474D01*
G37*
G36*
X228229099Y-67710474D02*
X228591966Y-67860778D01*
X228918537Y-68078986D01*
X229196264Y-68356713D01*
X229414472Y-68683284D01*
X229564776Y-69046151D01*
X229641400Y-69431368D01*
X229641400Y-69824132D01*
X229564776Y-70209349D01*
X229414472Y-70572216D01*
X229196264Y-70898787D01*
X228918537Y-71176514D01*
X228591966Y-71394722D01*
X228229099Y-71545026D01*
X227843882Y-71621650D01*
X227451118Y-71621650D01*
X227065901Y-71545026D01*
X226703034Y-71394722D01*
X226376463Y-71176514D01*
X226098736Y-70898787D01*
X225880528Y-70572216D01*
X225730224Y-70209349D01*
X225653600Y-69824132D01*
X225653600Y-69431368D01*
X225730224Y-69046151D01*
X225880528Y-68683284D01*
X226098736Y-68356713D01*
X226376463Y-68078986D01*
X226703034Y-67860778D01*
X227065901Y-67710474D01*
X227451118Y-67633850D01*
X227843882Y-67633850D01*
X228229099Y-67710474D01*
X228229099Y-67710474D01*
G37*
G36*
X190129099Y-67710474D02*
X190491966Y-67860778D01*
X190818537Y-68078986D01*
X191096264Y-68356713D01*
X191314472Y-68683284D01*
X191464776Y-69046151D01*
X191541400Y-69431368D01*
X191541400Y-69824132D01*
X191464776Y-70209349D01*
X191314472Y-70572216D01*
X191096264Y-70898787D01*
X190818537Y-71176514D01*
X190491966Y-71394722D01*
X190129099Y-71545026D01*
X189743882Y-71621650D01*
X189351118Y-71621650D01*
X188965901Y-71545026D01*
X188603034Y-71394722D01*
X188276463Y-71176514D01*
X187998736Y-70898787D01*
X187780528Y-70572216D01*
X187630224Y-70209349D01*
X187553600Y-69824132D01*
X187553600Y-69431368D01*
X187630224Y-69046151D01*
X187780528Y-68683284D01*
X187998736Y-68356713D01*
X188276463Y-68078986D01*
X188603034Y-67860778D01*
X188965901Y-67710474D01*
X189351118Y-67633850D01*
X189743882Y-67633850D01*
X190129099Y-67710474D01*
X190129099Y-67710474D01*
G37*
G36*
X209179099Y-67678724D02*
X209541966Y-67829028D01*
X209868537Y-68047236D01*
X210146264Y-68324963D01*
X210364472Y-68651534D01*
X210514776Y-69014401D01*
X210591400Y-69399618D01*
X210591400Y-69792382D01*
X210514776Y-70177599D01*
X210364472Y-70540466D01*
X210146264Y-70867037D01*
X209868537Y-71144764D01*
X209541966Y-71362972D01*
X209179099Y-71513276D01*
X208793882Y-71589900D01*
X208401118Y-71589900D01*
X208015901Y-71513276D01*
X207653034Y-71362972D01*
X207326463Y-71144764D01*
X207048736Y-70867037D01*
X206830528Y-70540466D01*
X206680224Y-70177599D01*
X206603600Y-69792382D01*
X206603600Y-69399618D01*
X206680224Y-69014401D01*
X206830528Y-68651534D01*
X207048736Y-68324963D01*
X207326463Y-68047236D01*
X207653034Y-67829028D01*
X208015901Y-67678724D01*
X208401118Y-67602100D01*
X208793882Y-67602100D01*
X209179099Y-67678724D01*
X209179099Y-67678724D01*
G37*
G36*
X71066599Y-67678724D02*
X71429466Y-67829028D01*
X71756037Y-68047236D01*
X72033764Y-68324963D01*
X72251972Y-68651534D01*
X72402276Y-69014401D01*
X72478900Y-69399618D01*
X72478900Y-69792382D01*
X72402276Y-70177599D01*
X72251972Y-70540466D01*
X72033764Y-70867037D01*
X71756037Y-71144764D01*
X71429466Y-71362972D01*
X71066599Y-71513276D01*
X70681382Y-71589900D01*
X70288618Y-71589900D01*
X69903401Y-71513276D01*
X69540534Y-71362972D01*
X69213963Y-71144764D01*
X68936236Y-70867037D01*
X68718028Y-70540466D01*
X68567724Y-70177599D01*
X68491100Y-69792382D01*
X68491100Y-69399618D01*
X68567724Y-69014401D01*
X68718028Y-68651534D01*
X68936236Y-68324963D01*
X69213963Y-68047236D01*
X69540534Y-67829028D01*
X69903401Y-67678724D01*
X70288618Y-67602100D01*
X70681382Y-67602100D01*
X71066599Y-67678724D01*
X71066599Y-67678724D01*
G37*
G36*
X247279099Y-67678724D02*
X247641966Y-67829028D01*
X247968537Y-68047236D01*
X248246264Y-68324963D01*
X248464472Y-68651534D01*
X248614776Y-69014401D01*
X248691400Y-69399618D01*
X248691400Y-69792382D01*
X248614776Y-70177599D01*
X248464472Y-70540466D01*
X248246264Y-70867037D01*
X247968537Y-71144764D01*
X247641966Y-71362972D01*
X247279099Y-71513276D01*
X246893882Y-71589900D01*
X246501118Y-71589900D01*
X246115901Y-71513276D01*
X245753034Y-71362972D01*
X245426463Y-71144764D01*
X245148736Y-70867037D01*
X244930528Y-70540466D01*
X244780224Y-70177599D01*
X244703600Y-69792382D01*
X244703600Y-69399618D01*
X244780224Y-69014401D01*
X244930528Y-68651534D01*
X245148736Y-68324963D01*
X245426463Y-68047236D01*
X245753034Y-67829028D01*
X246115901Y-67678724D01*
X246501118Y-67602100D01*
X246893882Y-67602100D01*
X247279099Y-67678724D01*
X247279099Y-67678724D01*
G37*
G36*
X52016599Y-67678724D02*
X52379466Y-67829028D01*
X52706037Y-68047236D01*
X52983764Y-68324963D01*
X53201972Y-68651534D01*
X53352276Y-69014401D01*
X53428900Y-69399618D01*
X53428900Y-69792382D01*
X53352276Y-70177599D01*
X53201972Y-70540466D01*
X52983764Y-70867037D01*
X52706037Y-71144764D01*
X52379466Y-71362972D01*
X52016599Y-71513276D01*
X51631382Y-71589900D01*
X51238618Y-71589900D01*
X50853401Y-71513276D01*
X50490534Y-71362972D01*
X50163963Y-71144764D01*
X49886236Y-70867037D01*
X49668028Y-70540466D01*
X49517724Y-70177599D01*
X49441100Y-69792382D01*
X49441100Y-69399618D01*
X49517724Y-69014401D01*
X49668028Y-68651534D01*
X49886236Y-68324963D01*
X50163963Y-68047236D01*
X50490534Y-67829028D01*
X50853401Y-67678724D01*
X51238618Y-67602100D01*
X51631382Y-67602100D01*
X52016599Y-67678724D01*
X52016599Y-67678724D01*
G37*
G36*
X232982728Y-68786375D02*
X233141967Y-68852334D01*
X233285283Y-68948095D01*
X233407155Y-69069967D01*
X233502916Y-69213283D01*
X233568875Y-69372522D01*
X233602500Y-69541569D01*
X233602500Y-69713931D01*
X233568875Y-69882978D01*
X233502916Y-70042217D01*
X233407155Y-70185533D01*
X233285283Y-70307405D01*
X233141967Y-70403166D01*
X232982728Y-70469125D01*
X232813681Y-70502750D01*
X232641319Y-70502750D01*
X232472272Y-70469125D01*
X232313033Y-70403166D01*
X232169717Y-70307405D01*
X232047845Y-70185533D01*
X231952084Y-70042217D01*
X231886125Y-69882978D01*
X231852500Y-69713931D01*
X231852500Y-69541569D01*
X231886125Y-69372522D01*
X231952084Y-69213283D01*
X232047845Y-69069967D01*
X232169717Y-68948095D01*
X232313033Y-68852334D01*
X232472272Y-68786375D01*
X232641319Y-68752750D01*
X232813681Y-68752750D01*
X232982728Y-68786375D01*
X232982728Y-68786375D01*
G37*
G36*
X222822728Y-68786375D02*
X222981967Y-68852334D01*
X223125283Y-68948095D01*
X223247155Y-69069967D01*
X223342916Y-69213283D01*
X223408875Y-69372522D01*
X223442500Y-69541569D01*
X223442500Y-69713931D01*
X223408875Y-69882978D01*
X223342916Y-70042217D01*
X223247155Y-70185533D01*
X223125283Y-70307405D01*
X222981967Y-70403166D01*
X222822728Y-70469125D01*
X222653681Y-70502750D01*
X222481319Y-70502750D01*
X222312272Y-70469125D01*
X222153033Y-70403166D01*
X222009717Y-70307405D01*
X221887845Y-70185533D01*
X221792084Y-70042217D01*
X221726125Y-69882978D01*
X221692500Y-69713931D01*
X221692500Y-69541569D01*
X221726125Y-69372522D01*
X221792084Y-69213283D01*
X221887845Y-69069967D01*
X222009717Y-68948095D01*
X222153033Y-68852334D01*
X222312272Y-68786375D01*
X222481319Y-68752750D01*
X222653681Y-68752750D01*
X222822728Y-68786375D01*
X222822728Y-68786375D01*
G37*
G36*
X194882728Y-68786375D02*
X195041967Y-68852334D01*
X195185283Y-68948095D01*
X195307155Y-69069967D01*
X195402916Y-69213283D01*
X195468875Y-69372522D01*
X195502500Y-69541569D01*
X195502500Y-69713931D01*
X195468875Y-69882978D01*
X195402916Y-70042217D01*
X195307155Y-70185533D01*
X195185283Y-70307405D01*
X195041967Y-70403166D01*
X194882728Y-70469125D01*
X194713681Y-70502750D01*
X194541319Y-70502750D01*
X194372272Y-70469125D01*
X194213033Y-70403166D01*
X194069717Y-70307405D01*
X193947845Y-70185533D01*
X193852084Y-70042217D01*
X193786125Y-69882978D01*
X193752500Y-69713931D01*
X193752500Y-69541569D01*
X193786125Y-69372522D01*
X193852084Y-69213283D01*
X193947845Y-69069967D01*
X194069717Y-68948095D01*
X194213033Y-68852334D01*
X194372272Y-68786375D01*
X194541319Y-68752750D01*
X194713681Y-68752750D01*
X194882728Y-68786375D01*
X194882728Y-68786375D01*
G37*
G36*
X184722728Y-68786375D02*
X184881967Y-68852334D01*
X185025283Y-68948095D01*
X185147155Y-69069967D01*
X185242916Y-69213283D01*
X185308875Y-69372522D01*
X185342500Y-69541569D01*
X185342500Y-69713931D01*
X185308875Y-69882978D01*
X185242916Y-70042217D01*
X185147155Y-70185533D01*
X185025283Y-70307405D01*
X184881967Y-70403166D01*
X184722728Y-70469125D01*
X184553681Y-70502750D01*
X184381319Y-70502750D01*
X184212272Y-70469125D01*
X184053033Y-70403166D01*
X183909717Y-70307405D01*
X183787845Y-70185533D01*
X183692084Y-70042217D01*
X183626125Y-69882978D01*
X183592500Y-69713931D01*
X183592500Y-69541569D01*
X183626125Y-69372522D01*
X183692084Y-69213283D01*
X183787845Y-69069967D01*
X183909717Y-68948095D01*
X184053033Y-68852334D01*
X184212272Y-68786375D01*
X184381319Y-68752750D01*
X184553681Y-68752750D01*
X184722728Y-68786375D01*
X184722728Y-68786375D01*
G37*
G36*
X94870228Y-68786375D02*
X95029467Y-68852334D01*
X95172783Y-68948095D01*
X95294655Y-69069967D01*
X95390416Y-69213283D01*
X95456375Y-69372522D01*
X95490000Y-69541569D01*
X95490000Y-69713931D01*
X95456375Y-69882978D01*
X95390416Y-70042217D01*
X95294655Y-70185533D01*
X95172783Y-70307405D01*
X95029467Y-70403166D01*
X94870228Y-70469125D01*
X94701181Y-70502750D01*
X94528819Y-70502750D01*
X94359772Y-70469125D01*
X94200533Y-70403166D01*
X94057217Y-70307405D01*
X93935345Y-70185533D01*
X93839584Y-70042217D01*
X93773625Y-69882978D01*
X93740000Y-69713931D01*
X93740000Y-69541569D01*
X93773625Y-69372522D01*
X93839584Y-69213283D01*
X93935345Y-69069967D01*
X94057217Y-68948095D01*
X94200533Y-68852334D01*
X94359772Y-68786375D01*
X94528819Y-68752750D01*
X94701181Y-68752750D01*
X94870228Y-68786375D01*
X94870228Y-68786375D01*
G37*
G36*
X84710228Y-68786375D02*
X84869467Y-68852334D01*
X85012783Y-68948095D01*
X85134655Y-69069967D01*
X85230416Y-69213283D01*
X85296375Y-69372522D01*
X85330000Y-69541569D01*
X85330000Y-69713931D01*
X85296375Y-69882978D01*
X85230416Y-70042217D01*
X85134655Y-70185533D01*
X85012783Y-70307405D01*
X84869467Y-70403166D01*
X84710228Y-70469125D01*
X84541181Y-70502750D01*
X84368819Y-70502750D01*
X84199772Y-70469125D01*
X84040533Y-70403166D01*
X83897217Y-70307405D01*
X83775345Y-70185533D01*
X83679584Y-70042217D01*
X83613625Y-69882978D01*
X83580000Y-69713931D01*
X83580000Y-69541569D01*
X83613625Y-69372522D01*
X83679584Y-69213283D01*
X83775345Y-69069967D01*
X83897217Y-68948095D01*
X84040533Y-68852334D01*
X84199772Y-68786375D01*
X84368819Y-68752750D01*
X84541181Y-68752750D01*
X84710228Y-68786375D01*
X84710228Y-68786375D01*
G37*
G36*
X252032728Y-68754625D02*
X252191967Y-68820584D01*
X252335283Y-68916345D01*
X252457155Y-69038217D01*
X252552916Y-69181533D01*
X252618875Y-69340772D01*
X252652500Y-69509819D01*
X252652500Y-69682181D01*
X252618875Y-69851228D01*
X252552916Y-70010467D01*
X252457155Y-70153783D01*
X252335283Y-70275655D01*
X252191967Y-70371416D01*
X252032728Y-70437375D01*
X251863681Y-70471000D01*
X251691319Y-70471000D01*
X251522272Y-70437375D01*
X251363033Y-70371416D01*
X251219717Y-70275655D01*
X251097845Y-70153783D01*
X251002084Y-70010467D01*
X250936125Y-69851228D01*
X250902500Y-69682181D01*
X250902500Y-69509819D01*
X250936125Y-69340772D01*
X251002084Y-69181533D01*
X251097845Y-69038217D01*
X251219717Y-68916345D01*
X251363033Y-68820584D01*
X251522272Y-68754625D01*
X251691319Y-68721000D01*
X251863681Y-68721000D01*
X252032728Y-68754625D01*
X252032728Y-68754625D01*
G37*
G36*
X241872728Y-68754625D02*
X242031967Y-68820584D01*
X242175283Y-68916345D01*
X242297155Y-69038217D01*
X242392916Y-69181533D01*
X242458875Y-69340772D01*
X242492500Y-69509819D01*
X242492500Y-69682181D01*
X242458875Y-69851228D01*
X242392916Y-70010467D01*
X242297155Y-70153783D01*
X242175283Y-70275655D01*
X242031967Y-70371416D01*
X241872728Y-70437375D01*
X241703681Y-70471000D01*
X241531319Y-70471000D01*
X241362272Y-70437375D01*
X241203033Y-70371416D01*
X241059717Y-70275655D01*
X240937845Y-70153783D01*
X240842084Y-70010467D01*
X240776125Y-69851228D01*
X240742500Y-69682181D01*
X240742500Y-69509819D01*
X240776125Y-69340772D01*
X240842084Y-69181533D01*
X240937845Y-69038217D01*
X241059717Y-68916345D01*
X241203033Y-68820584D01*
X241362272Y-68754625D01*
X241531319Y-68721000D01*
X241703681Y-68721000D01*
X241872728Y-68754625D01*
X241872728Y-68754625D01*
G37*
G36*
X203772728Y-68754625D02*
X203931967Y-68820584D01*
X204075283Y-68916345D01*
X204197155Y-69038217D01*
X204292916Y-69181533D01*
X204358875Y-69340772D01*
X204392500Y-69509819D01*
X204392500Y-69682181D01*
X204358875Y-69851228D01*
X204292916Y-70010467D01*
X204197155Y-70153783D01*
X204075283Y-70275655D01*
X203931967Y-70371416D01*
X203772728Y-70437375D01*
X203603681Y-70471000D01*
X203431319Y-70471000D01*
X203262272Y-70437375D01*
X203103033Y-70371416D01*
X202959717Y-70275655D01*
X202837845Y-70153783D01*
X202742084Y-70010467D01*
X202676125Y-69851228D01*
X202642500Y-69682181D01*
X202642500Y-69509819D01*
X202676125Y-69340772D01*
X202742084Y-69181533D01*
X202837845Y-69038217D01*
X202959717Y-68916345D01*
X203103033Y-68820584D01*
X203262272Y-68754625D01*
X203431319Y-68721000D01*
X203603681Y-68721000D01*
X203772728Y-68754625D01*
X203772728Y-68754625D01*
G37*
G36*
X213932728Y-68754625D02*
X214091967Y-68820584D01*
X214235283Y-68916345D01*
X214357155Y-69038217D01*
X214452916Y-69181533D01*
X214518875Y-69340772D01*
X214552500Y-69509819D01*
X214552500Y-69682181D01*
X214518875Y-69851228D01*
X214452916Y-70010467D01*
X214357155Y-70153783D01*
X214235283Y-70275655D01*
X214091967Y-70371416D01*
X213932728Y-70437375D01*
X213763681Y-70471000D01*
X213591319Y-70471000D01*
X213422272Y-70437375D01*
X213263033Y-70371416D01*
X213119717Y-70275655D01*
X212997845Y-70153783D01*
X212902084Y-70010467D01*
X212836125Y-69851228D01*
X212802500Y-69682181D01*
X212802500Y-69509819D01*
X212836125Y-69340772D01*
X212902084Y-69181533D01*
X212997845Y-69038217D01*
X213119717Y-68916345D01*
X213263033Y-68820584D01*
X213422272Y-68754625D01*
X213591319Y-68721000D01*
X213763681Y-68721000D01*
X213932728Y-68754625D01*
X213932728Y-68754625D01*
G37*
G36*
X75820228Y-68754625D02*
X75979467Y-68820584D01*
X76122783Y-68916345D01*
X76244655Y-69038217D01*
X76340416Y-69181533D01*
X76406375Y-69340772D01*
X76440000Y-69509819D01*
X76440000Y-69682181D01*
X76406375Y-69851228D01*
X76340416Y-70010467D01*
X76244655Y-70153783D01*
X76122783Y-70275655D01*
X75979467Y-70371416D01*
X75820228Y-70437375D01*
X75651181Y-70471000D01*
X75478819Y-70471000D01*
X75309772Y-70437375D01*
X75150533Y-70371416D01*
X75007217Y-70275655D01*
X74885345Y-70153783D01*
X74789584Y-70010467D01*
X74723625Y-69851228D01*
X74690000Y-69682181D01*
X74690000Y-69509819D01*
X74723625Y-69340772D01*
X74789584Y-69181533D01*
X74885345Y-69038217D01*
X75007217Y-68916345D01*
X75150533Y-68820584D01*
X75309772Y-68754625D01*
X75478819Y-68721000D01*
X75651181Y-68721000D01*
X75820228Y-68754625D01*
X75820228Y-68754625D01*
G37*
G36*
X65660228Y-68754625D02*
X65819467Y-68820584D01*
X65962783Y-68916345D01*
X66084655Y-69038217D01*
X66180416Y-69181533D01*
X66246375Y-69340772D01*
X66280000Y-69509819D01*
X66280000Y-69682181D01*
X66246375Y-69851228D01*
X66180416Y-70010467D01*
X66084655Y-70153783D01*
X65962783Y-70275655D01*
X65819467Y-70371416D01*
X65660228Y-70437375D01*
X65491181Y-70471000D01*
X65318819Y-70471000D01*
X65149772Y-70437375D01*
X64990533Y-70371416D01*
X64847217Y-70275655D01*
X64725345Y-70153783D01*
X64629584Y-70010467D01*
X64563625Y-69851228D01*
X64530000Y-69682181D01*
X64530000Y-69509819D01*
X64563625Y-69340772D01*
X64629584Y-69181533D01*
X64725345Y-69038217D01*
X64847217Y-68916345D01*
X64990533Y-68820584D01*
X65149772Y-68754625D01*
X65318819Y-68721000D01*
X65491181Y-68721000D01*
X65660228Y-68754625D01*
X65660228Y-68754625D01*
G37*
G36*
X56770228Y-68754625D02*
X56929467Y-68820584D01*
X57072783Y-68916345D01*
X57194655Y-69038217D01*
X57290416Y-69181533D01*
X57356375Y-69340772D01*
X57390000Y-69509819D01*
X57390000Y-69682181D01*
X57356375Y-69851228D01*
X57290416Y-70010467D01*
X57194655Y-70153783D01*
X57072783Y-70275655D01*
X56929467Y-70371416D01*
X56770228Y-70437375D01*
X56601181Y-70471000D01*
X56428819Y-70471000D01*
X56259772Y-70437375D01*
X56100533Y-70371416D01*
X55957217Y-70275655D01*
X55835345Y-70153783D01*
X55739584Y-70010467D01*
X55673625Y-69851228D01*
X55640000Y-69682181D01*
X55640000Y-69509819D01*
X55673625Y-69340772D01*
X55739584Y-69181533D01*
X55835345Y-69038217D01*
X55957217Y-68916345D01*
X56100533Y-68820584D01*
X56259772Y-68754625D01*
X56428819Y-68721000D01*
X56601181Y-68721000D01*
X56770228Y-68754625D01*
X56770228Y-68754625D01*
G37*
G36*
X46610228Y-68754625D02*
X46769467Y-68820584D01*
X46912783Y-68916345D01*
X47034655Y-69038217D01*
X47130416Y-69181533D01*
X47196375Y-69340772D01*
X47230000Y-69509819D01*
X47230000Y-69682181D01*
X47196375Y-69851228D01*
X47130416Y-70010467D01*
X47034655Y-70153783D01*
X46912783Y-70275655D01*
X46769467Y-70371416D01*
X46610228Y-70437375D01*
X46441181Y-70471000D01*
X46268819Y-70471000D01*
X46099772Y-70437375D01*
X45940533Y-70371416D01*
X45797217Y-70275655D01*
X45675345Y-70153783D01*
X45579584Y-70010467D01*
X45513625Y-69851228D01*
X45480000Y-69682181D01*
X45480000Y-69509819D01*
X45513625Y-69340772D01*
X45579584Y-69181533D01*
X45675345Y-69038217D01*
X45797217Y-68916345D01*
X45940533Y-68820584D01*
X46099772Y-68754625D01*
X46268819Y-68721000D01*
X46441181Y-68721000D01*
X46610228Y-68754625D01*
X46610228Y-68754625D01*
G37*
G36*
X152020695Y-62900312D02*
X152228382Y-62941623D01*
X152390453Y-63008755D01*
X152619656Y-63103694D01*
X152971798Y-63338988D01*
X153271262Y-63638452D01*
X153506556Y-63990594D01*
X153668627Y-64381869D01*
X153751250Y-64797242D01*
X153751250Y-65220758D01*
X153668627Y-65636131D01*
X153506556Y-66027406D01*
X153271262Y-66379548D01*
X152971798Y-66679012D01*
X152619656Y-66914306D01*
X152390453Y-67009245D01*
X152228382Y-67076377D01*
X152020695Y-67117688D01*
X151813008Y-67159000D01*
X151389492Y-67159000D01*
X151181805Y-67117688D01*
X150974118Y-67076377D01*
X150812047Y-67009245D01*
X150582844Y-66914306D01*
X150230702Y-66679012D01*
X149931238Y-66379548D01*
X149695944Y-66027406D01*
X149533873Y-65636131D01*
X149451250Y-65220758D01*
X149451250Y-64797242D01*
X149533873Y-64381869D01*
X149695944Y-63990594D01*
X149931238Y-63638452D01*
X150230702Y-63338988D01*
X150582844Y-63103694D01*
X150812047Y-63008755D01*
X150974118Y-62941623D01*
X151181805Y-62900312D01*
X151389492Y-62859000D01*
X151813008Y-62859000D01*
X152020695Y-62900312D01*
X152020695Y-62900312D01*
G37*
G36*
X178323107Y-51798875D02*
X178482583Y-51864932D01*
X178626112Y-51960835D01*
X178748165Y-52082888D01*
X178844068Y-52226417D01*
X178910125Y-52385893D01*
X178943800Y-52555191D01*
X178943800Y-52727809D01*
X178910125Y-52897107D01*
X178844068Y-53056583D01*
X178748165Y-53200112D01*
X178626112Y-53322165D01*
X178482583Y-53418068D01*
X178323107Y-53484125D01*
X178153809Y-53517800D01*
X177981191Y-53517800D01*
X177811893Y-53484125D01*
X177652417Y-53418068D01*
X177508888Y-53322165D01*
X177386835Y-53200112D01*
X177290932Y-53056583D01*
X177224875Y-52897107D01*
X177191200Y-52727809D01*
X177191200Y-52555191D01*
X177224875Y-52385893D01*
X177290932Y-52226417D01*
X177386835Y-52082888D01*
X177508888Y-51960835D01*
X177652417Y-51864932D01*
X177811893Y-51798875D01*
X177981191Y-51765200D01*
X178153809Y-51765200D01*
X178323107Y-51798875D01*
X178323107Y-51798875D01*
G37*
G36*
X163083107Y-51798875D02*
X163242583Y-51864932D01*
X163386112Y-51960835D01*
X163508165Y-52082888D01*
X163604068Y-52226417D01*
X163670125Y-52385893D01*
X163703800Y-52555191D01*
X163703800Y-52727809D01*
X163670125Y-52897107D01*
X163604068Y-53056583D01*
X163508165Y-53200112D01*
X163386112Y-53322165D01*
X163242583Y-53418068D01*
X163083107Y-53484125D01*
X162913809Y-53517800D01*
X162741191Y-53517800D01*
X162571893Y-53484125D01*
X162412417Y-53418068D01*
X162268888Y-53322165D01*
X162146835Y-53200112D01*
X162050932Y-53056583D01*
X161984875Y-52897107D01*
X161951200Y-52727809D01*
X161951200Y-52555191D01*
X161984875Y-52385893D01*
X162050932Y-52226417D01*
X162146835Y-52082888D01*
X162268888Y-51960835D01*
X162412417Y-51864932D01*
X162571893Y-51798875D01*
X162741191Y-51765200D01*
X162913809Y-51765200D01*
X163083107Y-51798875D01*
X163083107Y-51798875D01*
G37*
G36*
X178323107Y-49258875D02*
X178482583Y-49324932D01*
X178626112Y-49420835D01*
X178748165Y-49542888D01*
X178844068Y-49686417D01*
X178910125Y-49845893D01*
X178943800Y-50015191D01*
X178943800Y-50187809D01*
X178910125Y-50357107D01*
X178844068Y-50516583D01*
X178748165Y-50660112D01*
X178626112Y-50782165D01*
X178482583Y-50878068D01*
X178323107Y-50944125D01*
X178153809Y-50977800D01*
X177981191Y-50977800D01*
X177811893Y-50944125D01*
X177652417Y-50878068D01*
X177508888Y-50782165D01*
X177386835Y-50660112D01*
X177290932Y-50516583D01*
X177224875Y-50357107D01*
X177191200Y-50187809D01*
X177191200Y-50015191D01*
X177224875Y-49845893D01*
X177290932Y-49686417D01*
X177386835Y-49542888D01*
X177508888Y-49420835D01*
X177652417Y-49324932D01*
X177811893Y-49258875D01*
X177981191Y-49225200D01*
X178153809Y-49225200D01*
X178323107Y-49258875D01*
X178323107Y-49258875D01*
G37*
G36*
X163083107Y-49258875D02*
X163242583Y-49324932D01*
X163386112Y-49420835D01*
X163508165Y-49542888D01*
X163604068Y-49686417D01*
X163670125Y-49845893D01*
X163703800Y-50015191D01*
X163703800Y-50187809D01*
X163670125Y-50357107D01*
X163604068Y-50516583D01*
X163508165Y-50660112D01*
X163386112Y-50782165D01*
X163242583Y-50878068D01*
X163083107Y-50944125D01*
X162913809Y-50977800D01*
X162741191Y-50977800D01*
X162571893Y-50944125D01*
X162412417Y-50878068D01*
X162268888Y-50782165D01*
X162146835Y-50660112D01*
X162050932Y-50516583D01*
X161984875Y-50357107D01*
X161951200Y-50187809D01*
X161951200Y-50015191D01*
X161984875Y-49845893D01*
X162050932Y-49686417D01*
X162146835Y-49542888D01*
X162268888Y-49420835D01*
X162412417Y-49324932D01*
X162571893Y-49258875D01*
X162741191Y-49225200D01*
X162913809Y-49225200D01*
X163083107Y-49258875D01*
X163083107Y-49258875D01*
G37*
G36*
X178323107Y-46718875D02*
X178482583Y-46784932D01*
X178626112Y-46880835D01*
X178748165Y-47002888D01*
X178844068Y-47146417D01*
X178910125Y-47305893D01*
X178943800Y-47475191D01*
X178943800Y-47647809D01*
X178910125Y-47817107D01*
X178844068Y-47976583D01*
X178748165Y-48120112D01*
X178626112Y-48242165D01*
X178482583Y-48338068D01*
X178323107Y-48404125D01*
X178153809Y-48437800D01*
X177981191Y-48437800D01*
X177811893Y-48404125D01*
X177652417Y-48338068D01*
X177508888Y-48242165D01*
X177386835Y-48120112D01*
X177290932Y-47976583D01*
X177224875Y-47817107D01*
X177191200Y-47647809D01*
X177191200Y-47475191D01*
X177224875Y-47305893D01*
X177290932Y-47146417D01*
X177386835Y-47002888D01*
X177508888Y-46880835D01*
X177652417Y-46784932D01*
X177811893Y-46718875D01*
X177981191Y-46685200D01*
X178153809Y-46685200D01*
X178323107Y-46718875D01*
X178323107Y-46718875D01*
G37*
G36*
X163083107Y-46718875D02*
X163242583Y-46784932D01*
X163386112Y-46880835D01*
X163508165Y-47002888D01*
X163604068Y-47146417D01*
X163670125Y-47305893D01*
X163703800Y-47475191D01*
X163703800Y-47647809D01*
X163670125Y-47817107D01*
X163604068Y-47976583D01*
X163508165Y-48120112D01*
X163386112Y-48242165D01*
X163242583Y-48338068D01*
X163083107Y-48404125D01*
X162913809Y-48437800D01*
X162741191Y-48437800D01*
X162571893Y-48404125D01*
X162412417Y-48338068D01*
X162268888Y-48242165D01*
X162146835Y-48120112D01*
X162050932Y-47976583D01*
X161984875Y-47817107D01*
X161951200Y-47647809D01*
X161951200Y-47475191D01*
X161984875Y-47305893D01*
X162050932Y-47146417D01*
X162146835Y-47002888D01*
X162268888Y-46880835D01*
X162412417Y-46784932D01*
X162571893Y-46718875D01*
X162741191Y-46685200D01*
X162913809Y-46685200D01*
X163083107Y-46718875D01*
X163083107Y-46718875D01*
G37*
G36*
X185494272Y-46413039D02*
X185527803Y-46423211D01*
X185558710Y-46439731D01*
X185585793Y-46461957D01*
X185608019Y-46489040D01*
X185624539Y-46519947D01*
X185634711Y-46553478D01*
X185638750Y-46594487D01*
X185638750Y-47373513D01*
X185634711Y-47414522D01*
X185624539Y-47448053D01*
X185608019Y-47478960D01*
X185585793Y-47506043D01*
X185558710Y-47528269D01*
X185527803Y-47544789D01*
X185494272Y-47554961D01*
X185453263Y-47559000D01*
X184424237Y-47559000D01*
X184383228Y-47554961D01*
X184349697Y-47544789D01*
X184318790Y-47528269D01*
X184291707Y-47506043D01*
X184269481Y-47478960D01*
X184252961Y-47448053D01*
X184242789Y-47414522D01*
X184238750Y-47373513D01*
X184238750Y-46594487D01*
X184242789Y-46553478D01*
X184252961Y-46519947D01*
X184269481Y-46489040D01*
X184291707Y-46461957D01*
X184318790Y-46439731D01*
X184349697Y-46423211D01*
X184383228Y-46413039D01*
X184424237Y-46409000D01*
X185453263Y-46409000D01*
X185494272Y-46413039D01*
X185494272Y-46413039D01*
G37*
G36*
X163083107Y-44178875D02*
X163242583Y-44244932D01*
X163386112Y-44340835D01*
X163508165Y-44462888D01*
X163604068Y-44606417D01*
X163670125Y-44765893D01*
X163703800Y-44935191D01*
X163703800Y-45107809D01*
X163670125Y-45277107D01*
X163604068Y-45436583D01*
X163508165Y-45580112D01*
X163386112Y-45702165D01*
X163242583Y-45798068D01*
X163083107Y-45864125D01*
X162913809Y-45897800D01*
X162741191Y-45897800D01*
X162571893Y-45864125D01*
X162412417Y-45798068D01*
X162268888Y-45702165D01*
X162146835Y-45580112D01*
X162050932Y-45436583D01*
X161984875Y-45277107D01*
X161951200Y-45107809D01*
X161951200Y-44935191D01*
X161984875Y-44765893D01*
X162050932Y-44606417D01*
X162146835Y-44462888D01*
X162268888Y-44340835D01*
X162412417Y-44244932D01*
X162571893Y-44178875D01*
X162741191Y-44145200D01*
X162913809Y-44145200D01*
X163083107Y-44178875D01*
X163083107Y-44178875D01*
G37*
G36*
X178323107Y-44178875D02*
X178482583Y-44244932D01*
X178626112Y-44340835D01*
X178748165Y-44462888D01*
X178844068Y-44606417D01*
X178910125Y-44765893D01*
X178943800Y-44935191D01*
X178943800Y-45107809D01*
X178910125Y-45277107D01*
X178844068Y-45436583D01*
X178748165Y-45580112D01*
X178626112Y-45702165D01*
X178482583Y-45798068D01*
X178323107Y-45864125D01*
X178153809Y-45897800D01*
X177981191Y-45897800D01*
X177811893Y-45864125D01*
X177652417Y-45798068D01*
X177508888Y-45702165D01*
X177386835Y-45580112D01*
X177290932Y-45436583D01*
X177224875Y-45277107D01*
X177191200Y-45107809D01*
X177191200Y-44935191D01*
X177224875Y-44765893D01*
X177290932Y-44606417D01*
X177386835Y-44462888D01*
X177508888Y-44340835D01*
X177652417Y-44244932D01*
X177811893Y-44178875D01*
X177981191Y-44145200D01*
X178153809Y-44145200D01*
X178323107Y-44178875D01*
X178323107Y-44178875D01*
G37*
G36*
X185494272Y-44363039D02*
X185527803Y-44373211D01*
X185558710Y-44389731D01*
X185585793Y-44411957D01*
X185608019Y-44439040D01*
X185624539Y-44469947D01*
X185634711Y-44503478D01*
X185638750Y-44544487D01*
X185638750Y-45323513D01*
X185634711Y-45364522D01*
X185624539Y-45398053D01*
X185608019Y-45428960D01*
X185585793Y-45456043D01*
X185558710Y-45478269D01*
X185527803Y-45494789D01*
X185494272Y-45504961D01*
X185453263Y-45509000D01*
X184424237Y-45509000D01*
X184383228Y-45504961D01*
X184349697Y-45494789D01*
X184318790Y-45478269D01*
X184291707Y-45456043D01*
X184269481Y-45428960D01*
X184252961Y-45398053D01*
X184242789Y-45364522D01*
X184238750Y-45323513D01*
X184238750Y-44544487D01*
X184242789Y-44503478D01*
X184252961Y-44469947D01*
X184269481Y-44439040D01*
X184291707Y-44411957D01*
X184318790Y-44389731D01*
X184349697Y-44373211D01*
X184383228Y-44363039D01*
X184424237Y-44359000D01*
X185453263Y-44359000D01*
X185494272Y-44363039D01*
X185494272Y-44363039D01*
G37*
G36*
X163083107Y-41638875D02*
X163242583Y-41704932D01*
X163386112Y-41800835D01*
X163508165Y-41922888D01*
X163604068Y-42066417D01*
X163670125Y-42225893D01*
X163703800Y-42395191D01*
X163703800Y-42567809D01*
X163670125Y-42737107D01*
X163604068Y-42896583D01*
X163508165Y-43040112D01*
X163386112Y-43162165D01*
X163242583Y-43258068D01*
X163083107Y-43324125D01*
X162913809Y-43357800D01*
X162741191Y-43357800D01*
X162571893Y-43324125D01*
X162412417Y-43258068D01*
X162268888Y-43162165D01*
X162146835Y-43040112D01*
X162050932Y-42896583D01*
X161984875Y-42737107D01*
X161951200Y-42567809D01*
X161951200Y-42395191D01*
X161984875Y-42225893D01*
X162050932Y-42066417D01*
X162146835Y-41922888D01*
X162268888Y-41800835D01*
X162412417Y-41704932D01*
X162571893Y-41638875D01*
X162741191Y-41605200D01*
X162913809Y-41605200D01*
X163083107Y-41638875D01*
X163083107Y-41638875D01*
G37*
G36*
X178323107Y-41638875D02*
X178482583Y-41704932D01*
X178626112Y-41800835D01*
X178748165Y-41922888D01*
X178844068Y-42066417D01*
X178910125Y-42225893D01*
X178943800Y-42395191D01*
X178943800Y-42567809D01*
X178910125Y-42737107D01*
X178844068Y-42896583D01*
X178748165Y-43040112D01*
X178626112Y-43162165D01*
X178482583Y-43258068D01*
X178323107Y-43324125D01*
X178153809Y-43357800D01*
X177981191Y-43357800D01*
X177811893Y-43324125D01*
X177652417Y-43258068D01*
X177508888Y-43162165D01*
X177386835Y-43040112D01*
X177290932Y-42896583D01*
X177224875Y-42737107D01*
X177191200Y-42567809D01*
X177191200Y-42395191D01*
X177224875Y-42225893D01*
X177290932Y-42066417D01*
X177386835Y-41922888D01*
X177508888Y-41800835D01*
X177652417Y-41704932D01*
X177811893Y-41638875D01*
X177981191Y-41605200D01*
X178153809Y-41605200D01*
X178323107Y-41638875D01*
X178323107Y-41638875D01*
G37*
G36*
X178323107Y-39098875D02*
X178482583Y-39164932D01*
X178626112Y-39260835D01*
X178748165Y-39382888D01*
X178844068Y-39526417D01*
X178910125Y-39685893D01*
X178943800Y-39855191D01*
X178943800Y-40027809D01*
X178910125Y-40197107D01*
X178844068Y-40356583D01*
X178748165Y-40500112D01*
X178626112Y-40622165D01*
X178482583Y-40718068D01*
X178323107Y-40784125D01*
X178153809Y-40817800D01*
X177981191Y-40817800D01*
X177811893Y-40784125D01*
X177652417Y-40718068D01*
X177508888Y-40622165D01*
X177386835Y-40500112D01*
X177290932Y-40356583D01*
X177224875Y-40197107D01*
X177191200Y-40027809D01*
X177191200Y-39855191D01*
X177224875Y-39685893D01*
X177290932Y-39526417D01*
X177386835Y-39382888D01*
X177508888Y-39260835D01*
X177652417Y-39164932D01*
X177811893Y-39098875D01*
X177981191Y-39065200D01*
X178153809Y-39065200D01*
X178323107Y-39098875D01*
X178323107Y-39098875D01*
G37*
G36*
X163083107Y-39098875D02*
X163242583Y-39164932D01*
X163386112Y-39260835D01*
X163508165Y-39382888D01*
X163604068Y-39526417D01*
X163670125Y-39685893D01*
X163703800Y-39855191D01*
X163703800Y-40027809D01*
X163670125Y-40197107D01*
X163604068Y-40356583D01*
X163508165Y-40500112D01*
X163386112Y-40622165D01*
X163242583Y-40718068D01*
X163083107Y-40784125D01*
X162913809Y-40817800D01*
X162741191Y-40817800D01*
X162571893Y-40784125D01*
X162412417Y-40718068D01*
X162268888Y-40622165D01*
X162146835Y-40500112D01*
X162050932Y-40356583D01*
X161984875Y-40197107D01*
X161951200Y-40027809D01*
X161951200Y-39855191D01*
X161984875Y-39685893D01*
X162050932Y-39526417D01*
X162146835Y-39382888D01*
X162268888Y-39260835D01*
X162412417Y-39164932D01*
X162571893Y-39098875D01*
X162741191Y-39065200D01*
X162913809Y-39065200D01*
X163083107Y-39098875D01*
X163083107Y-39098875D01*
G37*
G36*
X264035540Y-40226120D02*
X262181340Y-40226120D01*
X262181340Y-39024700D01*
X264035540Y-39024700D01*
X264035540Y-40226120D01*
X264035540Y-40226120D01*
G37*
G36*
X269186660Y-40226120D02*
X267332460Y-40226120D01*
X267332460Y-39024700D01*
X269186660Y-39024700D01*
X269186660Y-40226120D01*
X269186660Y-40226120D01*
G37*
G36*
X97800160Y-40226120D02*
X95945960Y-40226120D01*
X95945960Y-39024700D01*
X97800160Y-39024700D01*
X97800160Y-40226120D01*
X97800160Y-40226120D01*
G37*
G36*
X78750160Y-40226120D02*
X76895960Y-40226120D01*
X76895960Y-39024700D01*
X78750160Y-39024700D01*
X78750160Y-40226120D01*
X78750160Y-40226120D01*
G37*
G36*
X73599040Y-40226120D02*
X71744840Y-40226120D01*
X71744840Y-39024700D01*
X73599040Y-39024700D01*
X73599040Y-40226120D01*
X73599040Y-40226120D01*
G37*
G36*
X35509040Y-40226120D02*
X33654840Y-40226120D01*
X33654840Y-39024700D01*
X35509040Y-39024700D01*
X35509040Y-40226120D01*
X35509040Y-40226120D01*
G37*
G36*
X92649040Y-40226120D02*
X90794840Y-40226120D01*
X90794840Y-39024700D01*
X92649040Y-39024700D01*
X92649040Y-40226120D01*
X92649040Y-40226120D01*
G37*
G36*
X54509040Y-40226120D02*
X52654840Y-40226120D01*
X52654840Y-39024700D01*
X54509040Y-39024700D01*
X54509040Y-40226120D01*
X54509040Y-40226120D01*
G37*
G36*
X40660160Y-40226120D02*
X38805960Y-40226120D01*
X38805960Y-39024700D01*
X40660160Y-39024700D01*
X40660160Y-40226120D01*
X40660160Y-40226120D01*
G37*
G36*
X59660160Y-40226120D02*
X57805960Y-40226120D01*
X57805960Y-39024700D01*
X59660160Y-39024700D01*
X59660160Y-40226120D01*
X59660160Y-40226120D01*
G37*
G36*
X163083107Y-36558875D02*
X163242583Y-36624932D01*
X163386112Y-36720835D01*
X163508165Y-36842888D01*
X163604068Y-36986417D01*
X163670125Y-37145893D01*
X163703800Y-37315191D01*
X163703800Y-37487809D01*
X163670125Y-37657107D01*
X163604068Y-37816583D01*
X163508165Y-37960112D01*
X163386112Y-38082165D01*
X163242583Y-38178068D01*
X163083107Y-38244125D01*
X162913809Y-38277800D01*
X162741191Y-38277800D01*
X162571893Y-38244125D01*
X162412417Y-38178068D01*
X162268888Y-38082165D01*
X162146835Y-37960112D01*
X162050932Y-37816583D01*
X161984875Y-37657107D01*
X161951200Y-37487809D01*
X161951200Y-37315191D01*
X161984875Y-37145893D01*
X162050932Y-36986417D01*
X162146835Y-36842888D01*
X162268888Y-36720835D01*
X162412417Y-36624932D01*
X162571893Y-36558875D01*
X162741191Y-36525200D01*
X162913809Y-36525200D01*
X163083107Y-36558875D01*
X163083107Y-36558875D01*
G37*
G36*
X178323107Y-36558875D02*
X178482583Y-36624932D01*
X178626112Y-36720835D01*
X178748165Y-36842888D01*
X178844068Y-36986417D01*
X178910125Y-37145893D01*
X178943800Y-37315191D01*
X178943800Y-37487809D01*
X178910125Y-37657107D01*
X178844068Y-37816583D01*
X178748165Y-37960112D01*
X178626112Y-38082165D01*
X178482583Y-38178068D01*
X178323107Y-38244125D01*
X178153809Y-38277800D01*
X177981191Y-38277800D01*
X177811893Y-38244125D01*
X177652417Y-38178068D01*
X177508888Y-38082165D01*
X177386835Y-37960112D01*
X177290932Y-37816583D01*
X177224875Y-37657107D01*
X177191200Y-37487809D01*
X177191200Y-37315191D01*
X177224875Y-37145893D01*
X177290932Y-36986417D01*
X177386835Y-36842888D01*
X177508888Y-36720835D01*
X177652417Y-36624932D01*
X177811893Y-36558875D01*
X177981191Y-36525200D01*
X178153809Y-36525200D01*
X178323107Y-36558875D01*
X178323107Y-36558875D01*
G37*
G36*
X73599040Y-37030800D02*
X71744840Y-37030800D01*
X71744840Y-35829380D01*
X73599040Y-35829380D01*
X73599040Y-37030800D01*
X73599040Y-37030800D01*
G37*
G36*
X35509040Y-37030800D02*
X33654840Y-37030800D01*
X33654840Y-35829380D01*
X35509040Y-35829380D01*
X35509040Y-37030800D01*
X35509040Y-37030800D01*
G37*
G36*
X40660160Y-37030800D02*
X38805960Y-37030800D01*
X38805960Y-35829380D01*
X40660160Y-35829380D01*
X40660160Y-37030800D01*
X40660160Y-37030800D01*
G37*
G36*
X54509040Y-37030800D02*
X52654840Y-37030800D01*
X52654840Y-35829380D01*
X54509040Y-35829380D01*
X54509040Y-37030800D01*
X54509040Y-37030800D01*
G37*
G36*
X78750160Y-37030800D02*
X76895960Y-37030800D01*
X76895960Y-35829380D01*
X78750160Y-35829380D01*
X78750160Y-37030800D01*
X78750160Y-37030800D01*
G37*
G36*
X269186660Y-37030800D02*
X267332460Y-37030800D01*
X267332460Y-35829380D01*
X269186660Y-35829380D01*
X269186660Y-37030800D01*
X269186660Y-37030800D01*
G37*
G36*
X92649040Y-37030800D02*
X90794840Y-37030800D01*
X90794840Y-35829380D01*
X92649040Y-35829380D01*
X92649040Y-37030800D01*
X92649040Y-37030800D01*
G37*
G36*
X97800160Y-37030800D02*
X95945960Y-37030800D01*
X95945960Y-35829380D01*
X97800160Y-35829380D01*
X97800160Y-37030800D01*
X97800160Y-37030800D01*
G37*
G36*
X264035540Y-37030800D02*
X262181340Y-37030800D01*
X262181340Y-35829380D01*
X264035540Y-35829380D01*
X264035540Y-37030800D01*
X264035540Y-37030800D01*
G37*
G36*
X59660160Y-37030800D02*
X57805960Y-37030800D01*
X57805960Y-35829380D01*
X59660160Y-35829380D01*
X59660160Y-37030800D01*
X59660160Y-37030800D01*
G37*
G36*
X163083107Y-34018875D02*
X163242583Y-34084932D01*
X163386112Y-34180835D01*
X163508165Y-34302888D01*
X163604068Y-34446417D01*
X163670125Y-34605893D01*
X163703800Y-34775191D01*
X163703800Y-34947809D01*
X163670125Y-35117107D01*
X163604068Y-35276583D01*
X163508165Y-35420112D01*
X163386112Y-35542165D01*
X163242583Y-35638068D01*
X163083107Y-35704125D01*
X162913809Y-35737800D01*
X162741191Y-35737800D01*
X162571893Y-35704125D01*
X162412417Y-35638068D01*
X162268888Y-35542165D01*
X162146835Y-35420112D01*
X162050932Y-35276583D01*
X161984875Y-35117107D01*
X161951200Y-34947809D01*
X161951200Y-34775191D01*
X161984875Y-34605893D01*
X162050932Y-34446417D01*
X162146835Y-34302888D01*
X162268888Y-34180835D01*
X162412417Y-34084932D01*
X162571893Y-34018875D01*
X162741191Y-33985200D01*
X162913809Y-33985200D01*
X163083107Y-34018875D01*
X163083107Y-34018875D01*
G37*
G36*
X178323107Y-34018875D02*
X178482583Y-34084932D01*
X178626112Y-34180835D01*
X178748165Y-34302888D01*
X178844068Y-34446417D01*
X178910125Y-34605893D01*
X178943800Y-34775191D01*
X178943800Y-34947809D01*
X178910125Y-35117107D01*
X178844068Y-35276583D01*
X178748165Y-35420112D01*
X178626112Y-35542165D01*
X178482583Y-35638068D01*
X178323107Y-35704125D01*
X178153809Y-35737800D01*
X177981191Y-35737800D01*
X177811893Y-35704125D01*
X177652417Y-35638068D01*
X177508888Y-35542165D01*
X177386835Y-35420112D01*
X177290932Y-35276583D01*
X177224875Y-35117107D01*
X177191200Y-34947809D01*
X177191200Y-34775191D01*
X177224875Y-34605893D01*
X177290932Y-34446417D01*
X177386835Y-34302888D01*
X177508888Y-34180835D01*
X177652417Y-34084932D01*
X177811893Y-34018875D01*
X177981191Y-33985200D01*
X178153809Y-33985200D01*
X178323107Y-34018875D01*
X178323107Y-34018875D01*
G37*
G36*
X37729099Y-29610474D02*
X38091966Y-29760778D01*
X38418537Y-29978986D01*
X38696264Y-30256713D01*
X38914472Y-30583284D01*
X39064776Y-30946151D01*
X39141400Y-31331368D01*
X39141400Y-31724132D01*
X39064776Y-32109349D01*
X38914472Y-32472216D01*
X38696264Y-32798787D01*
X38418537Y-33076514D01*
X38091966Y-33294722D01*
X37729099Y-33445026D01*
X37343882Y-33521650D01*
X36951118Y-33521650D01*
X36565901Y-33445026D01*
X36203034Y-33294722D01*
X35876463Y-33076514D01*
X35598736Y-32798787D01*
X35380528Y-32472216D01*
X35230224Y-32109349D01*
X35153600Y-31724132D01*
X35153600Y-31331368D01*
X35230224Y-30946151D01*
X35380528Y-30583284D01*
X35598736Y-30256713D01*
X35876463Y-29978986D01*
X36203034Y-29760778D01*
X36565901Y-29610474D01*
X36951118Y-29533850D01*
X37343882Y-29533850D01*
X37729099Y-29610474D01*
X37729099Y-29610474D01*
G37*
G36*
X75829099Y-29610474D02*
X76191966Y-29760778D01*
X76518537Y-29978986D01*
X76796264Y-30256713D01*
X77014472Y-30583284D01*
X77164776Y-30946151D01*
X77241400Y-31331368D01*
X77241400Y-31724132D01*
X77164776Y-32109349D01*
X77014472Y-32472216D01*
X76796264Y-32798787D01*
X76518537Y-33076514D01*
X76191966Y-33294722D01*
X75829099Y-33445026D01*
X75443882Y-33521650D01*
X75051118Y-33521650D01*
X74665901Y-33445026D01*
X74303034Y-33294722D01*
X73976463Y-33076514D01*
X73698736Y-32798787D01*
X73480528Y-32472216D01*
X73330224Y-32109349D01*
X73253600Y-31724132D01*
X73253600Y-31331368D01*
X73330224Y-30946151D01*
X73480528Y-30583284D01*
X73698736Y-30256713D01*
X73976463Y-29978986D01*
X74303034Y-29760778D01*
X74665901Y-29610474D01*
X75051118Y-29533850D01*
X75443882Y-29533850D01*
X75829099Y-29610474D01*
X75829099Y-29610474D01*
G37*
G36*
X94879099Y-29610474D02*
X95241966Y-29760778D01*
X95568537Y-29978986D01*
X95846264Y-30256713D01*
X96064472Y-30583284D01*
X96214776Y-30946151D01*
X96291400Y-31331368D01*
X96291400Y-31724132D01*
X96214776Y-32109349D01*
X96064472Y-32472216D01*
X95846264Y-32798787D01*
X95568537Y-33076514D01*
X95241966Y-33294722D01*
X94879099Y-33445026D01*
X94493882Y-33521650D01*
X94101118Y-33521650D01*
X93715901Y-33445026D01*
X93353034Y-33294722D01*
X93026463Y-33076514D01*
X92748736Y-32798787D01*
X92530528Y-32472216D01*
X92380224Y-32109349D01*
X92303600Y-31724132D01*
X92303600Y-31331368D01*
X92380224Y-30946151D01*
X92530528Y-30583284D01*
X92748736Y-30256713D01*
X93026463Y-29978986D01*
X93353034Y-29760778D01*
X93715901Y-29610474D01*
X94101118Y-29533850D01*
X94493882Y-29533850D01*
X94879099Y-29610474D01*
X94879099Y-29610474D01*
G37*
G36*
X56779099Y-29610474D02*
X57141966Y-29760778D01*
X57468537Y-29978986D01*
X57746264Y-30256713D01*
X57964472Y-30583284D01*
X58114776Y-30946151D01*
X58191400Y-31331368D01*
X58191400Y-31724132D01*
X58114776Y-32109349D01*
X57964472Y-32472216D01*
X57746264Y-32798787D01*
X57468537Y-33076514D01*
X57141966Y-33294722D01*
X56779099Y-33445026D01*
X56393882Y-33521650D01*
X56001118Y-33521650D01*
X55615901Y-33445026D01*
X55253034Y-33294722D01*
X54926463Y-33076514D01*
X54648736Y-32798787D01*
X54430528Y-32472216D01*
X54280224Y-32109349D01*
X54203600Y-31724132D01*
X54203600Y-31331368D01*
X54280224Y-30946151D01*
X54430528Y-30583284D01*
X54648736Y-30256713D01*
X54926463Y-29978986D01*
X55253034Y-29760778D01*
X55615901Y-29610474D01*
X56001118Y-29533850D01*
X56393882Y-29533850D01*
X56779099Y-29610474D01*
X56779099Y-29610474D01*
G37*
G36*
X266265599Y-29578724D02*
X266628466Y-29729028D01*
X266955037Y-29947236D01*
X267232764Y-30224963D01*
X267450972Y-30551534D01*
X267601276Y-30914401D01*
X267677900Y-31299618D01*
X267677900Y-31692382D01*
X267601276Y-32077599D01*
X267450972Y-32440466D01*
X267232764Y-32767037D01*
X266955037Y-33044764D01*
X266628466Y-33262972D01*
X266265599Y-33413276D01*
X265880382Y-33489900D01*
X265487618Y-33489900D01*
X265102401Y-33413276D01*
X264739534Y-33262972D01*
X264412963Y-33044764D01*
X264135236Y-32767037D01*
X263917028Y-32440466D01*
X263766724Y-32077599D01*
X263690100Y-31692382D01*
X263690100Y-31299618D01*
X263766724Y-30914401D01*
X263917028Y-30551534D01*
X264135236Y-30224963D01*
X264412963Y-29947236D01*
X264739534Y-29729028D01*
X265102401Y-29578724D01*
X265487618Y-29502100D01*
X265880382Y-29502100D01*
X266265599Y-29578724D01*
X266265599Y-29578724D01*
G37*
G36*
X163083107Y-31478875D02*
X163242583Y-31544932D01*
X163386112Y-31640835D01*
X163508165Y-31762888D01*
X163604068Y-31906417D01*
X163670125Y-32065893D01*
X163703800Y-32235191D01*
X163703800Y-32407809D01*
X163670125Y-32577107D01*
X163604068Y-32736583D01*
X163508165Y-32880112D01*
X163386112Y-33002165D01*
X163242583Y-33098068D01*
X163083107Y-33164125D01*
X162913809Y-33197800D01*
X162741191Y-33197800D01*
X162571893Y-33164125D01*
X162412417Y-33098068D01*
X162268888Y-33002165D01*
X162146835Y-32880112D01*
X162050932Y-32736583D01*
X161984875Y-32577107D01*
X161951200Y-32407809D01*
X161951200Y-32235191D01*
X161984875Y-32065893D01*
X162050932Y-31906417D01*
X162146835Y-31762888D01*
X162268888Y-31640835D01*
X162412417Y-31544932D01*
X162571893Y-31478875D01*
X162741191Y-31445200D01*
X162913809Y-31445200D01*
X163083107Y-31478875D01*
X163083107Y-31478875D01*
G37*
G36*
X178323107Y-31478875D02*
X178482583Y-31544932D01*
X178626112Y-31640835D01*
X178748165Y-31762888D01*
X178844068Y-31906417D01*
X178910125Y-32065893D01*
X178943800Y-32235191D01*
X178943800Y-32407809D01*
X178910125Y-32577107D01*
X178844068Y-32736583D01*
X178748165Y-32880112D01*
X178626112Y-33002165D01*
X178482583Y-33098068D01*
X178323107Y-33164125D01*
X178153809Y-33197800D01*
X177981191Y-33197800D01*
X177811893Y-33164125D01*
X177652417Y-33098068D01*
X177508888Y-33002165D01*
X177386835Y-32880112D01*
X177290932Y-32736583D01*
X177224875Y-32577107D01*
X177191200Y-32407809D01*
X177191200Y-32235191D01*
X177224875Y-32065893D01*
X177290932Y-31906417D01*
X177386835Y-31762888D01*
X177508888Y-31640835D01*
X177652417Y-31544932D01*
X177811893Y-31478875D01*
X177981191Y-31445200D01*
X178153809Y-31445200D01*
X178323107Y-31478875D01*
X178323107Y-31478875D01*
G37*
G36*
X32322728Y-30686375D02*
X32481967Y-30752334D01*
X32625283Y-30848095D01*
X32747155Y-30969967D01*
X32842916Y-31113283D01*
X32908875Y-31272522D01*
X32942500Y-31441569D01*
X32942500Y-31613931D01*
X32908875Y-31782978D01*
X32842916Y-31942217D01*
X32747155Y-32085533D01*
X32625283Y-32207405D01*
X32481967Y-32303166D01*
X32322728Y-32369125D01*
X32153681Y-32402750D01*
X31981319Y-32402750D01*
X31812272Y-32369125D01*
X31653033Y-32303166D01*
X31509717Y-32207405D01*
X31387845Y-32085533D01*
X31292084Y-31942217D01*
X31226125Y-31782978D01*
X31192500Y-31613931D01*
X31192500Y-31441569D01*
X31226125Y-31272522D01*
X31292084Y-31113283D01*
X31387845Y-30969967D01*
X31509717Y-30848095D01*
X31653033Y-30752334D01*
X31812272Y-30686375D01*
X31981319Y-30652750D01*
X32153681Y-30652750D01*
X32322728Y-30686375D01*
X32322728Y-30686375D01*
G37*
G36*
X42482728Y-30686375D02*
X42641967Y-30752334D01*
X42785283Y-30848095D01*
X42907155Y-30969967D01*
X43002916Y-31113283D01*
X43068875Y-31272522D01*
X43102500Y-31441569D01*
X43102500Y-31613931D01*
X43068875Y-31782978D01*
X43002916Y-31942217D01*
X42907155Y-32085533D01*
X42785283Y-32207405D01*
X42641967Y-32303166D01*
X42482728Y-32369125D01*
X42313681Y-32402750D01*
X42141319Y-32402750D01*
X41972272Y-32369125D01*
X41813033Y-32303166D01*
X41669717Y-32207405D01*
X41547845Y-32085533D01*
X41452084Y-31942217D01*
X41386125Y-31782978D01*
X41352500Y-31613931D01*
X41352500Y-31441569D01*
X41386125Y-31272522D01*
X41452084Y-31113283D01*
X41547845Y-30969967D01*
X41669717Y-30848095D01*
X41813033Y-30752334D01*
X41972272Y-30686375D01*
X42141319Y-30652750D01*
X42313681Y-30652750D01*
X42482728Y-30686375D01*
X42482728Y-30686375D01*
G37*
G36*
X99632728Y-30686375D02*
X99791967Y-30752334D01*
X99935283Y-30848095D01*
X100057155Y-30969967D01*
X100152916Y-31113283D01*
X100218875Y-31272522D01*
X100252500Y-31441569D01*
X100252500Y-31613931D01*
X100218875Y-31782978D01*
X100152916Y-31942217D01*
X100057155Y-32085533D01*
X99935283Y-32207405D01*
X99791967Y-32303166D01*
X99632728Y-32369125D01*
X99463681Y-32402750D01*
X99291319Y-32402750D01*
X99122272Y-32369125D01*
X98963033Y-32303166D01*
X98819717Y-32207405D01*
X98697845Y-32085533D01*
X98602084Y-31942217D01*
X98536125Y-31782978D01*
X98502500Y-31613931D01*
X98502500Y-31441569D01*
X98536125Y-31272522D01*
X98602084Y-31113283D01*
X98697845Y-30969967D01*
X98819717Y-30848095D01*
X98963033Y-30752334D01*
X99122272Y-30686375D01*
X99291319Y-30652750D01*
X99463681Y-30652750D01*
X99632728Y-30686375D01*
X99632728Y-30686375D01*
G37*
G36*
X89472728Y-30686375D02*
X89631967Y-30752334D01*
X89775283Y-30848095D01*
X89897155Y-30969967D01*
X89992916Y-31113283D01*
X90058875Y-31272522D01*
X90092500Y-31441569D01*
X90092500Y-31613931D01*
X90058875Y-31782978D01*
X89992916Y-31942217D01*
X89897155Y-32085533D01*
X89775283Y-32207405D01*
X89631967Y-32303166D01*
X89472728Y-32369125D01*
X89303681Y-32402750D01*
X89131319Y-32402750D01*
X88962272Y-32369125D01*
X88803033Y-32303166D01*
X88659717Y-32207405D01*
X88537845Y-32085533D01*
X88442084Y-31942217D01*
X88376125Y-31782978D01*
X88342500Y-31613931D01*
X88342500Y-31441569D01*
X88376125Y-31272522D01*
X88442084Y-31113283D01*
X88537845Y-30969967D01*
X88659717Y-30848095D01*
X88803033Y-30752334D01*
X88962272Y-30686375D01*
X89131319Y-30652750D01*
X89303681Y-30652750D01*
X89472728Y-30686375D01*
X89472728Y-30686375D01*
G37*
G36*
X80582728Y-30686375D02*
X80741967Y-30752334D01*
X80885283Y-30848095D01*
X81007155Y-30969967D01*
X81102916Y-31113283D01*
X81168875Y-31272522D01*
X81202500Y-31441569D01*
X81202500Y-31613931D01*
X81168875Y-31782978D01*
X81102916Y-31942217D01*
X81007155Y-32085533D01*
X80885283Y-32207405D01*
X80741967Y-32303166D01*
X80582728Y-32369125D01*
X80413681Y-32402750D01*
X80241319Y-32402750D01*
X80072272Y-32369125D01*
X79913033Y-32303166D01*
X79769717Y-32207405D01*
X79647845Y-32085533D01*
X79552084Y-31942217D01*
X79486125Y-31782978D01*
X79452500Y-31613931D01*
X79452500Y-31441569D01*
X79486125Y-31272522D01*
X79552084Y-31113283D01*
X79647845Y-30969967D01*
X79769717Y-30848095D01*
X79913033Y-30752334D01*
X80072272Y-30686375D01*
X80241319Y-30652750D01*
X80413681Y-30652750D01*
X80582728Y-30686375D01*
X80582728Y-30686375D01*
G37*
G36*
X70422728Y-30686375D02*
X70581967Y-30752334D01*
X70725283Y-30848095D01*
X70847155Y-30969967D01*
X70942916Y-31113283D01*
X71008875Y-31272522D01*
X71042500Y-31441569D01*
X71042500Y-31613931D01*
X71008875Y-31782978D01*
X70942916Y-31942217D01*
X70847155Y-32085533D01*
X70725283Y-32207405D01*
X70581967Y-32303166D01*
X70422728Y-32369125D01*
X70253681Y-32402750D01*
X70081319Y-32402750D01*
X69912272Y-32369125D01*
X69753033Y-32303166D01*
X69609717Y-32207405D01*
X69487845Y-32085533D01*
X69392084Y-31942217D01*
X69326125Y-31782978D01*
X69292500Y-31613931D01*
X69292500Y-31441569D01*
X69326125Y-31272522D01*
X69392084Y-31113283D01*
X69487845Y-30969967D01*
X69609717Y-30848095D01*
X69753033Y-30752334D01*
X69912272Y-30686375D01*
X70081319Y-30652750D01*
X70253681Y-30652750D01*
X70422728Y-30686375D01*
X70422728Y-30686375D01*
G37*
G36*
X61532728Y-30686375D02*
X61691967Y-30752334D01*
X61835283Y-30848095D01*
X61957155Y-30969967D01*
X62052916Y-31113283D01*
X62118875Y-31272522D01*
X62152500Y-31441569D01*
X62152500Y-31613931D01*
X62118875Y-31782978D01*
X62052916Y-31942217D01*
X61957155Y-32085533D01*
X61835283Y-32207405D01*
X61691967Y-32303166D01*
X61532728Y-32369125D01*
X61363681Y-32402750D01*
X61191319Y-32402750D01*
X61022272Y-32369125D01*
X60863033Y-32303166D01*
X60719717Y-32207405D01*
X60597845Y-32085533D01*
X60502084Y-31942217D01*
X60436125Y-31782978D01*
X60402500Y-31613931D01*
X60402500Y-31441569D01*
X60436125Y-31272522D01*
X60502084Y-31113283D01*
X60597845Y-30969967D01*
X60719717Y-30848095D01*
X60863033Y-30752334D01*
X61022272Y-30686375D01*
X61191319Y-30652750D01*
X61363681Y-30652750D01*
X61532728Y-30686375D01*
X61532728Y-30686375D01*
G37*
G36*
X51372728Y-30686375D02*
X51531967Y-30752334D01*
X51675283Y-30848095D01*
X51797155Y-30969967D01*
X51892916Y-31113283D01*
X51958875Y-31272522D01*
X51992500Y-31441569D01*
X51992500Y-31613931D01*
X51958875Y-31782978D01*
X51892916Y-31942217D01*
X51797155Y-32085533D01*
X51675283Y-32207405D01*
X51531967Y-32303166D01*
X51372728Y-32369125D01*
X51203681Y-32402750D01*
X51031319Y-32402750D01*
X50862272Y-32369125D01*
X50703033Y-32303166D01*
X50559717Y-32207405D01*
X50437845Y-32085533D01*
X50342084Y-31942217D01*
X50276125Y-31782978D01*
X50242500Y-31613931D01*
X50242500Y-31441569D01*
X50276125Y-31272522D01*
X50342084Y-31113283D01*
X50437845Y-30969967D01*
X50559717Y-30848095D01*
X50703033Y-30752334D01*
X50862272Y-30686375D01*
X51031319Y-30652750D01*
X51203681Y-30652750D01*
X51372728Y-30686375D01*
X51372728Y-30686375D01*
G37*
G36*
X271019228Y-30654625D02*
X271178467Y-30720584D01*
X271321783Y-30816345D01*
X271443655Y-30938217D01*
X271539416Y-31081533D01*
X271605375Y-31240772D01*
X271639000Y-31409819D01*
X271639000Y-31582181D01*
X271605375Y-31751228D01*
X271539416Y-31910467D01*
X271443655Y-32053783D01*
X271321783Y-32175655D01*
X271178467Y-32271416D01*
X271019228Y-32337375D01*
X270850181Y-32371000D01*
X270677819Y-32371000D01*
X270508772Y-32337375D01*
X270349533Y-32271416D01*
X270206217Y-32175655D01*
X270084345Y-32053783D01*
X269988584Y-31910467D01*
X269922625Y-31751228D01*
X269889000Y-31582181D01*
X269889000Y-31409819D01*
X269922625Y-31240772D01*
X269988584Y-31081533D01*
X270084345Y-30938217D01*
X270206217Y-30816345D01*
X270349533Y-30720584D01*
X270508772Y-30654625D01*
X270677819Y-30621000D01*
X270850181Y-30621000D01*
X271019228Y-30654625D01*
X271019228Y-30654625D01*
G37*
G36*
X260859228Y-30654625D02*
X261018467Y-30720584D01*
X261161783Y-30816345D01*
X261283655Y-30938217D01*
X261379416Y-31081533D01*
X261445375Y-31240772D01*
X261479000Y-31409819D01*
X261479000Y-31582181D01*
X261445375Y-31751228D01*
X261379416Y-31910467D01*
X261283655Y-32053783D01*
X261161783Y-32175655D01*
X261018467Y-32271416D01*
X260859228Y-32337375D01*
X260690181Y-32371000D01*
X260517819Y-32371000D01*
X260348772Y-32337375D01*
X260189533Y-32271416D01*
X260046217Y-32175655D01*
X259924345Y-32053783D01*
X259828584Y-31910467D01*
X259762625Y-31751228D01*
X259729000Y-31582181D01*
X259729000Y-31409819D01*
X259762625Y-31240772D01*
X259828584Y-31081533D01*
X259924345Y-30938217D01*
X260046217Y-30816345D01*
X260189533Y-30720584D01*
X260348772Y-30654625D01*
X260517819Y-30621000D01*
X260690181Y-30621000D01*
X260859228Y-30654625D01*
X260859228Y-30654625D01*
G37*
G36*
X178323107Y-28938875D02*
X178482583Y-29004932D01*
X178626112Y-29100835D01*
X178748165Y-29222888D01*
X178844068Y-29366417D01*
X178910125Y-29525893D01*
X178943800Y-29695191D01*
X178943800Y-29867809D01*
X178910125Y-30037107D01*
X178844068Y-30196583D01*
X178748165Y-30340112D01*
X178626112Y-30462165D01*
X178482583Y-30558068D01*
X178323107Y-30624125D01*
X178153809Y-30657800D01*
X177981191Y-30657800D01*
X177811893Y-30624125D01*
X177652417Y-30558068D01*
X177508888Y-30462165D01*
X177386835Y-30340112D01*
X177290932Y-30196583D01*
X177224875Y-30037107D01*
X177191200Y-29867809D01*
X177191200Y-29695191D01*
X177224875Y-29525893D01*
X177290932Y-29366417D01*
X177386835Y-29222888D01*
X177508888Y-29100835D01*
X177652417Y-29004932D01*
X177811893Y-28938875D01*
X177981191Y-28905200D01*
X178153809Y-28905200D01*
X178323107Y-28938875D01*
X178323107Y-28938875D01*
G37*
G36*
X163083107Y-28938875D02*
X163242583Y-29004932D01*
X163386112Y-29100835D01*
X163508165Y-29222888D01*
X163604068Y-29366417D01*
X163670125Y-29525893D01*
X163703800Y-29695191D01*
X163703800Y-29867809D01*
X163670125Y-30037107D01*
X163604068Y-30196583D01*
X163508165Y-30340112D01*
X163386112Y-30462165D01*
X163242583Y-30558068D01*
X163083107Y-30624125D01*
X162913809Y-30657800D01*
X162741191Y-30657800D01*
X162571893Y-30624125D01*
X162412417Y-30558068D01*
X162268888Y-30462165D01*
X162146835Y-30340112D01*
X162050932Y-30196583D01*
X161984875Y-30037107D01*
X161951200Y-29867809D01*
X161951200Y-29695191D01*
X161984875Y-29525893D01*
X162050932Y-29366417D01*
X162146835Y-29222888D01*
X162268888Y-29100835D01*
X162412417Y-29004932D01*
X162571893Y-28938875D01*
X162741191Y-28905200D01*
X162913809Y-28905200D01*
X163083107Y-28938875D01*
X163083107Y-28938875D01*
G37*
G36*
X190623388Y-28209720D02*
X190803774Y-28245600D01*
X190994862Y-28324752D01*
X191166836Y-28439661D01*
X191313089Y-28585914D01*
X191427998Y-28757888D01*
X191507150Y-28948976D01*
X191537356Y-29100835D01*
X191547500Y-29151833D01*
X191547500Y-29358667D01*
X191545958Y-29366417D01*
X191507150Y-29561524D01*
X191427998Y-29752612D01*
X191313089Y-29924586D01*
X191166836Y-30070839D01*
X190994862Y-30185748D01*
X190803774Y-30264900D01*
X190623388Y-30300780D01*
X190600917Y-30305250D01*
X190394083Y-30305250D01*
X190371612Y-30300780D01*
X190191226Y-30264900D01*
X190000138Y-30185748D01*
X189828164Y-30070839D01*
X189681911Y-29924586D01*
X189567002Y-29752612D01*
X189487850Y-29561524D01*
X189449042Y-29366417D01*
X189447500Y-29358667D01*
X189447500Y-29151833D01*
X189457644Y-29100835D01*
X189487850Y-28948976D01*
X189567002Y-28757888D01*
X189681911Y-28585914D01*
X189828164Y-28439661D01*
X190000138Y-28324752D01*
X190191226Y-28245600D01*
X190371612Y-28209720D01*
X190394083Y-28205250D01*
X190600917Y-28205250D01*
X190623388Y-28209720D01*
X190623388Y-28209720D01*
G37*
G36*
X183613388Y-28209720D02*
X183793774Y-28245600D01*
X183984862Y-28324752D01*
X184156836Y-28439661D01*
X184303089Y-28585914D01*
X184417998Y-28757888D01*
X184497150Y-28948976D01*
X184527356Y-29100835D01*
X184537500Y-29151833D01*
X184537500Y-29358667D01*
X184535958Y-29366417D01*
X184497150Y-29561524D01*
X184417998Y-29752612D01*
X184303089Y-29924586D01*
X184156836Y-30070839D01*
X183984862Y-30185748D01*
X183793774Y-30264900D01*
X183613388Y-30300780D01*
X183590917Y-30305250D01*
X183384083Y-30305250D01*
X183361612Y-30300780D01*
X183181226Y-30264900D01*
X182990138Y-30185748D01*
X182818164Y-30070839D01*
X182671911Y-29924586D01*
X182557002Y-29752612D01*
X182477850Y-29561524D01*
X182439042Y-29366417D01*
X182437500Y-29358667D01*
X182437500Y-29151833D01*
X182447644Y-29100835D01*
X182477850Y-28948976D01*
X182557002Y-28757888D01*
X182671911Y-28585914D01*
X182818164Y-28439661D01*
X182990138Y-28324752D01*
X183181226Y-28245600D01*
X183361612Y-28209720D01*
X183384083Y-28205250D01*
X183590917Y-28205250D01*
X183613388Y-28209720D01*
X183613388Y-28209720D01*
G37*
G36*
X178323107Y-26398875D02*
X178482583Y-26464932D01*
X178626112Y-26560835D01*
X178748165Y-26682888D01*
X178844068Y-26826417D01*
X178910125Y-26985893D01*
X178943800Y-27155191D01*
X178943800Y-27327809D01*
X178910125Y-27497107D01*
X178844068Y-27656583D01*
X178748165Y-27800112D01*
X178626112Y-27922165D01*
X178482583Y-28018068D01*
X178323107Y-28084125D01*
X178153809Y-28117800D01*
X177981191Y-28117800D01*
X177811893Y-28084125D01*
X177652417Y-28018068D01*
X177508888Y-27922165D01*
X177386835Y-27800112D01*
X177290932Y-27656583D01*
X177224875Y-27497107D01*
X177191200Y-27327809D01*
X177191200Y-27155191D01*
X177224875Y-26985893D01*
X177290932Y-26826417D01*
X177386835Y-26682888D01*
X177508888Y-26560835D01*
X177652417Y-26464932D01*
X177811893Y-26398875D01*
X177981191Y-26365200D01*
X178153809Y-26365200D01*
X178323107Y-26398875D01*
X178323107Y-26398875D01*
G37*
G36*
X163083107Y-26398875D02*
X163242583Y-26464932D01*
X163386112Y-26560835D01*
X163508165Y-26682888D01*
X163604068Y-26826417D01*
X163670125Y-26985893D01*
X163703800Y-27155191D01*
X163703800Y-27327809D01*
X163670125Y-27497107D01*
X163604068Y-27656583D01*
X163508165Y-27800112D01*
X163386112Y-27922165D01*
X163242583Y-28018068D01*
X163083107Y-28084125D01*
X162913809Y-28117800D01*
X162741191Y-28117800D01*
X162571893Y-28084125D01*
X162412417Y-28018068D01*
X162268888Y-27922165D01*
X162146835Y-27800112D01*
X162050932Y-27656583D01*
X161984875Y-27497107D01*
X161951200Y-27327809D01*
X161951200Y-27155191D01*
X161984875Y-26985893D01*
X162050932Y-26826417D01*
X162146835Y-26682888D01*
X162268888Y-26560835D01*
X162412417Y-26464932D01*
X162571893Y-26398875D01*
X162741191Y-26365200D01*
X162913809Y-26365200D01*
X163083107Y-26398875D01*
X163083107Y-26398875D01*
G37*
G36*
X189752728Y-25923875D02*
X189911967Y-25989834D01*
X190055283Y-26085595D01*
X190177155Y-26207467D01*
X190272916Y-26350783D01*
X190338875Y-26510022D01*
X190372500Y-26679069D01*
X190372500Y-26851431D01*
X190338875Y-27020478D01*
X190272916Y-27179717D01*
X190177155Y-27323033D01*
X190055283Y-27444905D01*
X189911967Y-27540666D01*
X189752728Y-27606625D01*
X189583681Y-27640250D01*
X189411319Y-27640250D01*
X189242272Y-27606625D01*
X189083033Y-27540666D01*
X188939717Y-27444905D01*
X188817845Y-27323033D01*
X188722084Y-27179717D01*
X188656125Y-27020478D01*
X188622500Y-26851431D01*
X188622500Y-26679069D01*
X188656125Y-26510022D01*
X188722084Y-26350783D01*
X188817845Y-26207467D01*
X188939717Y-26085595D01*
X189083033Y-25989834D01*
X189242272Y-25923875D01*
X189411319Y-25890250D01*
X189583681Y-25890250D01*
X189752728Y-25923875D01*
X189752728Y-25923875D01*
G37*
G36*
X184752728Y-25923875D02*
X184911967Y-25989834D01*
X185055283Y-26085595D01*
X185177155Y-26207467D01*
X185272916Y-26350783D01*
X185338875Y-26510022D01*
X185372500Y-26679069D01*
X185372500Y-26851431D01*
X185338875Y-27020478D01*
X185272916Y-27179717D01*
X185177155Y-27323033D01*
X185055283Y-27444905D01*
X184911967Y-27540666D01*
X184752728Y-27606625D01*
X184583681Y-27640250D01*
X184411319Y-27640250D01*
X184242272Y-27606625D01*
X184083033Y-27540666D01*
X183939717Y-27444905D01*
X183817845Y-27323033D01*
X183722084Y-27179717D01*
X183656125Y-27020478D01*
X183622500Y-26851431D01*
X183622500Y-26679069D01*
X183656125Y-26510022D01*
X183722084Y-26350783D01*
X183817845Y-26207467D01*
X183939717Y-26085595D01*
X184083033Y-25989834D01*
X184242272Y-25923875D01*
X184411319Y-25890250D01*
X184583681Y-25890250D01*
X184752728Y-25923875D01*
X184752728Y-25923875D01*
G37*
G36*
X187172512Y-24978307D02*
X187281707Y-25023537D01*
X187379981Y-25089202D01*
X187463548Y-25172769D01*
X187529213Y-25271043D01*
X187574443Y-25380238D01*
X187597500Y-25496154D01*
X187597500Y-25614346D01*
X187574443Y-25730262D01*
X187529213Y-25839457D01*
X187463548Y-25937731D01*
X187379981Y-26021298D01*
X187281707Y-26086963D01*
X187172512Y-26132193D01*
X187056596Y-26155250D01*
X186938404Y-26155250D01*
X186822488Y-26132193D01*
X186713293Y-26086963D01*
X186615019Y-26021298D01*
X186531452Y-25937731D01*
X186465787Y-25839457D01*
X186420557Y-25730262D01*
X186397500Y-25614346D01*
X186397500Y-25496154D01*
X186420557Y-25380238D01*
X186465787Y-25271043D01*
X186531452Y-25172769D01*
X186615019Y-25089202D01*
X186713293Y-25023537D01*
X186822488Y-24978307D01*
X186938404Y-24955250D01*
X187056596Y-24955250D01*
X187172512Y-24978307D01*
X187172512Y-24978307D01*
G37*
G36*
X163703800Y-25577800D02*
X161951200Y-25577800D01*
X161951200Y-23825200D01*
X163703800Y-23825200D01*
X163703800Y-25577800D01*
X163703800Y-25577800D01*
G37*
G36*
X178323107Y-23858875D02*
X178482583Y-23924932D01*
X178626112Y-24020835D01*
X178748165Y-24142888D01*
X178844068Y-24286417D01*
X178910125Y-24445893D01*
X178943800Y-24615191D01*
X178943800Y-24787809D01*
X178910125Y-24957107D01*
X178844068Y-25116583D01*
X178748165Y-25260112D01*
X178626112Y-25382165D01*
X178482583Y-25478068D01*
X178323107Y-25544125D01*
X178153809Y-25577800D01*
X177981191Y-25577800D01*
X177811893Y-25544125D01*
X177652417Y-25478068D01*
X177508888Y-25382165D01*
X177386835Y-25260112D01*
X177290932Y-25116583D01*
X177224875Y-24957107D01*
X177191200Y-24787809D01*
X177191200Y-24615191D01*
X177224875Y-24445893D01*
X177290932Y-24286417D01*
X177386835Y-24142888D01*
X177508888Y-24020835D01*
X177652417Y-23924932D01*
X177811893Y-23858875D01*
X177981191Y-23825200D01*
X178153809Y-23825200D01*
X178323107Y-23858875D01*
X178323107Y-23858875D01*
G37*
M02*
