G04 #@! TF.GenerationSoftware,KiCad,Pcbnew,5.0.1*
G04 #@! TF.CreationDate,2018-11-29T02:11:47-05:00*
G04 #@! TF.ProjectId,fightkeyb-pcb,66696768746B6579622D7063622E6B69,rev?*
G04 #@! TF.SameCoordinates,Original*
G04 #@! TF.FileFunction,Paste,Bot*
G04 #@! TF.FilePolarity,Positive*
%FSLAX46Y46*%
G04 Gerber Fmt 4.6, Leading zero omitted, Abs format (unit mm)*
G04 Created by KiCad (PCBNEW 5.0.1) date Thu 29 Nov 2018 02:11:47 AM EST*
%MOMM*%
%LPD*%
G01*
G04 APERTURE LIST*
%ADD10R,1.200000X1.200000*%
G04 APERTURE END LIST*
D10*
G04 #@! TO.C,D1*
X66675000Y-50006250D03*
X66675000Y-46856250D03*
G04 #@! TD*
G04 #@! TO.C,D2*
X85725000Y-46856250D03*
X85725000Y-50006250D03*
G04 #@! TD*
G04 #@! TO.C,D3*
X100012500Y-50006250D03*
X100012500Y-46856250D03*
G04 #@! TD*
G04 #@! TO.C,D4*
X116681250Y-47625000D03*
X116681250Y-50775000D03*
G04 #@! TD*
G04 #@! TO.C,D5*
X233362500Y-37293750D03*
X233362500Y-34143750D03*
G04 #@! TD*
G04 #@! TO.C,D6*
X76200000Y-54000000D03*
X76200000Y-57150000D03*
G04 #@! TD*
G04 #@! TO.C,D7*
X92868750Y-57918750D03*
X92868750Y-54768750D03*
G04 #@! TD*
G04 #@! TO.C,D8*
X109537500Y-54768750D03*
X109537500Y-57918750D03*
G04 #@! TD*
G04 #@! TO.C,D9*
X183356250Y-57918750D03*
X183356250Y-54768750D03*
G04 #@! TD*
G04 #@! TO.C,D10*
X197643750Y-53512500D03*
X197643750Y-56662500D03*
G04 #@! TD*
G04 #@! TO.C,D11*
X212725000Y-57125000D03*
X212725000Y-53975000D03*
G04 #@! TD*
G04 #@! TO.C,D12*
X232410000Y-57760000D03*
X232410000Y-54610000D03*
G04 #@! TD*
G04 #@! TO.C,D13*
X95250000Y-109537500D03*
X95250000Y-112687500D03*
G04 #@! TD*
G04 #@! TO.C,D14*
X109537500Y-111918750D03*
X109537500Y-108768750D03*
G04 #@! TD*
G04 #@! TO.C,D15*
X126206250Y-108768750D03*
X126206250Y-111918750D03*
G04 #@! TD*
G04 #@! TO.C,D16*
X185737500Y-111918750D03*
X185737500Y-108768750D03*
G04 #@! TD*
G04 #@! TO.C,D17*
X197643750Y-107962500D03*
X197643750Y-111112500D03*
G04 #@! TD*
G04 #@! TO.C,D18*
X211931250Y-110306250D03*
X211931250Y-107156250D03*
G04 #@! TD*
G04 #@! TO.C,D19*
X228600000Y-107156250D03*
X228600000Y-110306250D03*
G04 #@! TD*
G04 #@! TO.C,D20*
X128905000Y-132860000D03*
X128905000Y-129710000D03*
G04 #@! TD*
M02*
