M48
;DRILL file {KiCad 5.0.1} date Thu 29 Nov 2018 02:11:53 AM EST
;FORMAT={-:-/ absolute / inch / decimal}
FMAT,2
INCH,TZ
T1C0.0670
T2C0.1570
%
G90
G05
M72
T1
X9.4562Y-3.5625
X9.8562Y-3.5625
X4.3Y-1.3125
X4.7Y-1.3125
X2.8Y-3.5625
X3.2Y-3.5625
X4.3Y-3.5625
X4.7Y-3.5625
X3.55Y-2.8125
X3.95Y-2.8125
X8.7062Y-3.5625
X9.1062Y-3.5625
X7.9562Y-3.5625
X8.3562Y-3.5625
X4.3Y-2.8125
X4.7Y-2.8125
X4.3Y-5.0625
X4.7Y-5.0625
X7.2062Y-3.5625
X7.6063Y-3.5625
X2.05Y-1.3125
X2.45Y-1.3125
X7.2062Y-2.8125
X7.6063Y-2.8125
X8.7062Y-2.8125
X9.1062Y-2.8125
X2.8Y-1.3125
X3.2Y-1.3125
X7.9562Y-2.8125
X8.3562Y-2.8125
X2.8Y-2.8125
X3.2Y-2.8125
X9.4562Y-2.8125
X9.8562Y-2.8125
X3.55Y-3.5625
X3.95Y-3.5625
X9.4562Y-1.3125
X9.8562Y-1.3125
X3.55Y-1.3125
X3.95Y-1.3125
T2
X9.6562Y-3.5625
X4.5Y-1.3125
X3.Y-3.5625
X4.5Y-3.5625
X3.75Y-2.8125
X8.9062Y-3.5625
X8.1562Y-3.5625
X4.5Y-2.8125
X4.5Y-5.0625
X7.4062Y-3.5625
X2.25Y-1.3125
X7.4062Y-2.8125
X8.9062Y-2.8125
X3.Y-1.3125
X8.1562Y-2.8125
X3.Y-2.8125
X9.6562Y-2.8125
X3.75Y-3.5625
X9.6562Y-1.3125
X3.75Y-1.3125
T0
M30
