G04 #@! TF.GenerationSoftware,KiCad,Pcbnew,5.0.1*
G04 #@! TF.CreationDate,2018-11-29T02:11:47-05:00*
G04 #@! TF.ProjectId,fightkeyb-pcb,66696768746B6579622D7063622E6B69,rev?*
G04 #@! TF.SameCoordinates,Original*
G04 #@! TF.FileFunction,Legend,Bot*
G04 #@! TF.FilePolarity,Positive*
%FSLAX46Y46*%
G04 Gerber Fmt 4.6, Leading zero omitted, Abs format (unit mm)*
G04 Created by KiCad (PCBNEW 5.0.1) date Thu 29 Nov 2018 02:11:47 AM EST*
%MOMM*%
%LPD*%
G01*
G04 APERTURE LIST*
%ADD10C,0.300000*%
%ADD11C,0.200000*%
%ADD12C,0.101600*%
%ADD13C,0.150000*%
G04 APERTURE END LIST*
D10*
X158877142Y-28618571D02*
X158877142Y-27618571D01*
X158877142Y-27904285D02*
X158948571Y-27761428D01*
X159020000Y-27690000D01*
X159162857Y-27618571D01*
X159305714Y-27618571D01*
X159734285Y-28547142D02*
X159877142Y-28618571D01*
X160162857Y-28618571D01*
X160305714Y-28547142D01*
X160377142Y-28404285D01*
X160377142Y-28332857D01*
X160305714Y-28190000D01*
X160162857Y-28118571D01*
X159948571Y-28118571D01*
X159805714Y-28047142D01*
X159734285Y-27904285D01*
X159734285Y-27832857D01*
X159805714Y-27690000D01*
X159948571Y-27618571D01*
X160162857Y-27618571D01*
X160305714Y-27690000D01*
X160805714Y-27618571D02*
X161377142Y-27618571D01*
X161020000Y-27118571D02*
X161020000Y-28404285D01*
X161091428Y-28547142D01*
X161234285Y-28618571D01*
X161377142Y-28618571D01*
X158984285Y-25078571D02*
X158984285Y-26292857D01*
X158912857Y-26435714D01*
X158841428Y-26507142D01*
X158698571Y-26578571D01*
X158484285Y-26578571D01*
X158341428Y-26507142D01*
X158984285Y-26007142D02*
X158841428Y-26078571D01*
X158555714Y-26078571D01*
X158412857Y-26007142D01*
X158341428Y-25935714D01*
X158270000Y-25792857D01*
X158270000Y-25364285D01*
X158341428Y-25221428D01*
X158412857Y-25150000D01*
X158555714Y-25078571D01*
X158841428Y-25078571D01*
X158984285Y-25150000D01*
X159698571Y-25078571D02*
X159698571Y-26078571D01*
X159698571Y-25221428D02*
X159770000Y-25150000D01*
X159912857Y-25078571D01*
X160127142Y-25078571D01*
X160270000Y-25150000D01*
X160341428Y-25292857D01*
X160341428Y-26078571D01*
X161698571Y-26078571D02*
X161698571Y-24578571D01*
X161698571Y-26007142D02*
X161555714Y-26078571D01*
X161270000Y-26078571D01*
X161127142Y-26007142D01*
X161055714Y-25935714D01*
X160984285Y-25792857D01*
X160984285Y-25364285D01*
X161055714Y-25221428D01*
X161127142Y-25150000D01*
X161270000Y-25078571D01*
X161555714Y-25078571D01*
X161698571Y-25150000D01*
X148265428Y-134536571D02*
X148265428Y-133036571D01*
X148265428Y-133608000D02*
X148408285Y-133536571D01*
X148694000Y-133536571D01*
X148836857Y-133608000D01*
X148908285Y-133679428D01*
X148979714Y-133822285D01*
X148979714Y-134250857D01*
X148908285Y-134393714D01*
X148836857Y-134465142D01*
X148694000Y-134536571D01*
X148408285Y-134536571D01*
X148265428Y-134465142D01*
X149479714Y-133536571D02*
X149836857Y-134536571D01*
X150194000Y-133536571D02*
X149836857Y-134536571D01*
X149694000Y-134893714D01*
X149622571Y-134965142D01*
X149479714Y-135036571D01*
X152551142Y-134465142D02*
X152408285Y-134536571D01*
X152122571Y-134536571D01*
X151979714Y-134465142D01*
X151908285Y-134393714D01*
X151836857Y-134250857D01*
X151836857Y-133822285D01*
X151908285Y-133679428D01*
X151979714Y-133608000D01*
X152122571Y-133536571D01*
X152408285Y-133536571D01*
X152551142Y-133608000D01*
X153408285Y-134536571D02*
X153265428Y-134465142D01*
X153194000Y-134393714D01*
X153122571Y-134250857D01*
X153122571Y-133822285D01*
X153194000Y-133679428D01*
X153265428Y-133608000D01*
X153408285Y-133536571D01*
X153622571Y-133536571D01*
X153765428Y-133608000D01*
X153836857Y-133679428D01*
X153908285Y-133822285D01*
X153908285Y-134250857D01*
X153836857Y-134393714D01*
X153765428Y-134465142D01*
X153622571Y-134536571D01*
X153408285Y-134536571D01*
X154551142Y-134536571D02*
X154551142Y-133536571D01*
X154551142Y-133822285D02*
X154622571Y-133679428D01*
X154694000Y-133608000D01*
X154836857Y-133536571D01*
X154979714Y-133536571D01*
X156051142Y-134465142D02*
X155908285Y-134536571D01*
X155622571Y-134536571D01*
X155479714Y-134465142D01*
X155408285Y-134322285D01*
X155408285Y-133750857D01*
X155479714Y-133608000D01*
X155622571Y-133536571D01*
X155908285Y-133536571D01*
X156051142Y-133608000D01*
X156122571Y-133750857D01*
X156122571Y-133893714D01*
X155408285Y-134036571D01*
X157408285Y-134536571D02*
X157408285Y-133036571D01*
X157408285Y-134465142D02*
X157265428Y-134536571D01*
X156979714Y-134536571D01*
X156836857Y-134465142D01*
X156765428Y-134393714D01*
X156694000Y-134250857D01*
X156694000Y-133822285D01*
X156765428Y-133679428D01*
X156836857Y-133608000D01*
X156979714Y-133536571D01*
X157265428Y-133536571D01*
X157408285Y-133608000D01*
X158765428Y-133536571D02*
X158765428Y-134536571D01*
X158122571Y-133536571D02*
X158122571Y-134322285D01*
X158194000Y-134465142D01*
X158336857Y-134536571D01*
X158551142Y-134536571D01*
X158694000Y-134465142D01*
X158765428Y-134393714D01*
X159479714Y-134536571D02*
X159479714Y-133536571D01*
X159479714Y-133679428D02*
X159551142Y-133608000D01*
X159694000Y-133536571D01*
X159908285Y-133536571D01*
X160051142Y-133608000D01*
X160122571Y-133750857D01*
X160122571Y-134536571D01*
X160122571Y-133750857D02*
X160194000Y-133608000D01*
X160336857Y-133536571D01*
X160551142Y-133536571D01*
X160694000Y-133608000D01*
X160765428Y-133750857D01*
X160765428Y-134536571D01*
X161479714Y-133536571D02*
X161479714Y-135036571D01*
X161479714Y-133608000D02*
X161622571Y-133536571D01*
X161908285Y-133536571D01*
X162051142Y-133608000D01*
X162122571Y-133679428D01*
X162194000Y-133822285D01*
X162194000Y-134250857D01*
X162122571Y-134393714D01*
X162051142Y-134465142D01*
X161908285Y-134536571D01*
X161622571Y-134536571D01*
X161479714Y-134465142D01*
X146247047Y-123134571D02*
X150056571Y-123134571D01*
X147675619Y-126467904D02*
X147675619Y-122182190D01*
X148151809Y-121706000D01*
X149104190Y-121467904D01*
X150056571Y-121467904D01*
X153389904Y-126467904D02*
X153389904Y-123134571D01*
X153389904Y-121467904D02*
X152913714Y-121706000D01*
X153389904Y-121944095D01*
X153866095Y-121706000D01*
X153389904Y-121467904D01*
X153389904Y-121944095D01*
X162437523Y-123134571D02*
X162437523Y-127182190D01*
X161961333Y-127658380D01*
X161485142Y-127896476D01*
X160532761Y-128134571D01*
X159104190Y-128134571D01*
X158151809Y-127896476D01*
X162437523Y-126229809D02*
X161485142Y-126467904D01*
X159580380Y-126467904D01*
X158628000Y-126229809D01*
X158151809Y-125991714D01*
X157675619Y-125515523D01*
X157675619Y-124086952D01*
X158151809Y-123610761D01*
X158628000Y-123372666D01*
X159580380Y-123134571D01*
X161485142Y-123134571D01*
X162437523Y-123372666D01*
X167199428Y-126467904D02*
X167199428Y-121467904D01*
X171485142Y-126467904D02*
X171485142Y-123848857D01*
X171008952Y-123372666D01*
X170056571Y-123134571D01*
X168628000Y-123134571D01*
X167675619Y-123372666D01*
X167199428Y-123610761D01*
X174818476Y-123134571D02*
X178628000Y-123134571D01*
X176247047Y-121467904D02*
X176247047Y-125753619D01*
X176723238Y-126229809D01*
X177675619Y-126467904D01*
X178628000Y-126467904D01*
X181961333Y-126467904D02*
X181961333Y-121467904D01*
X182913714Y-124563142D02*
X185770857Y-126467904D01*
X185770857Y-123134571D02*
X181961333Y-125039333D01*
X193866095Y-126229809D02*
X192913714Y-126467904D01*
X191008952Y-126467904D01*
X190056571Y-126229809D01*
X189580380Y-125753619D01*
X189580380Y-123848857D01*
X190056571Y-123372666D01*
X191008952Y-123134571D01*
X192913714Y-123134571D01*
X193866095Y-123372666D01*
X194342285Y-123848857D01*
X194342285Y-124325047D01*
X189580380Y-124801238D01*
X197675619Y-123134571D02*
X200056571Y-126467904D01*
X202437523Y-123134571D02*
X200056571Y-126467904D01*
X199104190Y-127658380D01*
X198628000Y-127896476D01*
X197675619Y-128134571D01*
X206247047Y-126467904D02*
X206247047Y-121467904D01*
X206247047Y-123372666D02*
X207199428Y-123134571D01*
X209104190Y-123134571D01*
X210056571Y-123372666D01*
X210532761Y-123610761D01*
X211008952Y-124086952D01*
X211008952Y-125515523D01*
X210532761Y-125991714D01*
X210056571Y-126229809D01*
X209104190Y-126467904D01*
X207199428Y-126467904D01*
X206247047Y-126229809D01*
X221961333Y-123134571D02*
X224342285Y-126467904D01*
X226723238Y-123134571D01*
X232437523Y-121467904D02*
X233389904Y-121467904D01*
X234342285Y-121706000D01*
X234818476Y-121944095D01*
X235294666Y-122420285D01*
X235770857Y-123372666D01*
X235770857Y-124563142D01*
X235294666Y-125515523D01*
X234818476Y-125991714D01*
X234342285Y-126229809D01*
X233389904Y-126467904D01*
X232437523Y-126467904D01*
X231485142Y-126229809D01*
X231008952Y-125991714D01*
X230532761Y-125515523D01*
X230056571Y-124563142D01*
X230056571Y-123372666D01*
X230532761Y-122420285D01*
X231008952Y-121944095D01*
X231485142Y-121706000D01*
X232437523Y-121467904D01*
X240056571Y-125991714D02*
X240532761Y-126229809D01*
X240056571Y-126467904D01*
X239580380Y-126229809D01*
X240056571Y-125991714D01*
X240056571Y-126467904D01*
X250056571Y-126467904D02*
X244342285Y-126467904D01*
X247199428Y-126467904D02*
X247199428Y-121467904D01*
X246247047Y-122182190D01*
X245294666Y-122658380D01*
X244342285Y-122896476D01*
D11*
G04 #@! TO.C,D1*
X65475000Y-45631250D02*
X65475000Y-51431250D01*
X67875000Y-45631250D02*
X65475000Y-45631250D01*
X67875000Y-51431250D02*
X67875000Y-45631250D01*
X67875000Y-51356250D02*
X65475000Y-51356250D01*
X67875000Y-51231250D02*
X65475000Y-51231250D01*
X65475000Y-51456250D02*
X67875000Y-51456250D01*
X67875000Y-51056250D02*
X65475000Y-51056250D01*
X67875000Y-50881250D02*
X65475000Y-50881250D01*
X67875000Y-50706250D02*
X65475000Y-50706250D01*
G04 #@! TO.C,D2*
X86925000Y-50706250D02*
X84525000Y-50706250D01*
X86925000Y-50881250D02*
X84525000Y-50881250D01*
X86925000Y-51056250D02*
X84525000Y-51056250D01*
X84525000Y-51456250D02*
X86925000Y-51456250D01*
X86925000Y-51231250D02*
X84525000Y-51231250D01*
X86925000Y-51356250D02*
X84525000Y-51356250D01*
X86925000Y-51431250D02*
X86925000Y-45631250D01*
X86925000Y-45631250D02*
X84525000Y-45631250D01*
X84525000Y-45631250D02*
X84525000Y-51431250D01*
G04 #@! TO.C,D3*
X98812500Y-45631250D02*
X98812500Y-51431250D01*
X101212500Y-45631250D02*
X98812500Y-45631250D01*
X101212500Y-51431250D02*
X101212500Y-45631250D01*
X101212500Y-51356250D02*
X98812500Y-51356250D01*
X101212500Y-51231250D02*
X98812500Y-51231250D01*
X98812500Y-51456250D02*
X101212500Y-51456250D01*
X101212500Y-51056250D02*
X98812500Y-51056250D01*
X101212500Y-50881250D02*
X98812500Y-50881250D01*
X101212500Y-50706250D02*
X98812500Y-50706250D01*
G04 #@! TO.C,D4*
X117881250Y-51475000D02*
X115481250Y-51475000D01*
X117881250Y-51650000D02*
X115481250Y-51650000D01*
X117881250Y-51825000D02*
X115481250Y-51825000D01*
X115481250Y-52225000D02*
X117881250Y-52225000D01*
X117881250Y-52000000D02*
X115481250Y-52000000D01*
X117881250Y-52125000D02*
X115481250Y-52125000D01*
X117881250Y-52200000D02*
X117881250Y-46400000D01*
X117881250Y-46400000D02*
X115481250Y-46400000D01*
X115481250Y-46400000D02*
X115481250Y-52200000D01*
G04 #@! TO.C,D5*
X232162500Y-32918750D02*
X232162500Y-38718750D01*
X234562500Y-32918750D02*
X232162500Y-32918750D01*
X234562500Y-38718750D02*
X234562500Y-32918750D01*
X234562500Y-38643750D02*
X232162500Y-38643750D01*
X234562500Y-38518750D02*
X232162500Y-38518750D01*
X232162500Y-38743750D02*
X234562500Y-38743750D01*
X234562500Y-38343750D02*
X232162500Y-38343750D01*
X234562500Y-38168750D02*
X232162500Y-38168750D01*
X234562500Y-37993750D02*
X232162500Y-37993750D01*
G04 #@! TO.C,D6*
X77400000Y-58375000D02*
X77400000Y-52575000D01*
X75000000Y-58375000D02*
X77400000Y-58375000D01*
X75000000Y-52575000D02*
X75000000Y-58375000D01*
X75000000Y-52650000D02*
X77400000Y-52650000D01*
X75000000Y-52775000D02*
X77400000Y-52775000D01*
X77400000Y-52550000D02*
X75000000Y-52550000D01*
X75000000Y-52950000D02*
X77400000Y-52950000D01*
X75000000Y-53125000D02*
X77400000Y-53125000D01*
X75000000Y-53300000D02*
X77400000Y-53300000D01*
G04 #@! TO.C,D7*
X91668750Y-54068750D02*
X94068750Y-54068750D01*
X91668750Y-53893750D02*
X94068750Y-53893750D01*
X91668750Y-53718750D02*
X94068750Y-53718750D01*
X94068750Y-53318750D02*
X91668750Y-53318750D01*
X91668750Y-53543750D02*
X94068750Y-53543750D01*
X91668750Y-53418750D02*
X94068750Y-53418750D01*
X91668750Y-53343750D02*
X91668750Y-59143750D01*
X91668750Y-59143750D02*
X94068750Y-59143750D01*
X94068750Y-59143750D02*
X94068750Y-53343750D01*
G04 #@! TO.C,D8*
X110737500Y-59143750D02*
X110737500Y-53343750D01*
X108337500Y-59143750D02*
X110737500Y-59143750D01*
X108337500Y-53343750D02*
X108337500Y-59143750D01*
X108337500Y-53418750D02*
X110737500Y-53418750D01*
X108337500Y-53543750D02*
X110737500Y-53543750D01*
X110737500Y-53318750D02*
X108337500Y-53318750D01*
X108337500Y-53718750D02*
X110737500Y-53718750D01*
X108337500Y-53893750D02*
X110737500Y-53893750D01*
X108337500Y-54068750D02*
X110737500Y-54068750D01*
G04 #@! TO.C,D9*
X182156250Y-54068750D02*
X184556250Y-54068750D01*
X182156250Y-53893750D02*
X184556250Y-53893750D01*
X182156250Y-53718750D02*
X184556250Y-53718750D01*
X184556250Y-53318750D02*
X182156250Y-53318750D01*
X182156250Y-53543750D02*
X184556250Y-53543750D01*
X182156250Y-53418750D02*
X184556250Y-53418750D01*
X182156250Y-53343750D02*
X182156250Y-59143750D01*
X182156250Y-59143750D02*
X184556250Y-59143750D01*
X184556250Y-59143750D02*
X184556250Y-53343750D01*
G04 #@! TO.C,D10*
X198843750Y-57887500D02*
X198843750Y-52087500D01*
X196443750Y-57887500D02*
X198843750Y-57887500D01*
X196443750Y-52087500D02*
X196443750Y-57887500D01*
X196443750Y-52162500D02*
X198843750Y-52162500D01*
X196443750Y-52287500D02*
X198843750Y-52287500D01*
X198843750Y-52062500D02*
X196443750Y-52062500D01*
X196443750Y-52462500D02*
X198843750Y-52462500D01*
X196443750Y-52637500D02*
X198843750Y-52637500D01*
X196443750Y-52812500D02*
X198843750Y-52812500D01*
G04 #@! TO.C,D11*
X211525000Y-53275000D02*
X213925000Y-53275000D01*
X211525000Y-53100000D02*
X213925000Y-53100000D01*
X211525000Y-52925000D02*
X213925000Y-52925000D01*
X213925000Y-52525000D02*
X211525000Y-52525000D01*
X211525000Y-52750000D02*
X213925000Y-52750000D01*
X211525000Y-52625000D02*
X213925000Y-52625000D01*
X211525000Y-52550000D02*
X211525000Y-58350000D01*
X211525000Y-58350000D02*
X213925000Y-58350000D01*
X213925000Y-58350000D02*
X213925000Y-52550000D01*
G04 #@! TO.C,D12*
X231210000Y-53910000D02*
X233610000Y-53910000D01*
X231210000Y-53735000D02*
X233610000Y-53735000D01*
X231210000Y-53560000D02*
X233610000Y-53560000D01*
X233610000Y-53160000D02*
X231210000Y-53160000D01*
X231210000Y-53385000D02*
X233610000Y-53385000D01*
X231210000Y-53260000D02*
X233610000Y-53260000D01*
X231210000Y-53185000D02*
X231210000Y-58985000D01*
X231210000Y-58985000D02*
X233610000Y-58985000D01*
X233610000Y-58985000D02*
X233610000Y-53185000D01*
G04 #@! TO.C,D13*
X96450000Y-113387500D02*
X94050000Y-113387500D01*
X96450000Y-113562500D02*
X94050000Y-113562500D01*
X96450000Y-113737500D02*
X94050000Y-113737500D01*
X94050000Y-114137500D02*
X96450000Y-114137500D01*
X96450000Y-113912500D02*
X94050000Y-113912500D01*
X96450000Y-114037500D02*
X94050000Y-114037500D01*
X96450000Y-114112500D02*
X96450000Y-108312500D01*
X96450000Y-108312500D02*
X94050000Y-108312500D01*
X94050000Y-108312500D02*
X94050000Y-114112500D01*
G04 #@! TO.C,D14*
X108337500Y-107543750D02*
X108337500Y-113343750D01*
X110737500Y-107543750D02*
X108337500Y-107543750D01*
X110737500Y-113343750D02*
X110737500Y-107543750D01*
X110737500Y-113268750D02*
X108337500Y-113268750D01*
X110737500Y-113143750D02*
X108337500Y-113143750D01*
X108337500Y-113368750D02*
X110737500Y-113368750D01*
X110737500Y-112968750D02*
X108337500Y-112968750D01*
X110737500Y-112793750D02*
X108337500Y-112793750D01*
X110737500Y-112618750D02*
X108337500Y-112618750D01*
G04 #@! TO.C,D15*
X127406250Y-112618750D02*
X125006250Y-112618750D01*
X127406250Y-112793750D02*
X125006250Y-112793750D01*
X127406250Y-112968750D02*
X125006250Y-112968750D01*
X125006250Y-113368750D02*
X127406250Y-113368750D01*
X127406250Y-113143750D02*
X125006250Y-113143750D01*
X127406250Y-113268750D02*
X125006250Y-113268750D01*
X127406250Y-113343750D02*
X127406250Y-107543750D01*
X127406250Y-107543750D02*
X125006250Y-107543750D01*
X125006250Y-107543750D02*
X125006250Y-113343750D01*
G04 #@! TO.C,D16*
X184537500Y-107543750D02*
X184537500Y-113343750D01*
X186937500Y-107543750D02*
X184537500Y-107543750D01*
X186937500Y-113343750D02*
X186937500Y-107543750D01*
X186937500Y-113268750D02*
X184537500Y-113268750D01*
X186937500Y-113143750D02*
X184537500Y-113143750D01*
X184537500Y-113368750D02*
X186937500Y-113368750D01*
X186937500Y-112968750D02*
X184537500Y-112968750D01*
X186937500Y-112793750D02*
X184537500Y-112793750D01*
X186937500Y-112618750D02*
X184537500Y-112618750D01*
G04 #@! TO.C,D17*
X198843750Y-111812500D02*
X196443750Y-111812500D01*
X198843750Y-111987500D02*
X196443750Y-111987500D01*
X198843750Y-112162500D02*
X196443750Y-112162500D01*
X196443750Y-112562500D02*
X198843750Y-112562500D01*
X198843750Y-112337500D02*
X196443750Y-112337500D01*
X198843750Y-112462500D02*
X196443750Y-112462500D01*
X198843750Y-112537500D02*
X198843750Y-106737500D01*
X198843750Y-106737500D02*
X196443750Y-106737500D01*
X196443750Y-106737500D02*
X196443750Y-112537500D01*
G04 #@! TO.C,D18*
X210731250Y-105931250D02*
X210731250Y-111731250D01*
X213131250Y-105931250D02*
X210731250Y-105931250D01*
X213131250Y-111731250D02*
X213131250Y-105931250D01*
X213131250Y-111656250D02*
X210731250Y-111656250D01*
X213131250Y-111531250D02*
X210731250Y-111531250D01*
X210731250Y-111756250D02*
X213131250Y-111756250D01*
X213131250Y-111356250D02*
X210731250Y-111356250D01*
X213131250Y-111181250D02*
X210731250Y-111181250D01*
X213131250Y-111006250D02*
X210731250Y-111006250D01*
G04 #@! TO.C,D19*
X229800000Y-111006250D02*
X227400000Y-111006250D01*
X229800000Y-111181250D02*
X227400000Y-111181250D01*
X229800000Y-111356250D02*
X227400000Y-111356250D01*
X227400000Y-111756250D02*
X229800000Y-111756250D01*
X229800000Y-111531250D02*
X227400000Y-111531250D01*
X229800000Y-111656250D02*
X227400000Y-111656250D01*
X229800000Y-111731250D02*
X229800000Y-105931250D01*
X229800000Y-105931250D02*
X227400000Y-105931250D01*
X227400000Y-105931250D02*
X227400000Y-111731250D01*
G04 #@! TO.C,D20*
X127705000Y-128485000D02*
X127705000Y-134285000D01*
X130105000Y-128485000D02*
X127705000Y-128485000D01*
X130105000Y-134285000D02*
X130105000Y-128485000D01*
X130105000Y-134210000D02*
X127705000Y-134210000D01*
X130105000Y-134085000D02*
X127705000Y-134085000D01*
X127705000Y-134310000D02*
X130105000Y-134310000D01*
X130105000Y-133910000D02*
X127705000Y-133910000D01*
X130105000Y-133735000D02*
X127705000Y-133735000D01*
X130105000Y-133560000D02*
X127705000Y-133560000D01*
G04 #@! TO.C,M2*
D12*
X155499404Y-49469523D02*
X155499404Y-48199523D01*
X155922738Y-49106666D01*
X156346071Y-48199523D01*
X156346071Y-49469523D01*
X156890357Y-48320476D02*
X156950833Y-48260000D01*
X157071785Y-48199523D01*
X157374166Y-48199523D01*
X157495119Y-48260000D01*
X157555595Y-48320476D01*
X157616071Y-48441428D01*
X157616071Y-48562380D01*
X157555595Y-48743809D01*
X156829880Y-49469523D01*
X157616071Y-49469523D01*
X147425833Y-51011666D02*
X148030595Y-51011666D01*
X147304880Y-51374523D02*
X147728214Y-50104523D01*
X148151547Y-51374523D01*
X149300595Y-51374523D02*
X148877261Y-50769761D01*
X148574880Y-51374523D02*
X148574880Y-50104523D01*
X149058690Y-50104523D01*
X149179642Y-50165000D01*
X149240119Y-50225476D01*
X149300595Y-50346428D01*
X149300595Y-50527857D01*
X149240119Y-50648809D01*
X149179642Y-50709285D01*
X149058690Y-50769761D01*
X148574880Y-50769761D01*
X149844880Y-51374523D02*
X149844880Y-50104523D01*
X150147261Y-50104523D01*
X150328690Y-50165000D01*
X150449642Y-50285952D01*
X150510119Y-50406904D01*
X150570595Y-50648809D01*
X150570595Y-50830238D01*
X150510119Y-51072142D01*
X150449642Y-51193095D01*
X150328690Y-51314047D01*
X150147261Y-51374523D01*
X149844880Y-51374523D01*
X151114880Y-50104523D02*
X151114880Y-51132619D01*
X151175357Y-51253571D01*
X151235833Y-51314047D01*
X151356785Y-51374523D01*
X151598690Y-51374523D01*
X151719642Y-51314047D01*
X151780119Y-51253571D01*
X151840595Y-51132619D01*
X151840595Y-50104523D01*
X152445357Y-51374523D02*
X152445357Y-50104523D01*
X153050119Y-51374523D02*
X153050119Y-50104523D01*
X153775833Y-51374523D01*
X153775833Y-50104523D01*
X154622500Y-50104523D02*
X154864404Y-50104523D01*
X154985357Y-50165000D01*
X155106309Y-50285952D01*
X155166785Y-50527857D01*
X155166785Y-50951190D01*
X155106309Y-51193095D01*
X154985357Y-51314047D01*
X154864404Y-51374523D01*
X154622500Y-51374523D01*
X154501547Y-51314047D01*
X154380595Y-51193095D01*
X154320119Y-50951190D01*
X154320119Y-50527857D01*
X154380595Y-50285952D01*
X154501547Y-50165000D01*
X154622500Y-50104523D01*
X155408690Y-51495476D02*
X156376309Y-51495476D01*
X156678690Y-51374523D02*
X156678690Y-50104523D01*
X157162500Y-50104523D01*
X157283452Y-50165000D01*
X157343928Y-50225476D01*
X157404404Y-50346428D01*
X157404404Y-50527857D01*
X157343928Y-50648809D01*
X157283452Y-50709285D01*
X157162500Y-50769761D01*
X156678690Y-50769761D01*
X158674404Y-51374523D02*
X158251071Y-50769761D01*
X157948690Y-51374523D02*
X157948690Y-50104523D01*
X158432500Y-50104523D01*
X158553452Y-50165000D01*
X158613928Y-50225476D01*
X158674404Y-50346428D01*
X158674404Y-50527857D01*
X158613928Y-50648809D01*
X158553452Y-50709285D01*
X158432500Y-50769761D01*
X157948690Y-50769761D01*
X159460595Y-50104523D02*
X159702500Y-50104523D01*
X159823452Y-50165000D01*
X159944404Y-50285952D01*
X160004880Y-50527857D01*
X160004880Y-50951190D01*
X159944404Y-51193095D01*
X159823452Y-51314047D01*
X159702500Y-51374523D01*
X159460595Y-51374523D01*
X159339642Y-51314047D01*
X159218690Y-51193095D01*
X159158214Y-50951190D01*
X159158214Y-50527857D01*
X159218690Y-50285952D01*
X159339642Y-50165000D01*
X159460595Y-50104523D01*
X160246785Y-51495476D02*
X161214404Y-51495476D01*
X161516785Y-51374523D02*
X161516785Y-50104523D01*
X161940119Y-51011666D01*
X162363452Y-50104523D01*
X162363452Y-51374523D01*
X162968214Y-51374523D02*
X162968214Y-50104523D01*
X164298690Y-51253571D02*
X164238214Y-51314047D01*
X164056785Y-51374523D01*
X163935833Y-51374523D01*
X163754404Y-51314047D01*
X163633452Y-51193095D01*
X163572976Y-51072142D01*
X163512500Y-50830238D01*
X163512500Y-50648809D01*
X163572976Y-50406904D01*
X163633452Y-50285952D01*
X163754404Y-50165000D01*
X163935833Y-50104523D01*
X164056785Y-50104523D01*
X164238214Y-50165000D01*
X164298690Y-50225476D01*
X165568690Y-51374523D02*
X165145357Y-50769761D01*
X164842976Y-51374523D02*
X164842976Y-50104523D01*
X165326785Y-50104523D01*
X165447738Y-50165000D01*
X165508214Y-50225476D01*
X165568690Y-50346428D01*
X165568690Y-50527857D01*
X165508214Y-50648809D01*
X165447738Y-50709285D01*
X165326785Y-50769761D01*
X164842976Y-50769761D01*
X166354880Y-50104523D02*
X166596785Y-50104523D01*
X166717738Y-50165000D01*
X166838690Y-50285952D01*
X166899166Y-50527857D01*
X166899166Y-50951190D01*
X166838690Y-51193095D01*
X166717738Y-51314047D01*
X166596785Y-51374523D01*
X166354880Y-51374523D01*
X166233928Y-51314047D01*
X166112976Y-51193095D01*
X166052500Y-50951190D01*
X166052500Y-50527857D01*
X166112976Y-50285952D01*
X166233928Y-50165000D01*
X166354880Y-50104523D01*
G04 #@! TO.C,D1*
D13*
X65111904Y-47840773D02*
X64311904Y-47840773D01*
X64311904Y-48031250D01*
X64350000Y-48145535D01*
X64426190Y-48221726D01*
X64502380Y-48259821D01*
X64654761Y-48297916D01*
X64769047Y-48297916D01*
X64921428Y-48259821D01*
X64997619Y-48221726D01*
X65073809Y-48145535D01*
X65111904Y-48031250D01*
X65111904Y-47840773D01*
X65111904Y-49059821D02*
X65111904Y-48602678D01*
X65111904Y-48831250D02*
X64311904Y-48831250D01*
X64426190Y-48755059D01*
X64502380Y-48678869D01*
X64540476Y-48602678D01*
G04 #@! TO.C,D2*
X84161904Y-47840773D02*
X83361904Y-47840773D01*
X83361904Y-48031250D01*
X83400000Y-48145535D01*
X83476190Y-48221726D01*
X83552380Y-48259821D01*
X83704761Y-48297916D01*
X83819047Y-48297916D01*
X83971428Y-48259821D01*
X84047619Y-48221726D01*
X84123809Y-48145535D01*
X84161904Y-48031250D01*
X84161904Y-47840773D01*
X83438095Y-48602678D02*
X83400000Y-48640773D01*
X83361904Y-48716964D01*
X83361904Y-48907440D01*
X83400000Y-48983630D01*
X83438095Y-49021726D01*
X83514285Y-49059821D01*
X83590476Y-49059821D01*
X83704761Y-49021726D01*
X84161904Y-48564583D01*
X84161904Y-49059821D01*
G04 #@! TO.C,D3*
X98449404Y-47840773D02*
X97649404Y-47840773D01*
X97649404Y-48031250D01*
X97687500Y-48145535D01*
X97763690Y-48221726D01*
X97839880Y-48259821D01*
X97992261Y-48297916D01*
X98106547Y-48297916D01*
X98258928Y-48259821D01*
X98335119Y-48221726D01*
X98411309Y-48145535D01*
X98449404Y-48031250D01*
X98449404Y-47840773D01*
X97649404Y-48564583D02*
X97649404Y-49059821D01*
X97954166Y-48793154D01*
X97954166Y-48907440D01*
X97992261Y-48983630D01*
X98030357Y-49021726D01*
X98106547Y-49059821D01*
X98297023Y-49059821D01*
X98373214Y-49021726D01*
X98411309Y-48983630D01*
X98449404Y-48907440D01*
X98449404Y-48678869D01*
X98411309Y-48602678D01*
X98373214Y-48564583D01*
G04 #@! TO.C,D4*
X115118154Y-48609523D02*
X114318154Y-48609523D01*
X114318154Y-48800000D01*
X114356250Y-48914285D01*
X114432440Y-48990476D01*
X114508630Y-49028571D01*
X114661011Y-49066666D01*
X114775297Y-49066666D01*
X114927678Y-49028571D01*
X115003869Y-48990476D01*
X115080059Y-48914285D01*
X115118154Y-48800000D01*
X115118154Y-48609523D01*
X114584821Y-49752380D02*
X115118154Y-49752380D01*
X114280059Y-49561904D02*
X114851488Y-49371428D01*
X114851488Y-49866666D01*
G04 #@! TO.C,D5*
X231799404Y-35128273D02*
X230999404Y-35128273D01*
X230999404Y-35318750D01*
X231037500Y-35433035D01*
X231113690Y-35509226D01*
X231189880Y-35547321D01*
X231342261Y-35585416D01*
X231456547Y-35585416D01*
X231608928Y-35547321D01*
X231685119Y-35509226D01*
X231761309Y-35433035D01*
X231799404Y-35318750D01*
X231799404Y-35128273D01*
X230999404Y-36309226D02*
X230999404Y-35928273D01*
X231380357Y-35890178D01*
X231342261Y-35928273D01*
X231304166Y-36004464D01*
X231304166Y-36194940D01*
X231342261Y-36271130D01*
X231380357Y-36309226D01*
X231456547Y-36347321D01*
X231647023Y-36347321D01*
X231723214Y-36309226D01*
X231761309Y-36271130D01*
X231799404Y-36194940D01*
X231799404Y-36004464D01*
X231761309Y-35928273D01*
X231723214Y-35890178D01*
G04 #@! TO.C,D6*
X78486904Y-54984523D02*
X77686904Y-54984523D01*
X77686904Y-55175000D01*
X77725000Y-55289285D01*
X77801190Y-55365476D01*
X77877380Y-55403571D01*
X78029761Y-55441666D01*
X78144047Y-55441666D01*
X78296428Y-55403571D01*
X78372619Y-55365476D01*
X78448809Y-55289285D01*
X78486904Y-55175000D01*
X78486904Y-54984523D01*
X77686904Y-56127380D02*
X77686904Y-55975000D01*
X77725000Y-55898809D01*
X77763095Y-55860714D01*
X77877380Y-55784523D01*
X78029761Y-55746428D01*
X78334523Y-55746428D01*
X78410714Y-55784523D01*
X78448809Y-55822619D01*
X78486904Y-55898809D01*
X78486904Y-56051190D01*
X78448809Y-56127380D01*
X78410714Y-56165476D01*
X78334523Y-56203571D01*
X78144047Y-56203571D01*
X78067857Y-56165476D01*
X78029761Y-56127380D01*
X77991666Y-56051190D01*
X77991666Y-55898809D01*
X78029761Y-55822619D01*
X78067857Y-55784523D01*
X78144047Y-55746428D01*
G04 #@! TO.C,D7*
X95155654Y-55753273D02*
X94355654Y-55753273D01*
X94355654Y-55943750D01*
X94393750Y-56058035D01*
X94469940Y-56134226D01*
X94546130Y-56172321D01*
X94698511Y-56210416D01*
X94812797Y-56210416D01*
X94965178Y-56172321D01*
X95041369Y-56134226D01*
X95117559Y-56058035D01*
X95155654Y-55943750D01*
X95155654Y-55753273D01*
X94355654Y-56477083D02*
X94355654Y-57010416D01*
X95155654Y-56667559D01*
G04 #@! TO.C,D8*
X111824404Y-55753273D02*
X111024404Y-55753273D01*
X111024404Y-55943750D01*
X111062500Y-56058035D01*
X111138690Y-56134226D01*
X111214880Y-56172321D01*
X111367261Y-56210416D01*
X111481547Y-56210416D01*
X111633928Y-56172321D01*
X111710119Y-56134226D01*
X111786309Y-56058035D01*
X111824404Y-55943750D01*
X111824404Y-55753273D01*
X111367261Y-56667559D02*
X111329166Y-56591369D01*
X111291071Y-56553273D01*
X111214880Y-56515178D01*
X111176785Y-56515178D01*
X111100595Y-56553273D01*
X111062500Y-56591369D01*
X111024404Y-56667559D01*
X111024404Y-56819940D01*
X111062500Y-56896130D01*
X111100595Y-56934226D01*
X111176785Y-56972321D01*
X111214880Y-56972321D01*
X111291071Y-56934226D01*
X111329166Y-56896130D01*
X111367261Y-56819940D01*
X111367261Y-56667559D01*
X111405357Y-56591369D01*
X111443452Y-56553273D01*
X111519642Y-56515178D01*
X111672023Y-56515178D01*
X111748214Y-56553273D01*
X111786309Y-56591369D01*
X111824404Y-56667559D01*
X111824404Y-56819940D01*
X111786309Y-56896130D01*
X111748214Y-56934226D01*
X111672023Y-56972321D01*
X111519642Y-56972321D01*
X111443452Y-56934226D01*
X111405357Y-56896130D01*
X111367261Y-56819940D01*
G04 #@! TO.C,D9*
X185643154Y-55753273D02*
X184843154Y-55753273D01*
X184843154Y-55943750D01*
X184881250Y-56058035D01*
X184957440Y-56134226D01*
X185033630Y-56172321D01*
X185186011Y-56210416D01*
X185300297Y-56210416D01*
X185452678Y-56172321D01*
X185528869Y-56134226D01*
X185605059Y-56058035D01*
X185643154Y-55943750D01*
X185643154Y-55753273D01*
X185643154Y-56591369D02*
X185643154Y-56743750D01*
X185605059Y-56819940D01*
X185566964Y-56858035D01*
X185452678Y-56934226D01*
X185300297Y-56972321D01*
X184995535Y-56972321D01*
X184919345Y-56934226D01*
X184881250Y-56896130D01*
X184843154Y-56819940D01*
X184843154Y-56667559D01*
X184881250Y-56591369D01*
X184919345Y-56553273D01*
X184995535Y-56515178D01*
X185186011Y-56515178D01*
X185262202Y-56553273D01*
X185300297Y-56591369D01*
X185338392Y-56667559D01*
X185338392Y-56819940D01*
X185300297Y-56896130D01*
X185262202Y-56934226D01*
X185186011Y-56972321D01*
G04 #@! TO.C,D10*
X199930654Y-54116071D02*
X199130654Y-54116071D01*
X199130654Y-54306547D01*
X199168750Y-54420833D01*
X199244940Y-54497023D01*
X199321130Y-54535119D01*
X199473511Y-54573214D01*
X199587797Y-54573214D01*
X199740178Y-54535119D01*
X199816369Y-54497023D01*
X199892559Y-54420833D01*
X199930654Y-54306547D01*
X199930654Y-54116071D01*
X199930654Y-55335119D02*
X199930654Y-54877976D01*
X199930654Y-55106547D02*
X199130654Y-55106547D01*
X199244940Y-55030357D01*
X199321130Y-54954166D01*
X199359226Y-54877976D01*
X199130654Y-55830357D02*
X199130654Y-55906547D01*
X199168750Y-55982738D01*
X199206845Y-56020833D01*
X199283035Y-56058928D01*
X199435416Y-56097023D01*
X199625892Y-56097023D01*
X199778273Y-56058928D01*
X199854464Y-56020833D01*
X199892559Y-55982738D01*
X199930654Y-55906547D01*
X199930654Y-55830357D01*
X199892559Y-55754166D01*
X199854464Y-55716071D01*
X199778273Y-55677976D01*
X199625892Y-55639880D01*
X199435416Y-55639880D01*
X199283035Y-55677976D01*
X199206845Y-55716071D01*
X199168750Y-55754166D01*
X199130654Y-55830357D01*
G04 #@! TO.C,D11*
X215011904Y-54578571D02*
X214211904Y-54578571D01*
X214211904Y-54769047D01*
X214250000Y-54883333D01*
X214326190Y-54959523D01*
X214402380Y-54997619D01*
X214554761Y-55035714D01*
X214669047Y-55035714D01*
X214821428Y-54997619D01*
X214897619Y-54959523D01*
X214973809Y-54883333D01*
X215011904Y-54769047D01*
X215011904Y-54578571D01*
X215011904Y-55797619D02*
X215011904Y-55340476D01*
X215011904Y-55569047D02*
X214211904Y-55569047D01*
X214326190Y-55492857D01*
X214402380Y-55416666D01*
X214440476Y-55340476D01*
X215011904Y-56559523D02*
X215011904Y-56102380D01*
X215011904Y-56330952D02*
X214211904Y-56330952D01*
X214326190Y-56254761D01*
X214402380Y-56178571D01*
X214440476Y-56102380D01*
G04 #@! TO.C,D12*
X234696904Y-55213571D02*
X233896904Y-55213571D01*
X233896904Y-55404047D01*
X233935000Y-55518333D01*
X234011190Y-55594523D01*
X234087380Y-55632619D01*
X234239761Y-55670714D01*
X234354047Y-55670714D01*
X234506428Y-55632619D01*
X234582619Y-55594523D01*
X234658809Y-55518333D01*
X234696904Y-55404047D01*
X234696904Y-55213571D01*
X234696904Y-56432619D02*
X234696904Y-55975476D01*
X234696904Y-56204047D02*
X233896904Y-56204047D01*
X234011190Y-56127857D01*
X234087380Y-56051666D01*
X234125476Y-55975476D01*
X233973095Y-56737380D02*
X233935000Y-56775476D01*
X233896904Y-56851666D01*
X233896904Y-57042142D01*
X233935000Y-57118333D01*
X233973095Y-57156428D01*
X234049285Y-57194523D01*
X234125476Y-57194523D01*
X234239761Y-57156428D01*
X234696904Y-56699285D01*
X234696904Y-57194523D01*
G04 #@! TO.C,D13*
X93686904Y-110141071D02*
X92886904Y-110141071D01*
X92886904Y-110331547D01*
X92925000Y-110445833D01*
X93001190Y-110522023D01*
X93077380Y-110560119D01*
X93229761Y-110598214D01*
X93344047Y-110598214D01*
X93496428Y-110560119D01*
X93572619Y-110522023D01*
X93648809Y-110445833D01*
X93686904Y-110331547D01*
X93686904Y-110141071D01*
X93686904Y-111360119D02*
X93686904Y-110902976D01*
X93686904Y-111131547D02*
X92886904Y-111131547D01*
X93001190Y-111055357D01*
X93077380Y-110979166D01*
X93115476Y-110902976D01*
X92886904Y-111626785D02*
X92886904Y-112122023D01*
X93191666Y-111855357D01*
X93191666Y-111969642D01*
X93229761Y-112045833D01*
X93267857Y-112083928D01*
X93344047Y-112122023D01*
X93534523Y-112122023D01*
X93610714Y-112083928D01*
X93648809Y-112045833D01*
X93686904Y-111969642D01*
X93686904Y-111741071D01*
X93648809Y-111664880D01*
X93610714Y-111626785D01*
G04 #@! TO.C,D14*
X107974404Y-109372321D02*
X107174404Y-109372321D01*
X107174404Y-109562797D01*
X107212500Y-109677083D01*
X107288690Y-109753273D01*
X107364880Y-109791369D01*
X107517261Y-109829464D01*
X107631547Y-109829464D01*
X107783928Y-109791369D01*
X107860119Y-109753273D01*
X107936309Y-109677083D01*
X107974404Y-109562797D01*
X107974404Y-109372321D01*
X107974404Y-110591369D02*
X107974404Y-110134226D01*
X107974404Y-110362797D02*
X107174404Y-110362797D01*
X107288690Y-110286607D01*
X107364880Y-110210416D01*
X107402976Y-110134226D01*
X107441071Y-111277083D02*
X107974404Y-111277083D01*
X107136309Y-111086607D02*
X107707738Y-110896130D01*
X107707738Y-111391369D01*
G04 #@! TO.C,D15*
X124643154Y-109372321D02*
X123843154Y-109372321D01*
X123843154Y-109562797D01*
X123881250Y-109677083D01*
X123957440Y-109753273D01*
X124033630Y-109791369D01*
X124186011Y-109829464D01*
X124300297Y-109829464D01*
X124452678Y-109791369D01*
X124528869Y-109753273D01*
X124605059Y-109677083D01*
X124643154Y-109562797D01*
X124643154Y-109372321D01*
X124643154Y-110591369D02*
X124643154Y-110134226D01*
X124643154Y-110362797D02*
X123843154Y-110362797D01*
X123957440Y-110286607D01*
X124033630Y-110210416D01*
X124071726Y-110134226D01*
X123843154Y-111315178D02*
X123843154Y-110934226D01*
X124224107Y-110896130D01*
X124186011Y-110934226D01*
X124147916Y-111010416D01*
X124147916Y-111200892D01*
X124186011Y-111277083D01*
X124224107Y-111315178D01*
X124300297Y-111353273D01*
X124490773Y-111353273D01*
X124566964Y-111315178D01*
X124605059Y-111277083D01*
X124643154Y-111200892D01*
X124643154Y-111010416D01*
X124605059Y-110934226D01*
X124566964Y-110896130D01*
G04 #@! TO.C,D16*
X184174404Y-109372321D02*
X183374404Y-109372321D01*
X183374404Y-109562797D01*
X183412500Y-109677083D01*
X183488690Y-109753273D01*
X183564880Y-109791369D01*
X183717261Y-109829464D01*
X183831547Y-109829464D01*
X183983928Y-109791369D01*
X184060119Y-109753273D01*
X184136309Y-109677083D01*
X184174404Y-109562797D01*
X184174404Y-109372321D01*
X184174404Y-110591369D02*
X184174404Y-110134226D01*
X184174404Y-110362797D02*
X183374404Y-110362797D01*
X183488690Y-110286607D01*
X183564880Y-110210416D01*
X183602976Y-110134226D01*
X183374404Y-111277083D02*
X183374404Y-111124702D01*
X183412500Y-111048511D01*
X183450595Y-111010416D01*
X183564880Y-110934226D01*
X183717261Y-110896130D01*
X184022023Y-110896130D01*
X184098214Y-110934226D01*
X184136309Y-110972321D01*
X184174404Y-111048511D01*
X184174404Y-111200892D01*
X184136309Y-111277083D01*
X184098214Y-111315178D01*
X184022023Y-111353273D01*
X183831547Y-111353273D01*
X183755357Y-111315178D01*
X183717261Y-111277083D01*
X183679166Y-111200892D01*
X183679166Y-111048511D01*
X183717261Y-110972321D01*
X183755357Y-110934226D01*
X183831547Y-110896130D01*
G04 #@! TO.C,D17*
X196080654Y-108566071D02*
X195280654Y-108566071D01*
X195280654Y-108756547D01*
X195318750Y-108870833D01*
X195394940Y-108947023D01*
X195471130Y-108985119D01*
X195623511Y-109023214D01*
X195737797Y-109023214D01*
X195890178Y-108985119D01*
X195966369Y-108947023D01*
X196042559Y-108870833D01*
X196080654Y-108756547D01*
X196080654Y-108566071D01*
X196080654Y-109785119D02*
X196080654Y-109327976D01*
X196080654Y-109556547D02*
X195280654Y-109556547D01*
X195394940Y-109480357D01*
X195471130Y-109404166D01*
X195509226Y-109327976D01*
X195280654Y-110051785D02*
X195280654Y-110585119D01*
X196080654Y-110242261D01*
G04 #@! TO.C,D18*
X210368154Y-107759821D02*
X209568154Y-107759821D01*
X209568154Y-107950297D01*
X209606250Y-108064583D01*
X209682440Y-108140773D01*
X209758630Y-108178869D01*
X209911011Y-108216964D01*
X210025297Y-108216964D01*
X210177678Y-108178869D01*
X210253869Y-108140773D01*
X210330059Y-108064583D01*
X210368154Y-107950297D01*
X210368154Y-107759821D01*
X210368154Y-108978869D02*
X210368154Y-108521726D01*
X210368154Y-108750297D02*
X209568154Y-108750297D01*
X209682440Y-108674107D01*
X209758630Y-108597916D01*
X209796726Y-108521726D01*
X209911011Y-109436011D02*
X209872916Y-109359821D01*
X209834821Y-109321726D01*
X209758630Y-109283630D01*
X209720535Y-109283630D01*
X209644345Y-109321726D01*
X209606250Y-109359821D01*
X209568154Y-109436011D01*
X209568154Y-109588392D01*
X209606250Y-109664583D01*
X209644345Y-109702678D01*
X209720535Y-109740773D01*
X209758630Y-109740773D01*
X209834821Y-109702678D01*
X209872916Y-109664583D01*
X209911011Y-109588392D01*
X209911011Y-109436011D01*
X209949107Y-109359821D01*
X209987202Y-109321726D01*
X210063392Y-109283630D01*
X210215773Y-109283630D01*
X210291964Y-109321726D01*
X210330059Y-109359821D01*
X210368154Y-109436011D01*
X210368154Y-109588392D01*
X210330059Y-109664583D01*
X210291964Y-109702678D01*
X210215773Y-109740773D01*
X210063392Y-109740773D01*
X209987202Y-109702678D01*
X209949107Y-109664583D01*
X209911011Y-109588392D01*
G04 #@! TO.C,D19*
X227036904Y-107759821D02*
X226236904Y-107759821D01*
X226236904Y-107950297D01*
X226275000Y-108064583D01*
X226351190Y-108140773D01*
X226427380Y-108178869D01*
X226579761Y-108216964D01*
X226694047Y-108216964D01*
X226846428Y-108178869D01*
X226922619Y-108140773D01*
X226998809Y-108064583D01*
X227036904Y-107950297D01*
X227036904Y-107759821D01*
X227036904Y-108978869D02*
X227036904Y-108521726D01*
X227036904Y-108750297D02*
X226236904Y-108750297D01*
X226351190Y-108674107D01*
X226427380Y-108597916D01*
X226465476Y-108521726D01*
X227036904Y-109359821D02*
X227036904Y-109512202D01*
X226998809Y-109588392D01*
X226960714Y-109626488D01*
X226846428Y-109702678D01*
X226694047Y-109740773D01*
X226389285Y-109740773D01*
X226313095Y-109702678D01*
X226275000Y-109664583D01*
X226236904Y-109588392D01*
X226236904Y-109436011D01*
X226275000Y-109359821D01*
X226313095Y-109321726D01*
X226389285Y-109283630D01*
X226579761Y-109283630D01*
X226655952Y-109321726D01*
X226694047Y-109359821D01*
X226732142Y-109436011D01*
X226732142Y-109588392D01*
X226694047Y-109664583D01*
X226655952Y-109702678D01*
X226579761Y-109740773D01*
G04 #@! TO.C,D20*
X127341904Y-130313571D02*
X126541904Y-130313571D01*
X126541904Y-130504047D01*
X126580000Y-130618333D01*
X126656190Y-130694523D01*
X126732380Y-130732619D01*
X126884761Y-130770714D01*
X126999047Y-130770714D01*
X127151428Y-130732619D01*
X127227619Y-130694523D01*
X127303809Y-130618333D01*
X127341904Y-130504047D01*
X127341904Y-130313571D01*
X126618095Y-131075476D02*
X126580000Y-131113571D01*
X126541904Y-131189761D01*
X126541904Y-131380238D01*
X126580000Y-131456428D01*
X126618095Y-131494523D01*
X126694285Y-131532619D01*
X126770476Y-131532619D01*
X126884761Y-131494523D01*
X127341904Y-131037380D01*
X127341904Y-131532619D01*
X126541904Y-132027857D02*
X126541904Y-132104047D01*
X126580000Y-132180238D01*
X126618095Y-132218333D01*
X126694285Y-132256428D01*
X126846666Y-132294523D01*
X127037142Y-132294523D01*
X127189523Y-132256428D01*
X127265714Y-132218333D01*
X127303809Y-132180238D01*
X127341904Y-132104047D01*
X127341904Y-132027857D01*
X127303809Y-131951666D01*
X127265714Y-131913571D01*
X127189523Y-131875476D01*
X127037142Y-131837380D01*
X126846666Y-131837380D01*
X126694285Y-131875476D01*
X126618095Y-131913571D01*
X126580000Y-131951666D01*
X126541904Y-132027857D01*
G04 #@! TO.C,K2*
D11*
X57888095Y-38107880D02*
X57888095Y-37107880D01*
X57316666Y-38107880D02*
X57745238Y-37536452D01*
X57316666Y-37107880D02*
X57888095Y-37679309D01*
X56935714Y-37203119D02*
X56888095Y-37155500D01*
X56792857Y-37107880D01*
X56554761Y-37107880D01*
X56459523Y-37155500D01*
X56411904Y-37203119D01*
X56364285Y-37298357D01*
X56364285Y-37393595D01*
X56411904Y-37536452D01*
X56983333Y-38107880D01*
X56364285Y-38107880D01*
G04 #@! TO.C,K3*
X76938095Y-38107880D02*
X76938095Y-37107880D01*
X76366666Y-38107880D02*
X76795238Y-37536452D01*
X76366666Y-37107880D02*
X76938095Y-37679309D01*
X76033333Y-37107880D02*
X75414285Y-37107880D01*
X75747619Y-37488833D01*
X75604761Y-37488833D01*
X75509523Y-37536452D01*
X75461904Y-37584071D01*
X75414285Y-37679309D01*
X75414285Y-37917404D01*
X75461904Y-38012642D01*
X75509523Y-38060261D01*
X75604761Y-38107880D01*
X75890476Y-38107880D01*
X75985714Y-38060261D01*
X76033333Y-38012642D01*
G04 #@! TO.C,K4*
X95988095Y-38107880D02*
X95988095Y-37107880D01*
X95416666Y-38107880D02*
X95845238Y-37536452D01*
X95416666Y-37107880D02*
X95988095Y-37679309D01*
X94559523Y-37441214D02*
X94559523Y-38107880D01*
X94797619Y-37060261D02*
X95035714Y-37774547D01*
X94416666Y-37774547D01*
G04 #@! TO.C,K5*
X115038095Y-38107880D02*
X115038095Y-37107880D01*
X114466666Y-38107880D02*
X114895238Y-37536452D01*
X114466666Y-37107880D02*
X115038095Y-37679309D01*
X113561904Y-37107880D02*
X114038095Y-37107880D01*
X114085714Y-37584071D01*
X114038095Y-37536452D01*
X113942857Y-37488833D01*
X113704761Y-37488833D01*
X113609523Y-37536452D01*
X113561904Y-37584071D01*
X113514285Y-37679309D01*
X113514285Y-37917404D01*
X113561904Y-38012642D01*
X113609523Y-38060261D01*
X113704761Y-38107880D01*
X113942857Y-38107880D01*
X114038095Y-38060261D01*
X114085714Y-38012642D01*
G04 #@! TO.C,K6*
X246006845Y-38107880D02*
X246006845Y-37107880D01*
X245435416Y-38107880D02*
X245863988Y-37536452D01*
X245435416Y-37107880D02*
X246006845Y-37679309D01*
X244578273Y-37107880D02*
X244768750Y-37107880D01*
X244863988Y-37155500D01*
X244911607Y-37203119D01*
X245006845Y-37345976D01*
X245054464Y-37536452D01*
X245054464Y-37917404D01*
X245006845Y-38012642D01*
X244959226Y-38060261D01*
X244863988Y-38107880D01*
X244673511Y-38107880D01*
X244578273Y-38060261D01*
X244530654Y-38012642D01*
X244483035Y-37917404D01*
X244483035Y-37679309D01*
X244530654Y-37584071D01*
X244578273Y-37536452D01*
X244673511Y-37488833D01*
X244863988Y-37488833D01*
X244959226Y-37536452D01*
X245006845Y-37584071D01*
X245054464Y-37679309D01*
G04 #@! TO.C,K7*
X76938095Y-76207880D02*
X76938095Y-75207880D01*
X76366666Y-76207880D02*
X76795238Y-75636452D01*
X76366666Y-75207880D02*
X76938095Y-75779309D01*
X76033333Y-75207880D02*
X75366666Y-75207880D01*
X75795238Y-76207880D01*
G04 #@! TO.C,K8*
X95988095Y-76207880D02*
X95988095Y-75207880D01*
X95416666Y-76207880D02*
X95845238Y-75636452D01*
X95416666Y-75207880D02*
X95988095Y-75779309D01*
X94845238Y-75636452D02*
X94940476Y-75588833D01*
X94988095Y-75541214D01*
X95035714Y-75445976D01*
X95035714Y-75398357D01*
X94988095Y-75303119D01*
X94940476Y-75255500D01*
X94845238Y-75207880D01*
X94654761Y-75207880D01*
X94559523Y-75255500D01*
X94511904Y-75303119D01*
X94464285Y-75398357D01*
X94464285Y-75445976D01*
X94511904Y-75541214D01*
X94559523Y-75588833D01*
X94654761Y-75636452D01*
X94845238Y-75636452D01*
X94940476Y-75684071D01*
X94988095Y-75731690D01*
X95035714Y-75826928D01*
X95035714Y-76017404D01*
X94988095Y-76112642D01*
X94940476Y-76160261D01*
X94845238Y-76207880D01*
X94654761Y-76207880D01*
X94559523Y-76160261D01*
X94511904Y-76112642D01*
X94464285Y-76017404D01*
X94464285Y-75826928D01*
X94511904Y-75731690D01*
X94559523Y-75684071D01*
X94654761Y-75636452D01*
G04 #@! TO.C,K9*
X115038095Y-76207880D02*
X115038095Y-75207880D01*
X114466666Y-76207880D02*
X114895238Y-75636452D01*
X114466666Y-75207880D02*
X115038095Y-75779309D01*
X113990476Y-76207880D02*
X113800000Y-76207880D01*
X113704761Y-76160261D01*
X113657142Y-76112642D01*
X113561904Y-75969785D01*
X113514285Y-75779309D01*
X113514285Y-75398357D01*
X113561904Y-75303119D01*
X113609523Y-75255500D01*
X113704761Y-75207880D01*
X113895238Y-75207880D01*
X113990476Y-75255500D01*
X114038095Y-75303119D01*
X114085714Y-75398357D01*
X114085714Y-75636452D01*
X114038095Y-75731690D01*
X113990476Y-75779309D01*
X113895238Y-75826928D01*
X113704761Y-75826928D01*
X113609523Y-75779309D01*
X113561904Y-75731690D01*
X113514285Y-75636452D01*
G04 #@! TO.C,K10*
X189333035Y-76207880D02*
X189333035Y-75207880D01*
X188761607Y-76207880D02*
X189190178Y-75636452D01*
X188761607Y-75207880D02*
X189333035Y-75779309D01*
X187809226Y-76207880D02*
X188380654Y-76207880D01*
X188094940Y-76207880D02*
X188094940Y-75207880D01*
X188190178Y-75350738D01*
X188285416Y-75445976D01*
X188380654Y-75493595D01*
X187190178Y-75207880D02*
X187094940Y-75207880D01*
X186999702Y-75255500D01*
X186952083Y-75303119D01*
X186904464Y-75398357D01*
X186856845Y-75588833D01*
X186856845Y-75826928D01*
X186904464Y-76017404D01*
X186952083Y-76112642D01*
X186999702Y-76160261D01*
X187094940Y-76207880D01*
X187190178Y-76207880D01*
X187285416Y-76160261D01*
X187333035Y-76112642D01*
X187380654Y-76017404D01*
X187428273Y-75826928D01*
X187428273Y-75588833D01*
X187380654Y-75398357D01*
X187333035Y-75303119D01*
X187285416Y-75255500D01*
X187190178Y-75207880D01*
G04 #@! TO.C,K11*
X208383035Y-76207880D02*
X208383035Y-75207880D01*
X207811607Y-76207880D02*
X208240178Y-75636452D01*
X207811607Y-75207880D02*
X208383035Y-75779309D01*
X206859226Y-76207880D02*
X207430654Y-76207880D01*
X207144940Y-76207880D02*
X207144940Y-75207880D01*
X207240178Y-75350738D01*
X207335416Y-75445976D01*
X207430654Y-75493595D01*
X205906845Y-76207880D02*
X206478273Y-76207880D01*
X206192559Y-76207880D02*
X206192559Y-75207880D01*
X206287797Y-75350738D01*
X206383035Y-75445976D01*
X206478273Y-75493595D01*
G04 #@! TO.C,K12*
X227433035Y-76207880D02*
X227433035Y-75207880D01*
X226861607Y-76207880D02*
X227290178Y-75636452D01*
X226861607Y-75207880D02*
X227433035Y-75779309D01*
X225909226Y-76207880D02*
X226480654Y-76207880D01*
X226194940Y-76207880D02*
X226194940Y-75207880D01*
X226290178Y-75350738D01*
X226385416Y-75445976D01*
X226480654Y-75493595D01*
X225528273Y-75303119D02*
X225480654Y-75255500D01*
X225385416Y-75207880D01*
X225147321Y-75207880D01*
X225052083Y-75255500D01*
X225004464Y-75303119D01*
X224956845Y-75398357D01*
X224956845Y-75493595D01*
X225004464Y-75636452D01*
X225575892Y-76207880D01*
X224956845Y-76207880D01*
G04 #@! TO.C,K13*
X246483035Y-76207880D02*
X246483035Y-75207880D01*
X245911607Y-76207880D02*
X246340178Y-75636452D01*
X245911607Y-75207880D02*
X246483035Y-75779309D01*
X244959226Y-76207880D02*
X245530654Y-76207880D01*
X245244940Y-76207880D02*
X245244940Y-75207880D01*
X245340178Y-75350738D01*
X245435416Y-75445976D01*
X245530654Y-75493595D01*
X244625892Y-75207880D02*
X244006845Y-75207880D01*
X244340178Y-75588833D01*
X244197321Y-75588833D01*
X244102083Y-75636452D01*
X244054464Y-75684071D01*
X244006845Y-75779309D01*
X244006845Y-76017404D01*
X244054464Y-76112642D01*
X244102083Y-76160261D01*
X244197321Y-76207880D01*
X244483035Y-76207880D01*
X244578273Y-76160261D01*
X244625892Y-76112642D01*
G04 #@! TO.C,K14*
X77414285Y-95257880D02*
X77414285Y-94257880D01*
X76842857Y-95257880D02*
X77271428Y-94686452D01*
X76842857Y-94257880D02*
X77414285Y-94829309D01*
X75890476Y-95257880D02*
X76461904Y-95257880D01*
X76176190Y-95257880D02*
X76176190Y-94257880D01*
X76271428Y-94400738D01*
X76366666Y-94495976D01*
X76461904Y-94543595D01*
X75033333Y-94591214D02*
X75033333Y-95257880D01*
X75271428Y-94210261D02*
X75509523Y-94924547D01*
X74890476Y-94924547D01*
G04 #@! TO.C,K15*
X96464285Y-95257880D02*
X96464285Y-94257880D01*
X95892857Y-95257880D02*
X96321428Y-94686452D01*
X95892857Y-94257880D02*
X96464285Y-94829309D01*
X94940476Y-95257880D02*
X95511904Y-95257880D01*
X95226190Y-95257880D02*
X95226190Y-94257880D01*
X95321428Y-94400738D01*
X95416666Y-94495976D01*
X95511904Y-94543595D01*
X94035714Y-94257880D02*
X94511904Y-94257880D01*
X94559523Y-94734071D01*
X94511904Y-94686452D01*
X94416666Y-94638833D01*
X94178571Y-94638833D01*
X94083333Y-94686452D01*
X94035714Y-94734071D01*
X93988095Y-94829309D01*
X93988095Y-95067404D01*
X94035714Y-95162642D01*
X94083333Y-95210261D01*
X94178571Y-95257880D01*
X94416666Y-95257880D01*
X94511904Y-95210261D01*
X94559523Y-95162642D01*
G04 #@! TO.C,K16*
X115514285Y-95257880D02*
X115514285Y-94257880D01*
X114942857Y-95257880D02*
X115371428Y-94686452D01*
X114942857Y-94257880D02*
X115514285Y-94829309D01*
X113990476Y-95257880D02*
X114561904Y-95257880D01*
X114276190Y-95257880D02*
X114276190Y-94257880D01*
X114371428Y-94400738D01*
X114466666Y-94495976D01*
X114561904Y-94543595D01*
X113133333Y-94257880D02*
X113323809Y-94257880D01*
X113419047Y-94305500D01*
X113466666Y-94353119D01*
X113561904Y-94495976D01*
X113609523Y-94686452D01*
X113609523Y-95067404D01*
X113561904Y-95162642D01*
X113514285Y-95210261D01*
X113419047Y-95257880D01*
X113228571Y-95257880D01*
X113133333Y-95210261D01*
X113085714Y-95162642D01*
X113038095Y-95067404D01*
X113038095Y-94829309D01*
X113085714Y-94734071D01*
X113133333Y-94686452D01*
X113228571Y-94638833D01*
X113419047Y-94638833D01*
X113514285Y-94686452D01*
X113561904Y-94734071D01*
X113609523Y-94829309D01*
G04 #@! TO.C,K17*
X189333035Y-95257880D02*
X189333035Y-94257880D01*
X188761607Y-95257880D02*
X189190178Y-94686452D01*
X188761607Y-94257880D02*
X189333035Y-94829309D01*
X187809226Y-95257880D02*
X188380654Y-95257880D01*
X188094940Y-95257880D02*
X188094940Y-94257880D01*
X188190178Y-94400738D01*
X188285416Y-94495976D01*
X188380654Y-94543595D01*
X187475892Y-94257880D02*
X186809226Y-94257880D01*
X187237797Y-95257880D01*
G04 #@! TO.C,K18*
X208383035Y-95257880D02*
X208383035Y-94257880D01*
X207811607Y-95257880D02*
X208240178Y-94686452D01*
X207811607Y-94257880D02*
X208383035Y-94829309D01*
X206859226Y-95257880D02*
X207430654Y-95257880D01*
X207144940Y-95257880D02*
X207144940Y-94257880D01*
X207240178Y-94400738D01*
X207335416Y-94495976D01*
X207430654Y-94543595D01*
X206287797Y-94686452D02*
X206383035Y-94638833D01*
X206430654Y-94591214D01*
X206478273Y-94495976D01*
X206478273Y-94448357D01*
X206430654Y-94353119D01*
X206383035Y-94305500D01*
X206287797Y-94257880D01*
X206097321Y-94257880D01*
X206002083Y-94305500D01*
X205954464Y-94353119D01*
X205906845Y-94448357D01*
X205906845Y-94495976D01*
X205954464Y-94591214D01*
X206002083Y-94638833D01*
X206097321Y-94686452D01*
X206287797Y-94686452D01*
X206383035Y-94734071D01*
X206430654Y-94781690D01*
X206478273Y-94876928D01*
X206478273Y-95067404D01*
X206430654Y-95162642D01*
X206383035Y-95210261D01*
X206287797Y-95257880D01*
X206097321Y-95257880D01*
X206002083Y-95210261D01*
X205954464Y-95162642D01*
X205906845Y-95067404D01*
X205906845Y-94876928D01*
X205954464Y-94781690D01*
X206002083Y-94734071D01*
X206097321Y-94686452D01*
G04 #@! TO.C,K19*
X227433035Y-95257880D02*
X227433035Y-94257880D01*
X226861607Y-95257880D02*
X227290178Y-94686452D01*
X226861607Y-94257880D02*
X227433035Y-94829309D01*
X225909226Y-95257880D02*
X226480654Y-95257880D01*
X226194940Y-95257880D02*
X226194940Y-94257880D01*
X226290178Y-94400738D01*
X226385416Y-94495976D01*
X226480654Y-94543595D01*
X225433035Y-95257880D02*
X225242559Y-95257880D01*
X225147321Y-95210261D01*
X225099702Y-95162642D01*
X225004464Y-95019785D01*
X224956845Y-94829309D01*
X224956845Y-94448357D01*
X225004464Y-94353119D01*
X225052083Y-94305500D01*
X225147321Y-94257880D01*
X225337797Y-94257880D01*
X225433035Y-94305500D01*
X225480654Y-94353119D01*
X225528273Y-94448357D01*
X225528273Y-94686452D01*
X225480654Y-94781690D01*
X225433035Y-94829309D01*
X225337797Y-94876928D01*
X225147321Y-94876928D01*
X225052083Y-94829309D01*
X225004464Y-94781690D01*
X224956845Y-94686452D01*
G04 #@! TO.C,K20*
X246483035Y-95257880D02*
X246483035Y-94257880D01*
X245911607Y-95257880D02*
X246340178Y-94686452D01*
X245911607Y-94257880D02*
X246483035Y-94829309D01*
X245530654Y-94353119D02*
X245483035Y-94305500D01*
X245387797Y-94257880D01*
X245149702Y-94257880D01*
X245054464Y-94305500D01*
X245006845Y-94353119D01*
X244959226Y-94448357D01*
X244959226Y-94543595D01*
X245006845Y-94686452D01*
X245578273Y-95257880D01*
X244959226Y-95257880D01*
X244340178Y-94257880D02*
X244244940Y-94257880D01*
X244149702Y-94305500D01*
X244102083Y-94353119D01*
X244054464Y-94448357D01*
X244006845Y-94638833D01*
X244006845Y-94876928D01*
X244054464Y-95067404D01*
X244102083Y-95162642D01*
X244149702Y-95210261D01*
X244244940Y-95257880D01*
X244340178Y-95257880D01*
X244435416Y-95210261D01*
X244483035Y-95162642D01*
X244530654Y-95067404D01*
X244578273Y-94876928D01*
X244578273Y-94638833D01*
X244530654Y-94448357D01*
X244483035Y-94353119D01*
X244435416Y-94305500D01*
X244340178Y-94257880D01*
G04 #@! TO.C,K21*
X115514285Y-133357880D02*
X115514285Y-132357880D01*
X114942857Y-133357880D02*
X115371428Y-132786452D01*
X114942857Y-132357880D02*
X115514285Y-132929309D01*
X114561904Y-132453119D02*
X114514285Y-132405500D01*
X114419047Y-132357880D01*
X114180952Y-132357880D01*
X114085714Y-132405500D01*
X114038095Y-132453119D01*
X113990476Y-132548357D01*
X113990476Y-132643595D01*
X114038095Y-132786452D01*
X114609523Y-133357880D01*
X113990476Y-133357880D01*
X113038095Y-133357880D02*
X113609523Y-133357880D01*
X113323809Y-133357880D02*
X113323809Y-132357880D01*
X113419047Y-132500738D01*
X113514285Y-132595976D01*
X113609523Y-132643595D01*
G04 #@! TD*
M02*
