G04 #@! TF.GenerationSoftware,KiCad,Pcbnew,5.0.1*
G04 #@! TF.CreationDate,2018-11-29T02:11:47-05:00*
G04 #@! TF.ProjectId,fightkeyb-pcb,66696768746B6579622D7063622E6B69,rev?*
G04 #@! TF.SameCoordinates,Original*
G04 #@! TF.FileFunction,Copper,L2,Bot,Signal*
G04 #@! TF.FilePolarity,Positive*
%FSLAX46Y46*%
G04 Gerber Fmt 4.6, Leading zero omitted, Abs format (unit mm)*
G04 Created by KiCad (PCBNEW 5.0.1) date Thu 29 Nov 2018 02:11:47 AM EST*
%MOMM*%
%LPD*%
G01*
G04 APERTURE LIST*
G04 #@! TA.AperFunction,ComponentPad*
%ADD10C,1.879600*%
G04 #@! TD*
G04 #@! TA.AperFunction,Conductor*
%ADD11R,0.500000X2.500000*%
G04 #@! TD*
G04 #@! TA.AperFunction,ComponentPad*
%ADD12C,1.600000*%
G04 #@! TD*
G04 #@! TA.AperFunction,ComponentPad*
%ADD13R,1.600000X1.600000*%
G04 #@! TD*
G04 #@! TA.AperFunction,SMDPad,CuDef*
%ADD14R,1.200000X1.200000*%
G04 #@! TD*
G04 #@! TA.AperFunction,ComponentPad*
%ADD15C,2.500000*%
G04 #@! TD*
G04 #@! TA.AperFunction,Conductor*
%ADD16C,2.500000*%
G04 #@! TD*
G04 #@! TA.AperFunction,ComponentPad*
%ADD17C,4.400000*%
G04 #@! TD*
G04 #@! TA.AperFunction,ViaPad*
%ADD18C,0.800000*%
G04 #@! TD*
G04 #@! TA.AperFunction,Conductor*
%ADD19C,0.250000*%
G04 #@! TD*
G04 APERTURE END LIST*
D10*
G04 #@! TO.P,M2,24*
G04 #@! TO.N,Net-(M2-Pad24)*
X164782500Y-22860000D03*
G04 #@! TO.P,M2,23*
G04 #@! TO.N,Net-(M1-PadP$4)*
X164782500Y-25400000D03*
G04 #@! TO.P,M2,22*
G04 #@! TO.N,Net-(M1-PadP$3)*
X164782500Y-27940000D03*
G04 #@! TO.P,M2,21*
G04 #@! TO.N,Net-(M2-Pad21)*
X164782500Y-30480000D03*
G04 #@! TO.P,M2,20*
G04 #@! TO.N,Net-(M2-Pad20)*
X164782500Y-33020000D03*
G04 #@! TO.P,M2,19*
G04 #@! TO.N,Net-(K10-Pad1)*
X164782500Y-35560000D03*
G04 #@! TO.P,M2,18*
G04 #@! TO.N,Net-(K11-Pad1)*
X164782500Y-38100000D03*
G04 #@! TO.P,M2,17*
G04 #@! TO.N,Net-(K12-Pad1)*
X164782500Y-40640000D03*
G04 #@! TO.P,M2,16*
G04 #@! TO.N,Net-(D1-Pad1)*
X164782500Y-43180000D03*
G04 #@! TO.P,M2,15*
G04 #@! TO.N,Net-(D10-Pad1)*
X164782500Y-45720000D03*
G04 #@! TO.P,M2,14*
G04 #@! TO.N,Net-(M2-Pad14)*
X164782500Y-48260000D03*
G04 #@! TO.P,M2,13*
G04 #@! TO.N,Net-(M2-Pad13)*
X164782500Y-50800000D03*
G04 #@! TO.P,M2,12*
G04 #@! TO.N,Net-(D13-Pad1)*
X149542500Y-50800000D03*
G04 #@! TO.P,M2,11*
G04 #@! TO.N,Net-(D20-Pad1)*
X149542500Y-48260000D03*
G04 #@! TO.P,M2,10*
G04 #@! TO.N,Net-(K16-Pad1)*
X149542500Y-45720000D03*
G04 #@! TO.P,M2,9*
G04 #@! TO.N,Net-(K15-Pad1)*
X149542500Y-43180000D03*
G04 #@! TO.P,M2,8*
G04 #@! TO.N,Net-(K14-Pad1)*
X149542500Y-40640000D03*
G04 #@! TO.P,M2,7*
G04 #@! TO.N,Net-(K2-Pad1)*
X149542500Y-38100000D03*
G04 #@! TO.P,M2,6*
G04 #@! TO.N,Net-(M2-Pad6)*
X149542500Y-35560000D03*
G04 #@! TO.P,M2,5*
G04 #@! TO.N,Net-(M2-Pad5)*
X149542500Y-33020000D03*
G04 #@! TO.P,M2,4*
G04 #@! TO.N,Net-(M2-Pad4)*
X149542500Y-30480000D03*
G04 #@! TO.P,M2,3*
G04 #@! TO.N,Net-(M2-Pad3)*
X149542500Y-27940000D03*
G04 #@! TO.P,M2,2*
G04 #@! TO.N,Net-(M2-Pad2)*
X149542500Y-25400000D03*
G04 #@! TO.P,M2,1*
G04 #@! TO.N,Net-(M2-Pad1)*
X149542500Y-22860000D03*
G04 #@! TD*
D11*
G04 #@! TO.N,Net-(D1-Pad2)*
G04 #@! TO.C,D1*
X66675000Y-45731250D03*
G04 #@! TO.N,Net-(D1-Pad1)*
X66675000Y-51131250D03*
D12*
G04 #@! TD*
G04 #@! TO.P,D1,2*
G04 #@! TO.N,Net-(D1-Pad2)*
X66675000Y-44531250D03*
D13*
G04 #@! TO.P,D1,1*
G04 #@! TO.N,Net-(D1-Pad1)*
X66675000Y-52331250D03*
D14*
X66675000Y-50006250D03*
G04 #@! TO.P,D1,2*
G04 #@! TO.N,Net-(D1-Pad2)*
X66675000Y-46856250D03*
G04 #@! TD*
G04 #@! TO.P,D2,2*
G04 #@! TO.N,Net-(D2-Pad2)*
X85725000Y-46856250D03*
G04 #@! TO.P,D2,1*
G04 #@! TO.N,Net-(D1-Pad1)*
X85725000Y-50006250D03*
D13*
X85725000Y-52331250D03*
D12*
G04 #@! TO.P,D2,2*
G04 #@! TO.N,Net-(D2-Pad2)*
X85725000Y-44531250D03*
D11*
G04 #@! TD*
G04 #@! TO.N,Net-(D1-Pad1)*
G04 #@! TO.C,D2*
X85725000Y-51131250D03*
G04 #@! TO.N,Net-(D2-Pad2)*
G04 #@! TO.C,D2*
X85725000Y-45731250D03*
G04 #@! TD*
G04 #@! TO.N,Net-(D3-Pad2)*
G04 #@! TO.C,D3*
X100012500Y-45731250D03*
G04 #@! TO.N,Net-(D1-Pad1)*
X100012500Y-51131250D03*
D12*
G04 #@! TD*
G04 #@! TO.P,D3,2*
G04 #@! TO.N,Net-(D3-Pad2)*
X100012500Y-44531250D03*
D13*
G04 #@! TO.P,D3,1*
G04 #@! TO.N,Net-(D1-Pad1)*
X100012500Y-52331250D03*
D14*
X100012500Y-50006250D03*
G04 #@! TO.P,D3,2*
G04 #@! TO.N,Net-(D3-Pad2)*
X100012500Y-46856250D03*
G04 #@! TD*
G04 #@! TO.P,D4,2*
G04 #@! TO.N,Net-(D4-Pad2)*
X116681250Y-47625000D03*
G04 #@! TO.P,D4,1*
G04 #@! TO.N,Net-(D1-Pad1)*
X116681250Y-50775000D03*
D13*
X116681250Y-53100000D03*
D12*
G04 #@! TO.P,D4,2*
G04 #@! TO.N,Net-(D4-Pad2)*
X116681250Y-45300000D03*
D11*
G04 #@! TD*
G04 #@! TO.N,Net-(D1-Pad1)*
G04 #@! TO.C,D4*
X116681250Y-51900000D03*
G04 #@! TO.N,Net-(D4-Pad2)*
G04 #@! TO.C,D4*
X116681250Y-46500000D03*
G04 #@! TD*
G04 #@! TO.N,Net-(D5-Pad2)*
G04 #@! TO.C,D5*
X233362500Y-33018750D03*
G04 #@! TO.N,Net-(D1-Pad1)*
X233362500Y-38418750D03*
D12*
G04 #@! TD*
G04 #@! TO.P,D5,2*
G04 #@! TO.N,Net-(D5-Pad2)*
X233362500Y-31818750D03*
D13*
G04 #@! TO.P,D5,1*
G04 #@! TO.N,Net-(D1-Pad1)*
X233362500Y-39618750D03*
D14*
X233362500Y-37293750D03*
G04 #@! TO.P,D5,2*
G04 #@! TO.N,Net-(D5-Pad2)*
X233362500Y-34143750D03*
G04 #@! TD*
D11*
G04 #@! TO.N,Net-(D6-Pad2)*
G04 #@! TO.C,D6*
X76200000Y-58275000D03*
G04 #@! TO.N,Net-(D10-Pad1)*
X76200000Y-52875000D03*
D12*
G04 #@! TD*
G04 #@! TO.P,D6,2*
G04 #@! TO.N,Net-(D6-Pad2)*
X76200000Y-59475000D03*
D13*
G04 #@! TO.P,D6,1*
G04 #@! TO.N,Net-(D10-Pad1)*
X76200000Y-51675000D03*
D14*
X76200000Y-54000000D03*
G04 #@! TO.P,D6,2*
G04 #@! TO.N,Net-(D6-Pad2)*
X76200000Y-57150000D03*
G04 #@! TD*
G04 #@! TO.P,D7,2*
G04 #@! TO.N,Net-(D7-Pad2)*
X92868750Y-57918750D03*
G04 #@! TO.P,D7,1*
G04 #@! TO.N,Net-(D10-Pad1)*
X92868750Y-54768750D03*
D13*
X92868750Y-52443750D03*
D12*
G04 #@! TO.P,D7,2*
G04 #@! TO.N,Net-(D7-Pad2)*
X92868750Y-60243750D03*
D11*
G04 #@! TD*
G04 #@! TO.N,Net-(D10-Pad1)*
G04 #@! TO.C,D7*
X92868750Y-53643750D03*
G04 #@! TO.N,Net-(D7-Pad2)*
G04 #@! TO.C,D7*
X92868750Y-59043750D03*
G04 #@! TD*
G04 #@! TO.N,Net-(D8-Pad2)*
G04 #@! TO.C,D8*
X109537500Y-59043750D03*
G04 #@! TO.N,Net-(D10-Pad1)*
X109537500Y-53643750D03*
D12*
G04 #@! TD*
G04 #@! TO.P,D8,2*
G04 #@! TO.N,Net-(D8-Pad2)*
X109537500Y-60243750D03*
D13*
G04 #@! TO.P,D8,1*
G04 #@! TO.N,Net-(D10-Pad1)*
X109537500Y-52443750D03*
D14*
X109537500Y-54768750D03*
G04 #@! TO.P,D8,2*
G04 #@! TO.N,Net-(D8-Pad2)*
X109537500Y-57918750D03*
G04 #@! TD*
G04 #@! TO.P,D9,2*
G04 #@! TO.N,Net-(D9-Pad2)*
X183356250Y-57918750D03*
G04 #@! TO.P,D9,1*
G04 #@! TO.N,Net-(D10-Pad1)*
X183356250Y-54768750D03*
D13*
X183356250Y-52443750D03*
D12*
G04 #@! TO.P,D9,2*
G04 #@! TO.N,Net-(D9-Pad2)*
X183356250Y-60243750D03*
D11*
G04 #@! TD*
G04 #@! TO.N,Net-(D10-Pad1)*
G04 #@! TO.C,D9*
X183356250Y-53643750D03*
G04 #@! TO.N,Net-(D9-Pad2)*
G04 #@! TO.C,D9*
X183356250Y-59043750D03*
G04 #@! TD*
G04 #@! TO.N,Net-(D10-Pad2)*
G04 #@! TO.C,D10*
X197643750Y-57787500D03*
G04 #@! TO.N,Net-(D10-Pad1)*
X197643750Y-52387500D03*
D12*
G04 #@! TD*
G04 #@! TO.P,D10,2*
G04 #@! TO.N,Net-(D10-Pad2)*
X197643750Y-58987500D03*
D13*
G04 #@! TO.P,D10,1*
G04 #@! TO.N,Net-(D10-Pad1)*
X197643750Y-51187500D03*
D14*
X197643750Y-53512500D03*
G04 #@! TO.P,D10,2*
G04 #@! TO.N,Net-(D10-Pad2)*
X197643750Y-56662500D03*
G04 #@! TD*
G04 #@! TO.P,D11,2*
G04 #@! TO.N,Net-(D11-Pad2)*
X212725000Y-57125000D03*
G04 #@! TO.P,D11,1*
G04 #@! TO.N,Net-(D10-Pad1)*
X212725000Y-53975000D03*
D13*
X212725000Y-51650000D03*
D12*
G04 #@! TO.P,D11,2*
G04 #@! TO.N,Net-(D11-Pad2)*
X212725000Y-59450000D03*
D11*
G04 #@! TD*
G04 #@! TO.N,Net-(D10-Pad1)*
G04 #@! TO.C,D11*
X212725000Y-52850000D03*
G04 #@! TO.N,Net-(D11-Pad2)*
G04 #@! TO.C,D11*
X212725000Y-58250000D03*
G04 #@! TD*
D14*
G04 #@! TO.P,D12,2*
G04 #@! TO.N,Net-(D12-Pad2)*
X232410000Y-57760000D03*
G04 #@! TO.P,D12,1*
G04 #@! TO.N,Net-(D10-Pad1)*
X232410000Y-54610000D03*
D13*
X232410000Y-52285000D03*
D12*
G04 #@! TO.P,D12,2*
G04 #@! TO.N,Net-(D12-Pad2)*
X232410000Y-60085000D03*
D11*
G04 #@! TD*
G04 #@! TO.N,Net-(D10-Pad1)*
G04 #@! TO.C,D12*
X232410000Y-53485000D03*
G04 #@! TO.N,Net-(D12-Pad2)*
G04 #@! TO.C,D12*
X232410000Y-58885000D03*
G04 #@! TD*
D14*
G04 #@! TO.P,D13,2*
G04 #@! TO.N,Net-(D13-Pad2)*
X95250000Y-109537500D03*
G04 #@! TO.P,D13,1*
G04 #@! TO.N,Net-(D13-Pad1)*
X95250000Y-112687500D03*
D13*
X95250000Y-115012500D03*
D12*
G04 #@! TO.P,D13,2*
G04 #@! TO.N,Net-(D13-Pad2)*
X95250000Y-107212500D03*
D11*
G04 #@! TD*
G04 #@! TO.N,Net-(D13-Pad1)*
G04 #@! TO.C,D13*
X95250000Y-113812500D03*
G04 #@! TO.N,Net-(D13-Pad2)*
G04 #@! TO.C,D13*
X95250000Y-108412500D03*
G04 #@! TD*
G04 #@! TO.N,Net-(D14-Pad2)*
G04 #@! TO.C,D14*
X109537500Y-107643750D03*
G04 #@! TO.N,Net-(D13-Pad1)*
X109537500Y-113043750D03*
D12*
G04 #@! TD*
G04 #@! TO.P,D14,2*
G04 #@! TO.N,Net-(D14-Pad2)*
X109537500Y-106443750D03*
D13*
G04 #@! TO.P,D14,1*
G04 #@! TO.N,Net-(D13-Pad1)*
X109537500Y-114243750D03*
D14*
X109537500Y-111918750D03*
G04 #@! TO.P,D14,2*
G04 #@! TO.N,Net-(D14-Pad2)*
X109537500Y-108768750D03*
G04 #@! TD*
G04 #@! TO.P,D15,2*
G04 #@! TO.N,Net-(D15-Pad2)*
X126206250Y-108768750D03*
G04 #@! TO.P,D15,1*
G04 #@! TO.N,Net-(D13-Pad1)*
X126206250Y-111918750D03*
D13*
X126206250Y-114243750D03*
D12*
G04 #@! TO.P,D15,2*
G04 #@! TO.N,Net-(D15-Pad2)*
X126206250Y-106443750D03*
D11*
G04 #@! TD*
G04 #@! TO.N,Net-(D13-Pad1)*
G04 #@! TO.C,D15*
X126206250Y-113043750D03*
G04 #@! TO.N,Net-(D15-Pad2)*
G04 #@! TO.C,D15*
X126206250Y-107643750D03*
G04 #@! TD*
G04 #@! TO.N,Net-(D16-Pad2)*
G04 #@! TO.C,D16*
X185737500Y-107643750D03*
G04 #@! TO.N,Net-(D13-Pad1)*
X185737500Y-113043750D03*
D12*
G04 #@! TD*
G04 #@! TO.P,D16,2*
G04 #@! TO.N,Net-(D16-Pad2)*
X185737500Y-106443750D03*
D13*
G04 #@! TO.P,D16,1*
G04 #@! TO.N,Net-(D13-Pad1)*
X185737500Y-114243750D03*
D14*
X185737500Y-111918750D03*
G04 #@! TO.P,D16,2*
G04 #@! TO.N,Net-(D16-Pad2)*
X185737500Y-108768750D03*
G04 #@! TD*
G04 #@! TO.P,D17,2*
G04 #@! TO.N,Net-(D17-Pad2)*
X197643750Y-107962500D03*
G04 #@! TO.P,D17,1*
G04 #@! TO.N,Net-(D13-Pad1)*
X197643750Y-111112500D03*
D13*
X197643750Y-113437500D03*
D12*
G04 #@! TO.P,D17,2*
G04 #@! TO.N,Net-(D17-Pad2)*
X197643750Y-105637500D03*
D11*
G04 #@! TD*
G04 #@! TO.N,Net-(D13-Pad1)*
G04 #@! TO.C,D17*
X197643750Y-112237500D03*
G04 #@! TO.N,Net-(D17-Pad2)*
G04 #@! TO.C,D17*
X197643750Y-106837500D03*
G04 #@! TD*
G04 #@! TO.N,Net-(D18-Pad2)*
G04 #@! TO.C,D18*
X211931250Y-106031250D03*
G04 #@! TO.N,Net-(D13-Pad1)*
X211931250Y-111431250D03*
D12*
G04 #@! TD*
G04 #@! TO.P,D18,2*
G04 #@! TO.N,Net-(D18-Pad2)*
X211931250Y-104831250D03*
D13*
G04 #@! TO.P,D18,1*
G04 #@! TO.N,Net-(D13-Pad1)*
X211931250Y-112631250D03*
D14*
X211931250Y-110306250D03*
G04 #@! TO.P,D18,2*
G04 #@! TO.N,Net-(D18-Pad2)*
X211931250Y-107156250D03*
G04 #@! TD*
G04 #@! TO.P,D19,2*
G04 #@! TO.N,Net-(D19-Pad2)*
X228600000Y-107156250D03*
G04 #@! TO.P,D19,1*
G04 #@! TO.N,Net-(D13-Pad1)*
X228600000Y-110306250D03*
D13*
X228600000Y-112631250D03*
D12*
G04 #@! TO.P,D19,2*
G04 #@! TO.N,Net-(D19-Pad2)*
X228600000Y-104831250D03*
D11*
G04 #@! TD*
G04 #@! TO.N,Net-(D13-Pad1)*
G04 #@! TO.C,D19*
X228600000Y-111431250D03*
G04 #@! TO.N,Net-(D19-Pad2)*
G04 #@! TO.C,D19*
X228600000Y-106031250D03*
G04 #@! TD*
G04 #@! TO.N,Net-(D20-Pad2)*
G04 #@! TO.C,D20*
X128905000Y-128585000D03*
G04 #@! TO.N,Net-(D20-Pad1)*
X128905000Y-133985000D03*
D12*
G04 #@! TD*
G04 #@! TO.P,D20,2*
G04 #@! TO.N,Net-(D20-Pad2)*
X128905000Y-127385000D03*
D13*
G04 #@! TO.P,D20,1*
G04 #@! TO.N,Net-(D20-Pad1)*
X128905000Y-135185000D03*
D14*
X128905000Y-132860000D03*
G04 #@! TO.P,D20,2*
G04 #@! TO.N,Net-(D20-Pad2)*
X128905000Y-129710000D03*
G04 #@! TD*
D15*
G04 #@! TO.P,K2,1*
G04 #@! TO.N,Net-(K2-Pad1)*
X53745000Y-30067500D03*
D16*
G04 #@! TD*
G04 #@! TO.N,Net-(K2-Pad1)*
G04 #@! TO.C,K2*
X54150453Y-29337546D02*
X53339547Y-30797454D01*
D15*
G04 #@! TO.P,K2,2*
G04 #@! TO.N,Net-(D1-Pad2)*
X59670000Y-28547500D03*
D16*
G04 #@! TD*
G04 #@! TO.N,Net-(D1-Pad2)*
G04 #@! TO.C,K2*
X59689724Y-28258172D02*
X59650276Y-28836828D01*
D15*
G04 #@! TO.P,K3,2*
G04 #@! TO.N,Net-(D2-Pad2)*
X78720000Y-28547500D03*
D16*
G04 #@! TD*
G04 #@! TO.N,Net-(D2-Pad2)*
G04 #@! TO.C,K3*
X78739724Y-28258172D02*
X78700276Y-28836828D01*
D15*
G04 #@! TO.P,K3,1*
G04 #@! TO.N,Net-(K14-Pad1)*
X72795000Y-30067500D03*
D16*
G04 #@! TD*
G04 #@! TO.N,Net-(K14-Pad1)*
G04 #@! TO.C,K3*
X73200453Y-29337546D02*
X72389547Y-30797454D01*
D15*
G04 #@! TO.P,K4,1*
G04 #@! TO.N,Net-(K15-Pad1)*
X91845000Y-30067500D03*
D16*
G04 #@! TD*
G04 #@! TO.N,Net-(K15-Pad1)*
G04 #@! TO.C,K4*
X92250453Y-29337546D02*
X91439547Y-30797454D01*
D15*
G04 #@! TO.P,K4,2*
G04 #@! TO.N,Net-(D3-Pad2)*
X97770000Y-28547500D03*
D16*
G04 #@! TD*
G04 #@! TO.N,Net-(D3-Pad2)*
G04 #@! TO.C,K4*
X97789724Y-28258172D02*
X97750276Y-28836828D01*
D15*
G04 #@! TO.P,K5,2*
G04 #@! TO.N,Net-(D4-Pad2)*
X116820000Y-28547500D03*
D16*
G04 #@! TD*
G04 #@! TO.N,Net-(D4-Pad2)*
G04 #@! TO.C,K5*
X116839724Y-28258172D02*
X116800276Y-28836828D01*
D15*
G04 #@! TO.P,K5,1*
G04 #@! TO.N,Net-(K16-Pad1)*
X110895000Y-30067500D03*
D16*
G04 #@! TD*
G04 #@! TO.N,Net-(K16-Pad1)*
G04 #@! TO.C,K5*
X111300453Y-29337546D02*
X110489547Y-30797454D01*
D15*
G04 #@! TO.P,K6,1*
G04 #@! TO.N,Net-(K13-Pad1)*
X241863750Y-30067500D03*
D16*
G04 #@! TD*
G04 #@! TO.N,Net-(K13-Pad1)*
G04 #@! TO.C,K6*
X242269203Y-29337546D02*
X241458297Y-30797454D01*
D15*
G04 #@! TO.P,K6,2*
G04 #@! TO.N,Net-(D5-Pad2)*
X247788750Y-28547500D03*
D16*
G04 #@! TD*
G04 #@! TO.N,Net-(D5-Pad2)*
G04 #@! TO.C,K6*
X247808474Y-28258172D02*
X247769026Y-28836828D01*
D15*
G04 #@! TO.P,K7,2*
G04 #@! TO.N,Net-(D6-Pad2)*
X78720000Y-66647500D03*
D16*
G04 #@! TD*
G04 #@! TO.N,Net-(D6-Pad2)*
G04 #@! TO.C,K7*
X78739724Y-66358172D02*
X78700276Y-66936828D01*
D15*
G04 #@! TO.P,K7,1*
G04 #@! TO.N,Net-(K14-Pad1)*
X72795000Y-68167500D03*
D16*
G04 #@! TD*
G04 #@! TO.N,Net-(K14-Pad1)*
G04 #@! TO.C,K7*
X73200453Y-67437546D02*
X72389547Y-68897454D01*
D15*
G04 #@! TO.P,K8,1*
G04 #@! TO.N,Net-(K15-Pad1)*
X91845000Y-68167500D03*
D16*
G04 #@! TD*
G04 #@! TO.N,Net-(K15-Pad1)*
G04 #@! TO.C,K8*
X92250453Y-67437546D02*
X91439547Y-68897454D01*
D15*
G04 #@! TO.P,K8,2*
G04 #@! TO.N,Net-(D7-Pad2)*
X97770000Y-66647500D03*
D16*
G04 #@! TD*
G04 #@! TO.N,Net-(D7-Pad2)*
G04 #@! TO.C,K8*
X97789724Y-66358172D02*
X97750276Y-66936828D01*
D15*
G04 #@! TO.P,K9,2*
G04 #@! TO.N,Net-(D8-Pad2)*
X116820000Y-66647500D03*
D16*
G04 #@! TD*
G04 #@! TO.N,Net-(D8-Pad2)*
G04 #@! TO.C,K9*
X116839724Y-66358172D02*
X116800276Y-66936828D01*
D15*
G04 #@! TO.P,K9,1*
G04 #@! TO.N,Net-(K16-Pad1)*
X110895000Y-68167500D03*
D16*
G04 #@! TD*
G04 #@! TO.N,Net-(K16-Pad1)*
G04 #@! TO.C,K9*
X111300453Y-67437546D02*
X110489547Y-68897454D01*
D15*
G04 #@! TO.P,K10,2*
G04 #@! TO.N,Net-(D9-Pad2)*
X190638750Y-66647500D03*
D16*
G04 #@! TD*
G04 #@! TO.N,Net-(D9-Pad2)*
G04 #@! TO.C,K10*
X190658474Y-66358172D02*
X190619026Y-66936828D01*
D15*
G04 #@! TO.P,K10,1*
G04 #@! TO.N,Net-(K10-Pad1)*
X184713750Y-68167500D03*
D16*
G04 #@! TD*
G04 #@! TO.N,Net-(K10-Pad1)*
G04 #@! TO.C,K10*
X185119203Y-67437546D02*
X184308297Y-68897454D01*
D15*
G04 #@! TO.P,K11,1*
G04 #@! TO.N,Net-(K11-Pad1)*
X203763750Y-68167500D03*
D16*
G04 #@! TD*
G04 #@! TO.N,Net-(K11-Pad1)*
G04 #@! TO.C,K11*
X204169203Y-67437546D02*
X203358297Y-68897454D01*
D15*
G04 #@! TO.P,K11,2*
G04 #@! TO.N,Net-(D10-Pad2)*
X209688750Y-66647500D03*
D16*
G04 #@! TD*
G04 #@! TO.N,Net-(D10-Pad2)*
G04 #@! TO.C,K11*
X209708474Y-66358172D02*
X209669026Y-66936828D01*
D15*
G04 #@! TO.P,K12,2*
G04 #@! TO.N,Net-(D11-Pad2)*
X228738750Y-66647500D03*
D16*
G04 #@! TD*
G04 #@! TO.N,Net-(D11-Pad2)*
G04 #@! TO.C,K12*
X228758474Y-66358172D02*
X228719026Y-66936828D01*
D15*
G04 #@! TO.P,K12,1*
G04 #@! TO.N,Net-(K12-Pad1)*
X222813750Y-68167500D03*
D16*
G04 #@! TD*
G04 #@! TO.N,Net-(K12-Pad1)*
G04 #@! TO.C,K12*
X223219203Y-67437546D02*
X222408297Y-68897454D01*
D15*
G04 #@! TO.P,K13,1*
G04 #@! TO.N,Net-(K13-Pad1)*
X241863750Y-68167500D03*
D16*
G04 #@! TD*
G04 #@! TO.N,Net-(K13-Pad1)*
G04 #@! TO.C,K13*
X242269203Y-67437546D02*
X241458297Y-68897454D01*
D15*
G04 #@! TO.P,K13,2*
G04 #@! TO.N,Net-(D12-Pad2)*
X247788750Y-66647500D03*
D16*
G04 #@! TD*
G04 #@! TO.N,Net-(D12-Pad2)*
G04 #@! TO.C,K13*
X247808474Y-66358172D02*
X247769026Y-66936828D01*
D15*
G04 #@! TO.P,K14,1*
G04 #@! TO.N,Net-(K14-Pad1)*
X72795000Y-87217500D03*
D16*
G04 #@! TD*
G04 #@! TO.N,Net-(K14-Pad1)*
G04 #@! TO.C,K14*
X73200453Y-86487546D02*
X72389547Y-87947454D01*
D15*
G04 #@! TO.P,K14,2*
G04 #@! TO.N,Net-(D13-Pad2)*
X78720000Y-85697500D03*
D16*
G04 #@! TD*
G04 #@! TO.N,Net-(D13-Pad2)*
G04 #@! TO.C,K14*
X78739724Y-85408172D02*
X78700276Y-85986828D01*
D15*
G04 #@! TO.P,K15,2*
G04 #@! TO.N,Net-(D14-Pad2)*
X97770000Y-85697500D03*
D16*
G04 #@! TD*
G04 #@! TO.N,Net-(D14-Pad2)*
G04 #@! TO.C,K15*
X97789724Y-85408172D02*
X97750276Y-85986828D01*
D15*
G04 #@! TO.P,K15,1*
G04 #@! TO.N,Net-(K15-Pad1)*
X91845000Y-87217500D03*
D16*
G04 #@! TD*
G04 #@! TO.N,Net-(K15-Pad1)*
G04 #@! TO.C,K15*
X92250453Y-86487546D02*
X91439547Y-87947454D01*
D15*
G04 #@! TO.P,K16,1*
G04 #@! TO.N,Net-(K16-Pad1)*
X110895000Y-87217500D03*
D16*
G04 #@! TD*
G04 #@! TO.N,Net-(K16-Pad1)*
G04 #@! TO.C,K16*
X111300453Y-86487546D02*
X110489547Y-87947454D01*
D15*
G04 #@! TO.P,K16,2*
G04 #@! TO.N,Net-(D15-Pad2)*
X116820000Y-85697500D03*
D16*
G04 #@! TD*
G04 #@! TO.N,Net-(D15-Pad2)*
G04 #@! TO.C,K16*
X116839724Y-85408172D02*
X116800276Y-85986828D01*
D15*
G04 #@! TO.P,K17,2*
G04 #@! TO.N,Net-(D16-Pad2)*
X190638750Y-85697500D03*
D16*
G04 #@! TD*
G04 #@! TO.N,Net-(D16-Pad2)*
G04 #@! TO.C,K17*
X190658474Y-85408172D02*
X190619026Y-85986828D01*
D15*
G04 #@! TO.P,K17,1*
G04 #@! TO.N,Net-(K10-Pad1)*
X184713750Y-87217500D03*
D16*
G04 #@! TD*
G04 #@! TO.N,Net-(K10-Pad1)*
G04 #@! TO.C,K17*
X185119203Y-86487546D02*
X184308297Y-87947454D01*
D15*
G04 #@! TO.P,K18,1*
G04 #@! TO.N,Net-(K11-Pad1)*
X203763750Y-87217500D03*
D16*
G04 #@! TD*
G04 #@! TO.N,Net-(K11-Pad1)*
G04 #@! TO.C,K18*
X204169203Y-86487546D02*
X203358297Y-87947454D01*
D15*
G04 #@! TO.P,K18,2*
G04 #@! TO.N,Net-(D17-Pad2)*
X209688750Y-85697500D03*
D16*
G04 #@! TD*
G04 #@! TO.N,Net-(D17-Pad2)*
G04 #@! TO.C,K18*
X209708474Y-85408172D02*
X209669026Y-85986828D01*
D15*
G04 #@! TO.P,K19,2*
G04 #@! TO.N,Net-(D18-Pad2)*
X228738750Y-85697500D03*
D16*
G04 #@! TD*
G04 #@! TO.N,Net-(D18-Pad2)*
G04 #@! TO.C,K19*
X228758474Y-85408172D02*
X228719026Y-85986828D01*
D15*
G04 #@! TO.P,K19,1*
G04 #@! TO.N,Net-(K12-Pad1)*
X222813750Y-87217500D03*
D16*
G04 #@! TD*
G04 #@! TO.N,Net-(K12-Pad1)*
G04 #@! TO.C,K19*
X223219203Y-86487546D02*
X222408297Y-87947454D01*
D15*
G04 #@! TO.P,K20,2*
G04 #@! TO.N,Net-(D19-Pad2)*
X247788750Y-85697500D03*
D16*
G04 #@! TD*
G04 #@! TO.N,Net-(D19-Pad2)*
G04 #@! TO.C,K20*
X247808474Y-85408172D02*
X247769026Y-85986828D01*
D15*
G04 #@! TO.P,K20,1*
G04 #@! TO.N,Net-(K13-Pad1)*
X241863750Y-87217500D03*
D16*
G04 #@! TD*
G04 #@! TO.N,Net-(K13-Pad1)*
G04 #@! TO.C,K20*
X242269203Y-86487546D02*
X241458297Y-87947454D01*
D15*
G04 #@! TO.P,K21,1*
G04 #@! TO.N,Net-(K16-Pad1)*
X110895000Y-125317500D03*
D16*
G04 #@! TD*
G04 #@! TO.N,Net-(K16-Pad1)*
G04 #@! TO.C,K21*
X111300453Y-124587546D02*
X110489547Y-126047454D01*
D15*
G04 #@! TO.P,K21,2*
G04 #@! TO.N,Net-(D20-Pad2)*
X116820000Y-123797500D03*
D16*
G04 #@! TD*
G04 #@! TO.N,Net-(D20-Pad2)*
G04 #@! TO.C,K21*
X116839724Y-123508172D02*
X116800276Y-124086828D01*
D17*
G04 #@! TO.P,REF\002A\002A,1*
G04 #@! TO.N,N/C*
X50006250Y-135731250D03*
G04 #@! TD*
G04 #@! TO.P,REF\002A\002A,1*
G04 #@! TO.N,N/C*
X254793750Y-135731250D03*
G04 #@! TD*
G04 #@! TO.P,REF\002A\002A,1*
G04 #@! TO.N,N/C*
X257175000Y-26193750D03*
G04 #@! TD*
G04 #@! TO.P,REF\002A\002A,1*
G04 #@! TO.N,N/C*
X45243750Y-26193750D03*
G04 #@! TD*
G04 #@! TO.P,REF\002A\002A,1*
G04 #@! TO.N,N/C*
X157162500Y-66675000D03*
G04 #@! TD*
G04 #@! TO.P,REF\002A\002A,1*
G04 #@! TO.N,N/C*
X157162500Y-116681250D03*
G04 #@! TD*
D18*
G04 #@! TO.N,Net-(D1-Pad1)*
X199136000Y-43434000D03*
X179324000Y-44450000D03*
G04 #@! TO.N,Net-(D13-Pad1)*
X149860000Y-58420000D03*
G04 #@! TO.N,Net-(K16-Pad1)*
X106934000Y-49530000D03*
X112776000Y-47244000D03*
G04 #@! TO.N,Net-(K13-Pad1)*
X241808000Y-58420000D03*
G04 #@! TO.N,Net-(K10-Pad1)*
X178562000Y-47244000D03*
G04 #@! TO.N,Net-(K11-Pad1)*
X187452000Y-53340000D03*
X182626000Y-48768000D03*
G04 #@! TD*
D19*
G04 #@! TO.N,Net-(D1-Pad2)*
X59670000Y-37526250D02*
X66675000Y-44531250D01*
X59670000Y-28547500D02*
X59670000Y-37526250D01*
G04 #@! TO.N,Net-(D1-Pad1)*
X84675000Y-52331250D02*
X85725000Y-52331250D01*
X82350000Y-50006250D02*
X84675000Y-52331250D01*
X70050000Y-50006250D02*
X82350000Y-50006250D01*
X67725000Y-52331250D02*
X70050000Y-50006250D01*
X66675000Y-52331250D02*
X67725000Y-52331250D01*
X98962500Y-52331250D02*
X100012500Y-52331250D01*
X97762500Y-51131250D02*
X98962500Y-52331250D01*
X87975000Y-51131250D02*
X97762500Y-51131250D01*
X86775000Y-52331250D02*
X87975000Y-51131250D01*
X85725000Y-52331250D02*
X86775000Y-52331250D01*
X101062500Y-52331250D02*
X102618750Y-50775000D01*
X115631250Y-53100000D02*
X116681250Y-53100000D01*
X113306250Y-50775000D02*
X115631250Y-53100000D01*
X102618750Y-50775000D02*
X113306250Y-50775000D01*
X100012500Y-52331250D02*
X101062500Y-52331250D01*
X154862500Y-53100000D02*
X164782500Y-43180000D01*
X116681250Y-53100000D02*
X154862500Y-53100000D01*
X199136000Y-43434000D02*
X198120000Y-44450000D01*
X198120000Y-44450000D02*
X179324000Y-44450000D01*
G04 #@! TO.N,Net-(D2-Pad2)*
X78720000Y-37526250D02*
X86278750Y-45085000D01*
X78720000Y-28547500D02*
X78720000Y-37526250D01*
G04 #@! TO.N,Net-(D3-Pad2)*
X97770000Y-42288750D02*
X100012500Y-44531250D01*
X97770000Y-28547500D02*
X97770000Y-42288750D01*
G04 #@! TO.N,Net-(D4-Pad2)*
X116820000Y-45161250D02*
X116681250Y-45300000D01*
X116820000Y-28547500D02*
X116820000Y-45161250D01*
G04 #@! TO.N,Net-(D6-Pad2)*
X76200000Y-64127500D02*
X78720000Y-66647500D01*
X76200000Y-59475000D02*
X76200000Y-64127500D01*
G04 #@! TO.N,Net-(D10-Pad1)*
X90618750Y-53643750D02*
X91818750Y-52443750D01*
X79218750Y-53643750D02*
X90618750Y-53643750D01*
X77250000Y-51675000D02*
X79218750Y-53643750D01*
X91818750Y-52443750D02*
X92868750Y-52443750D01*
X76200000Y-51675000D02*
X77250000Y-51675000D01*
X108487500Y-52443750D02*
X109537500Y-52443750D01*
X107287500Y-53643750D02*
X108487500Y-52443750D01*
X95118750Y-53643750D02*
X107287500Y-53643750D01*
X93918750Y-52443750D02*
X95118750Y-53643750D01*
X92868750Y-52443750D02*
X93918750Y-52443750D01*
X110268751Y-54225001D02*
X166500999Y-54225001D01*
X109537500Y-52443750D02*
X109537500Y-53493750D01*
X109537500Y-53493750D02*
X110268751Y-54225001D01*
X169164000Y-50101500D02*
X164782500Y-45720000D01*
X169164000Y-51562000D02*
X169164000Y-50101500D01*
X183356250Y-52443750D02*
X182306250Y-52443750D01*
X181678500Y-51816000D02*
X168910000Y-51816000D01*
X166500999Y-54225001D02*
X168910000Y-51816000D01*
X182306250Y-52443750D02*
X181678500Y-51816000D01*
X168910000Y-51816000D02*
X169164000Y-51562000D01*
X183356250Y-51393750D02*
X183356250Y-52443750D01*
X183562500Y-51187500D02*
X183356250Y-51393750D01*
X197643750Y-51187500D02*
X183562500Y-51187500D01*
X197643750Y-52237500D02*
X197643750Y-51187500D01*
X198256250Y-52850000D02*
X197643750Y-52237500D01*
X212725000Y-52850000D02*
X198256250Y-52850000D01*
X231845000Y-52850000D02*
X232410000Y-52285000D01*
X212725000Y-52850000D02*
X231845000Y-52850000D01*
G04 #@! TO.N,Net-(D7-Pad2)*
X97770000Y-65145000D02*
X97770000Y-66647500D01*
X92868750Y-60243750D02*
X97770000Y-65145000D01*
G04 #@! TO.N,Net-(D8-Pad2)*
X115941250Y-66647500D02*
X116820000Y-66647500D01*
X109537500Y-60243750D02*
X115941250Y-66647500D01*
G04 #@! TO.N,Net-(D9-Pad2)*
X189760000Y-66647500D02*
X190638750Y-66647500D01*
X183356250Y-60243750D02*
X189760000Y-66647500D01*
G04 #@! TO.N,Net-(D10-Pad2)*
X208614218Y-65572968D02*
X209688750Y-66647500D01*
X202828749Y-59787499D02*
X208614218Y-65572968D01*
X198443749Y-59787499D02*
X202828749Y-59787499D01*
X197643750Y-58987500D02*
X198443749Y-59787499D01*
G04 #@! TO.N,Net-(D11-Pad2)*
X221541250Y-59450000D02*
X228738750Y-66647500D01*
X212725000Y-59450000D02*
X221541250Y-59450000D01*
G04 #@! TO.N,Net-(D12-Pad2)*
X240026250Y-58885000D02*
X247788750Y-66647500D01*
X232410000Y-58885000D02*
X240026250Y-58885000D01*
G04 #@! TO.N,Net-(D13-Pad2)*
X78720000Y-90682500D02*
X95250000Y-107212500D01*
X78720000Y-85697500D02*
X78720000Y-90682500D01*
G04 #@! TO.N,Net-(D13-Pad1)*
X109337500Y-114243750D02*
X109537500Y-114243750D01*
X108568750Y-115012500D02*
X109337500Y-114243750D01*
X95250000Y-115012500D02*
X108568750Y-115012500D01*
X109537500Y-114243750D02*
X126206250Y-114243750D01*
X126206250Y-111918750D02*
X185737500Y-111918750D01*
X196837500Y-113043750D02*
X197643750Y-112237500D01*
X185737500Y-113043750D02*
X196837500Y-113043750D01*
X211125000Y-113437500D02*
X211931250Y-112631250D01*
X197643750Y-113437500D02*
X211125000Y-113437500D01*
X227550000Y-112631250D02*
X211931250Y-112631250D01*
X228600000Y-112631250D02*
X227550000Y-112631250D01*
X149860000Y-75666250D02*
X149860000Y-58420000D01*
X185737500Y-113043750D02*
X185737500Y-111543750D01*
X185737500Y-111543750D02*
X149860000Y-75666250D01*
G04 #@! TO.N,Net-(D14-Pad2)*
X97770000Y-94676250D02*
X109537500Y-106443750D01*
X97770000Y-85697500D02*
X97770000Y-94676250D01*
G04 #@! TO.N,Net-(D15-Pad2)*
X116820000Y-97057500D02*
X126206250Y-106443750D01*
X116820000Y-85697500D02*
X116820000Y-97057500D01*
G04 #@! TO.N,Net-(D16-Pad2)*
X190638750Y-87331922D02*
X190638750Y-85697500D01*
X190638750Y-91307166D02*
X190638750Y-87331922D01*
X185737500Y-96208416D02*
X190638750Y-91307166D01*
X185737500Y-106443750D02*
X185737500Y-96208416D01*
G04 #@! TO.N,Net-(D17-Pad2)*
X209688750Y-93592500D02*
X197643750Y-105637500D01*
X209688750Y-85697500D02*
X209688750Y-93592500D01*
G04 #@! TO.N,Net-(D18-Pad2)*
X212731249Y-104031251D02*
X211931250Y-104831250D01*
X222314651Y-94447849D02*
X212731249Y-104031251D01*
X222314651Y-90959625D02*
X222314651Y-94447849D01*
X226478166Y-86796110D02*
X222314651Y-90959625D01*
X227640140Y-86796110D02*
X226478166Y-86796110D01*
X228738750Y-85697500D02*
X227640140Y-86796110D01*
G04 #@! TO.N,Net-(D19-Pad2)*
X229399999Y-104031251D02*
X228600000Y-104831250D01*
X229399999Y-103016585D02*
X229399999Y-104031251D01*
X246719084Y-85697500D02*
X229399999Y-103016585D01*
X247788750Y-85697500D02*
X246719084Y-85697500D01*
G04 #@! TO.N,Net-(K2-Pad1)*
X148602701Y-37160201D02*
X147396201Y-37160201D01*
X149542500Y-38100000D02*
X148602701Y-37160201D01*
X147396201Y-37160201D02*
X131064000Y-20828000D01*
X62984500Y-20828000D02*
X53745000Y-30067500D01*
X131064000Y-20828000D02*
X62984500Y-20828000D01*
G04 #@! TO.N,Net-(K14-Pad1)*
X74299190Y-28563310D02*
X72795000Y-30067500D01*
X78478500Y-24384000D02*
X74299190Y-28563310D01*
X133286500Y-24384000D02*
X78478500Y-24384000D01*
X149542500Y-40640000D02*
X133286500Y-24384000D01*
G04 #@! TO.N,Net-(K16-Pad1)*
X110895000Y-30067500D02*
X110895000Y-45569000D01*
X112238749Y-47781251D02*
X111789251Y-47781251D01*
X111789251Y-47781251D02*
X110236000Y-46228000D01*
X112776000Y-47244000D02*
X112238749Y-47781251D01*
X110895000Y-45569000D02*
X110236000Y-46228000D01*
X110236000Y-46228000D02*
X106934000Y-49530000D01*
G04 #@! TO.N,Net-(K13-Pad1)*
X241863750Y-30067500D02*
X241863750Y-58364250D01*
X241863750Y-58364250D02*
X241808000Y-58420000D01*
G04 #@! TO.N,Net-(K10-Pad1)*
X164782500Y-35560000D02*
X166878000Y-35560000D01*
X166878000Y-35560000D02*
X178562000Y-47244000D01*
G04 #@! TO.N,Net-(K11-Pad1)*
X203763750Y-68167500D02*
X188936250Y-53340000D01*
X188936250Y-53340000D02*
X187452000Y-53340000D01*
X175450500Y-48768000D02*
X164782500Y-38100000D01*
X182626000Y-48768000D02*
X175450500Y-48768000D01*
G04 #@! TD*
M02*
