G04 #@! TF.GenerationSoftware,KiCad,Pcbnew,5.0.1*
G04 #@! TF.CreationDate,2018-12-01T17:23:22-05:00*
G04 #@! TF.ProjectId,fightkeyb-pcb-switch,66696768746B6579622D7063622D7377,rev?*
G04 #@! TF.SameCoordinates,Original*
G04 #@! TF.FileFunction,Legend,Top*
G04 #@! TF.FilePolarity,Positive*
%FSLAX46Y46*%
G04 Gerber Fmt 4.6, Leading zero omitted, Abs format (unit mm)*
G04 Created by KiCad (PCBNEW 5.0.1) date Sat 01 Dec 2018 05:23:22 PM EST*
%MOMM*%
%LPD*%
G01*
G04 APERTURE LIST*
%ADD10C,0.200000*%
G04 APERTURE END LIST*
D10*
X221938562Y-119343312D02*
X221922895Y-119352284D01*
X221954143Y-119334255D02*
X221938562Y-119343312D01*
X221969640Y-119325113D02*
X221954143Y-119334255D01*
X222493516Y-114997645D02*
X222506612Y-115011780D01*
X221247828Y-119634198D02*
X221228924Y-119639646D01*
X221266654Y-119628659D02*
X221247828Y-119634198D01*
X221285402Y-119623029D02*
X221266654Y-119628659D01*
X221304072Y-119617309D02*
X221285402Y-119623029D01*
X222956370Y-115675086D02*
X222964605Y-115692474D01*
X222948016Y-115657771D02*
X222956370Y-115675086D01*
X222384919Y-114887470D02*
X222398863Y-114900958D01*
X222506612Y-115011780D02*
X222519600Y-115025995D01*
X222467004Y-114969617D02*
X222480313Y-114983591D01*
X221432573Y-119574748D02*
X221414452Y-119581097D01*
X221450615Y-119568309D02*
X221432573Y-119574748D01*
X221468578Y-119561781D02*
X221450615Y-119568309D01*
X222582924Y-115098259D02*
X222595263Y-115112949D01*
X223219556Y-117248836D02*
X223217824Y-117268617D01*
X223221178Y-117228990D02*
X223219556Y-117248836D01*
X227522911Y-111995474D02*
X227494544Y-111959958D01*
X227551010Y-112031191D02*
X227522911Y-111995474D01*
X227578840Y-112067110D02*
X227551010Y-112031191D01*
X227606400Y-112103229D02*
X227578840Y-112067110D01*
X227633691Y-112139548D02*
X227606400Y-112103229D01*
X227660711Y-112176067D02*
X227633691Y-112139548D01*
X227687460Y-112212786D02*
X227660711Y-112176067D01*
X227713939Y-112249704D02*
X227687460Y-112212786D01*
X227740145Y-112286822D02*
X227713939Y-112249704D01*
X227766080Y-112324138D02*
X227740145Y-112286822D01*
X227791743Y-112361653D02*
X227766080Y-112324138D01*
X227817133Y-112399366D02*
X227791743Y-112361653D01*
X227842250Y-112437276D02*
X227817133Y-112399366D01*
X222867530Y-115505174D02*
X222876941Y-115521838D01*
X222858004Y-115488583D02*
X222867530Y-115505174D01*
X222686080Y-118695164D02*
X222675526Y-118708779D01*
X222696540Y-118681471D02*
X222686080Y-118695164D01*
X222706904Y-118667701D02*
X222696540Y-118681471D01*
X223047278Y-115888382D02*
X223054067Y-115906609D01*
X223040367Y-115870223D02*
X223047278Y-115888382D01*
X222481753Y-118928243D02*
X222469521Y-118940440D01*
X222493893Y-118915967D02*
X222481753Y-118928243D01*
X222505942Y-118903610D02*
X222493893Y-118915967D01*
X225037488Y-123187069D02*
X225084963Y-123159652D01*
X224989758Y-123214245D02*
X225037488Y-123187069D01*
X224941775Y-123241178D02*
X224989758Y-123214245D01*
X224893539Y-123267868D02*
X224941775Y-123241178D01*
X224845050Y-123294315D02*
X224893539Y-123267868D01*
X224796309Y-123320518D02*
X224845050Y-123294315D01*
X221744054Y-114417177D02*
X221761980Y-114427235D01*
X223229422Y-117088237D02*
X223228578Y-117108540D01*
X223230153Y-117067870D02*
X223229422Y-117088237D01*
X222053272Y-124307134D02*
X222113736Y-124293850D01*
X221992592Y-124320146D02*
X222053272Y-124307134D01*
X221931694Y-124332884D02*
X221992592Y-124320146D01*
X221870581Y-124345348D02*
X221931694Y-124332884D01*
X221809253Y-124357537D02*
X221870581Y-124345348D01*
X220483150Y-113981399D02*
X220506310Y-113985598D01*
X220974317Y-114097067D02*
X220995707Y-114103467D01*
X221306360Y-114211072D02*
X221326379Y-114219010D01*
X221286254Y-114203228D02*
X221306360Y-114211072D01*
X221326379Y-114219010D02*
X221346310Y-114227043D01*
X221444635Y-114268615D02*
X221464032Y-114277210D01*
X221671411Y-114377845D02*
X221689711Y-114387543D01*
X221143076Y-114150989D02*
X221163788Y-114158165D01*
X221101394Y-114136927D02*
X221122277Y-114143910D01*
X222269610Y-114782528D02*
X222284386Y-114795356D01*
X222412703Y-114914528D02*
X222426437Y-114928178D01*
X221266060Y-114195479D02*
X221286254Y-114203228D01*
X223171657Y-117594693D02*
X223167968Y-117613266D01*
X223175239Y-117576051D02*
X223171657Y-117594693D01*
X223147921Y-117705106D02*
X223143592Y-117723268D01*
X223152143Y-117686876D02*
X223147921Y-117705106D01*
X228915347Y-115770228D02*
X228911535Y-115718525D01*
X228918857Y-115822106D02*
X228915347Y-115770228D01*
X228922064Y-115874159D02*
X228918857Y-115822106D01*
X228924967Y-115926386D02*
X228922064Y-115874159D01*
X228927566Y-115978787D02*
X228924967Y-115926386D01*
X228929861Y-116031362D02*
X228927566Y-115978787D01*
X228931852Y-116084110D02*
X228929861Y-116031362D01*
X228933537Y-116137031D02*
X228931852Y-116084110D01*
X228934916Y-116190125D02*
X228933537Y-116137031D01*
X228935990Y-116243391D02*
X228934916Y-116190125D01*
X226182827Y-110735056D02*
X226144036Y-110707840D01*
X226221366Y-110762485D02*
X226182827Y-110735056D01*
X226259652Y-110790127D02*
X226221366Y-110762485D01*
X226297684Y-110817982D02*
X226259652Y-110790127D01*
X226335461Y-110846050D02*
X226297684Y-110817982D01*
X226372985Y-110874330D02*
X226335461Y-110846050D01*
X226410253Y-110902822D02*
X226372985Y-110874330D01*
X226447266Y-110931526D02*
X226410253Y-110902822D01*
X226484024Y-110960441D02*
X226447266Y-110931526D01*
X226520526Y-110989567D02*
X226484024Y-110960441D01*
X226556771Y-111018903D02*
X226520526Y-110989567D01*
X226592759Y-111048451D02*
X226556771Y-111018903D01*
X226628490Y-111078208D02*
X226592759Y-111048451D01*
X226663963Y-111108175D02*
X226628490Y-111078208D01*
X222205908Y-119167371D02*
X222191792Y-119177857D01*
X222219935Y-119156802D02*
X222205908Y-119167371D01*
X222233875Y-119146150D02*
X222219935Y-119156802D01*
X222934582Y-118298713D02*
X222926653Y-118314372D01*
X222942410Y-118282979D02*
X222934582Y-118298713D01*
X222950139Y-118267172D02*
X222942410Y-118282979D01*
X225616910Y-110373602D02*
X225574620Y-110349408D01*
X225658954Y-110398015D02*
X225616910Y-110373602D01*
X225700749Y-110422645D02*
X225658954Y-110398015D01*
X225742296Y-110447492D02*
X225700749Y-110422645D01*
X225783595Y-110472556D02*
X225742296Y-110447492D01*
X225824645Y-110497837D02*
X225783595Y-110472556D01*
X225865446Y-110523333D02*
X225824645Y-110497837D01*
X225905997Y-110549046D02*
X225865446Y-110523333D01*
X225946298Y-110574975D02*
X225905997Y-110549046D01*
X225986348Y-110601118D02*
X225946298Y-110574975D01*
X226026147Y-110627477D02*
X225986348Y-110601118D01*
X226065695Y-110654050D02*
X226026147Y-110627477D01*
X226104991Y-110680838D02*
X226065695Y-110654050D01*
X226144036Y-110707840D02*
X226104991Y-110680838D01*
X221592077Y-119513596D02*
X221574675Y-119520745D01*
X221609398Y-119506359D02*
X221592077Y-119513596D01*
X221626638Y-119499034D02*
X221609398Y-119506359D01*
X221385907Y-114243390D02*
X221405572Y-114251705D01*
X221366153Y-114235169D02*
X221385907Y-114243390D01*
X221425148Y-114260113D02*
X221444635Y-114268615D01*
X221225411Y-114180267D02*
X221245779Y-114187826D01*
X223185339Y-117519717D02*
X223182080Y-117538563D01*
X223188491Y-117500804D02*
X223185339Y-117519717D01*
X222299059Y-114808267D02*
X222313629Y-114821262D01*
X222557919Y-115069116D02*
X222570476Y-115083648D01*
X222823779Y-109351506D02*
X222768044Y-109340230D01*
X222879290Y-109363017D02*
X222823779Y-109351506D01*
X222934576Y-109374763D02*
X222879290Y-109363017D01*
X222989636Y-109386743D02*
X222934576Y-109374763D01*
X223044470Y-109398958D02*
X222989636Y-109386743D01*
X223099078Y-109411407D02*
X223044470Y-109398958D01*
X223153459Y-109424090D02*
X223099078Y-109411407D01*
X223207613Y-109437006D02*
X223153459Y-109424090D01*
X223261539Y-109450155D02*
X223207613Y-109437006D01*
X223315237Y-109463537D02*
X223261539Y-109450155D01*
X223368707Y-109477151D02*
X223315237Y-109463537D01*
X223421948Y-109490997D02*
X223368707Y-109477151D01*
X223474960Y-109505076D02*
X223421948Y-109490997D01*
X223527742Y-109519386D02*
X223474960Y-109505076D01*
X223580295Y-109533927D02*
X223527742Y-109519386D01*
X223228855Y-116794844D02*
X223229737Y-116816021D01*
X223227840Y-116773728D02*
X223228855Y-116794844D01*
X226699178Y-111138351D02*
X226663963Y-111108175D01*
X226734135Y-111168737D02*
X226699178Y-111138351D01*
X226768833Y-111199332D02*
X226734135Y-111168737D01*
X226803272Y-111230135D02*
X226768833Y-111199332D01*
X226837451Y-111261147D02*
X226803272Y-111230135D01*
X226871371Y-111292366D02*
X226837451Y-111261147D01*
X226905029Y-111323793D02*
X226871371Y-111292366D01*
X226938427Y-111355428D02*
X226905029Y-111323793D01*
X226971564Y-111387269D02*
X226938427Y-111355428D01*
X227004439Y-111419317D02*
X226971564Y-111387269D01*
X227037053Y-111451572D02*
X227004439Y-111419317D01*
X227069403Y-111484033D02*
X227037053Y-111451572D01*
X227101491Y-111516700D02*
X227069403Y-111484033D01*
X228251778Y-119726469D02*
X228272935Y-119679239D01*
X228230304Y-119773510D02*
X228251778Y-119726469D01*
X228208513Y-119820360D02*
X228230304Y-119773510D01*
X228186408Y-119867020D02*
X228208513Y-119820360D01*
X228163987Y-119913489D02*
X228186408Y-119867020D01*
X228141251Y-119959766D02*
X228163987Y-119913489D01*
X228118203Y-120005850D02*
X228141251Y-119959766D01*
X228094841Y-120051741D02*
X228118203Y-120005850D01*
X228551796Y-118948414D02*
X228567789Y-118898226D01*
X228535474Y-118998420D02*
X228551796Y-118948414D01*
X228518826Y-119048246D02*
X228535474Y-118998420D01*
X228501851Y-119097890D02*
X228518826Y-119048246D01*
X228484550Y-119147351D02*
X228501851Y-119097890D01*
X228466925Y-119196630D02*
X228484550Y-119147351D01*
X228448974Y-119245726D02*
X228466925Y-119196630D01*
X228430700Y-119294637D02*
X228448974Y-119245726D01*
X224448132Y-123497062D02*
X224498616Y-123472582D01*
X224397402Y-123521293D02*
X224448132Y-123497062D01*
X224346426Y-123545275D02*
X224397402Y-123521293D01*
X224295205Y-123569007D02*
X224346426Y-123545275D01*
X224243740Y-123592490D02*
X224295205Y-123569007D01*
X224192031Y-123615721D02*
X224243740Y-123592490D01*
X228683854Y-118490296D02*
X228696867Y-118438510D01*
X228670508Y-118541908D02*
X228683854Y-118490296D01*
X228656828Y-118593343D02*
X228670508Y-118541908D01*
X228642816Y-118644602D02*
X228656828Y-118593343D01*
X228628471Y-118695683D02*
X228642816Y-118644602D01*
X228613796Y-118746587D02*
X228628471Y-118695683D01*
X228598790Y-118797313D02*
X228613796Y-118746587D01*
X228583454Y-118847859D02*
X228598790Y-118797313D01*
X228567789Y-118898226D02*
X228583454Y-118847859D01*
X228412103Y-119343364D02*
X228430700Y-119294637D01*
X228393184Y-119391906D02*
X228412103Y-119343364D01*
X228373943Y-119440262D02*
X228393184Y-119391906D01*
X228354381Y-119488432D02*
X228373943Y-119440262D01*
X228334498Y-119536415D02*
X228354381Y-119488432D01*
X228314296Y-119584211D02*
X228334498Y-119536415D01*
X228293775Y-119631819D02*
X228314296Y-119584211D01*
X228272935Y-119679239D02*
X228293775Y-119631819D01*
X225852442Y-122657133D02*
X225895220Y-122625463D01*
X225809397Y-122688572D02*
X225852442Y-122657133D01*
X225766087Y-122719779D02*
X225809397Y-122688572D01*
X225722510Y-122750754D02*
X225766087Y-122719779D01*
X225678670Y-122781495D02*
X225722510Y-122750754D01*
X225634565Y-122812002D02*
X225678670Y-122781495D01*
X220800226Y-114049410D02*
X220822274Y-114055021D01*
X222444783Y-118964593D02*
X222432277Y-118976549D01*
X222457197Y-118952556D02*
X222444783Y-118964593D01*
X222469521Y-118940440D02*
X222457197Y-118952556D01*
X227152825Y-121454172D02*
X227186131Y-121414967D01*
X227119230Y-121493164D02*
X227152825Y-121454172D01*
X227085345Y-121531944D02*
X227119230Y-121493164D01*
X227051172Y-121570510D02*
X227085345Y-121531944D01*
X227016711Y-121608862D02*
X227051172Y-121570510D01*
X226981963Y-121646999D02*
X227016711Y-121608862D01*
X226946928Y-121684922D02*
X226981963Y-121646999D01*
X222368386Y-119035118D02*
X222355337Y-119046589D01*
X222381345Y-119023566D02*
X222368386Y-119035118D01*
X222394214Y-119011933D02*
X222381345Y-119023566D01*
X223018904Y-115816164D02*
X223026180Y-115834114D01*
X223011508Y-115798283D02*
X223018904Y-115816164D01*
X219117971Y-124613978D02*
X219187534Y-124613531D01*
X219048221Y-124614127D02*
X219117971Y-124613978D01*
X217241617Y-124614127D02*
X219048221Y-124614127D01*
X217241617Y-131081109D02*
X217241617Y-124614127D01*
X211758127Y-131081109D02*
X217241617Y-131081109D01*
X222631623Y-115157488D02*
X222643523Y-115172491D01*
X220342576Y-113958361D02*
X220366196Y-113961943D01*
X222284386Y-114795356D02*
X222299059Y-114808267D01*
X221578519Y-114330724D02*
X221597282Y-114339966D01*
X225318496Y-123018962D02*
X225364430Y-122990106D01*
X225272304Y-123047579D02*
X225318496Y-123018962D01*
X225225854Y-123075957D02*
X225272304Y-123047579D01*
X225179147Y-123104095D02*
X225225854Y-123075957D01*
X225132183Y-123131994D02*
X225179147Y-123104095D01*
X225084963Y-123159652D02*
X225132183Y-123131994D01*
X222119904Y-119229039D02*
X222105265Y-119239025D01*
X222134456Y-119218969D02*
X222119904Y-119229039D01*
X222148921Y-119208816D02*
X222134456Y-119218969D01*
X221346310Y-114227043D02*
X221366153Y-114235169D01*
X221707919Y-114397330D02*
X221726033Y-114407209D01*
X219522278Y-113899505D02*
X219548252Y-113899560D01*
X223215982Y-117288331D02*
X223214029Y-117307980D01*
X223217824Y-117268617D02*
X223215982Y-117288331D01*
X220605514Y-119762778D02*
X220584229Y-119765250D01*
X220626728Y-119760211D02*
X220605514Y-119762778D01*
X220647869Y-119757549D02*
X220626728Y-119760211D01*
X220668939Y-119754792D02*
X220647869Y-119757549D01*
X222254732Y-114769784D02*
X222269610Y-114782528D01*
X220199277Y-113939054D02*
X220223347Y-113942011D01*
X221017012Y-114109965D02*
X221038234Y-114116560D01*
X222859655Y-118436974D02*
X222850837Y-118451963D01*
X222868376Y-118421910D02*
X222859655Y-118436974D01*
X222876998Y-118406771D02*
X222868376Y-118421910D01*
X223001425Y-118154472D02*
X222994402Y-118170791D01*
X223008348Y-118138081D02*
X223001425Y-118154472D01*
X223015169Y-118121617D02*
X223008348Y-118138081D01*
X223060733Y-115924905D02*
X223067277Y-115943270D01*
X223054067Y-115906609D02*
X223060733Y-115924905D01*
X223110338Y-117848454D02*
X223105167Y-117866059D01*
X223115404Y-117830780D02*
X223110338Y-117848454D01*
X223196641Y-116464258D02*
X223199642Y-116484457D01*
X223193509Y-116444121D02*
X223196641Y-116464258D01*
X222194196Y-114719643D02*
X222209483Y-114732052D01*
X222353405Y-124237996D02*
X222412773Y-124223356D01*
X222293817Y-124252366D02*
X222353405Y-124237996D01*
X222234009Y-124266465D02*
X222293817Y-124252366D01*
X222173982Y-124280293D02*
X222234009Y-124266465D01*
X222113736Y-124293850D02*
X222173982Y-124280293D01*
X221778121Y-119429168D02*
X221761618Y-119437280D01*
X221794541Y-119420970D02*
X221778121Y-119429168D01*
X221810877Y-119412686D02*
X221794541Y-119420970D01*
X221827131Y-119404315D02*
X221810877Y-119412686D01*
X221015931Y-119693546D02*
X220996113Y-119697895D01*
X221035674Y-119689105D02*
X221015931Y-119693546D01*
X221055341Y-119684572D02*
X221035674Y-119689105D01*
X221074933Y-119679947D02*
X221055341Y-119684572D01*
X223159510Y-116265749D02*
X223163801Y-116285311D01*
X223155091Y-116246251D02*
X223159510Y-116265749D01*
X221779813Y-114437383D02*
X221797550Y-114447620D01*
X222356715Y-114860740D02*
X222370869Y-114874064D01*
X221163788Y-114158165D02*
X221184415Y-114165437D01*
X220936209Y-119710384D02*
X220916092Y-119714362D01*
X220956252Y-119706314D02*
X220936209Y-119710384D01*
X220976220Y-119702151D02*
X220956252Y-119706314D01*
X220996113Y-119697895D02*
X220976220Y-119702151D01*
X220126624Y-113930812D02*
X220150915Y-113933454D01*
X221486461Y-119555163D02*
X221468578Y-119561781D01*
X221504264Y-119548457D02*
X221486461Y-119555163D01*
X221521987Y-119541662D02*
X221504264Y-119548457D01*
X223060055Y-118004353D02*
X223053950Y-118021320D01*
X223066056Y-117987314D02*
X223060055Y-118004353D01*
X223071954Y-117970205D02*
X223066056Y-117987314D01*
X222328970Y-119069286D02*
X222315652Y-119080513D01*
X222342198Y-119057978D02*
X222328970Y-119069286D01*
X222355337Y-119046589D02*
X222342198Y-119057978D01*
X220345419Y-119786123D02*
X220323288Y-119787443D01*
X220367480Y-119784707D02*
X220345419Y-119786123D01*
X220389471Y-119783194D02*
X220367480Y-119784707D01*
X220411392Y-119781584D02*
X220389471Y-119783194D01*
X221986351Y-114566082D02*
X222002933Y-114577377D01*
X221559665Y-114321575D02*
X221578519Y-114330724D01*
X222370869Y-114874064D02*
X222384919Y-114887470D01*
X220141443Y-124576262D02*
X220208126Y-124571408D01*
X220074564Y-124580826D02*
X220141443Y-124576262D01*
X220007488Y-124585100D02*
X220074564Y-124580826D01*
X219940217Y-124589083D02*
X220007488Y-124585100D01*
X219872752Y-124592774D02*
X219940217Y-124589083D01*
X221322665Y-119611499D02*
X221304072Y-119617309D01*
X221341179Y-119605599D02*
X221322665Y-119611499D01*
X221359615Y-119599608D02*
X221341179Y-119605599D01*
X222805279Y-118525778D02*
X222795875Y-118540314D01*
X222814586Y-118511166D02*
X222805279Y-118525778D01*
X222823795Y-118496479D02*
X222814586Y-118511166D01*
X223212687Y-116586389D02*
X223214902Y-116606961D01*
X223210341Y-116565879D02*
X223212687Y-116586389D01*
X220620940Y-114008122D02*
X220643630Y-114012931D01*
X222922244Y-115606254D02*
X222930953Y-115623354D01*
X222913417Y-115589226D02*
X222922244Y-115606254D01*
X222767087Y-115342601D02*
X222777646Y-115358522D01*
X222756415Y-115326755D02*
X222767087Y-115342601D01*
X222313629Y-114821262D02*
X222328095Y-114834339D01*
X220855295Y-119725735D02*
X220834882Y-119729339D01*
X220875635Y-119722037D02*
X220855295Y-119725735D01*
X220895900Y-119718246D02*
X220875635Y-119722037D01*
X220916092Y-119714362D02*
X220895900Y-119718246D01*
X226656424Y-121980492D02*
X226693725Y-121944310D01*
X226618843Y-122016453D02*
X226656424Y-121980492D01*
X226580982Y-122052194D02*
X226618843Y-122016453D01*
X226542842Y-122087713D02*
X226580982Y-122052194D01*
X226504423Y-122123010D02*
X226542842Y-122087713D01*
X226465727Y-122158085D02*
X226504423Y-122123010D01*
X226426755Y-122192937D02*
X226465727Y-122158085D01*
X220529392Y-113989899D02*
X220552397Y-113994303D01*
X223632617Y-109548699D02*
X223580295Y-109533927D01*
X223684708Y-109563701D02*
X223632617Y-109548699D01*
X223736569Y-109578934D02*
X223684708Y-109563701D01*
X223788197Y-109594397D02*
X223736569Y-109578934D01*
X223839594Y-109610090D02*
X223788197Y-109594397D01*
X223890759Y-109626012D02*
X223839594Y-109610090D01*
X223941690Y-109642163D02*
X223890759Y-109626012D01*
X223992389Y-109658543D02*
X223941690Y-109642163D01*
X224042854Y-109675152D02*
X223992389Y-109658543D01*
X224093086Y-109691988D02*
X224042854Y-109675152D01*
X224143083Y-109709053D02*
X224093086Y-109691988D01*
X224192845Y-109726345D02*
X224143083Y-109709053D01*
X224242372Y-109743864D02*
X224192845Y-109726345D01*
X224291664Y-109761611D02*
X224242372Y-109743864D01*
X223041432Y-118055040D02*
X223035020Y-118071792D01*
X223047742Y-118038216D02*
X223041432Y-118055040D01*
X223053950Y-118021320D02*
X223047742Y-118038216D01*
X227870619Y-120455984D02*
X227896766Y-120411855D01*
X227844166Y-120499914D02*
X227870619Y-120455984D01*
X227817408Y-120543645D02*
X227844166Y-120499914D01*
X227790344Y-120587176D02*
X227817408Y-120543645D01*
X227762977Y-120630507D02*
X227790344Y-120587176D01*
X227735306Y-120673636D02*
X227762977Y-120630507D01*
X227707333Y-120716565D02*
X227735306Y-120673636D01*
X227679058Y-120759291D02*
X227707333Y-120716565D01*
X222980050Y-118203211D02*
X222972723Y-118219311D01*
X222987277Y-118187037D02*
X222980050Y-118203211D01*
X222994402Y-118170791D02*
X222987277Y-118187037D01*
X221094449Y-119675230D02*
X221074933Y-119679947D01*
X221113889Y-119670421D02*
X221094449Y-119675230D01*
X221133253Y-119665520D02*
X221113889Y-119670421D01*
X221152541Y-119660528D02*
X221133253Y-119665520D01*
X228604607Y-114066868D02*
X228590448Y-114021479D01*
X228618477Y-114112442D02*
X228604607Y-114066868D01*
X228632057Y-114158202D02*
X228618477Y-114112442D01*
X228645349Y-114204146D02*
X228632057Y-114158202D01*
X228658350Y-114250276D02*
X228645349Y-114204146D01*
X228671060Y-114296590D02*
X228658350Y-114250276D01*
X228683480Y-114343087D02*
X228671060Y-114296590D01*
X228695608Y-114389769D02*
X228683480Y-114343087D01*
X228707445Y-114436634D02*
X228695608Y-114389769D01*
X228718990Y-114483682D02*
X228707445Y-114436634D01*
X228730242Y-114530914D02*
X228718990Y-114483682D01*
X228741202Y-114578327D02*
X228730242Y-114530914D01*
X222666993Y-115202729D02*
X222678562Y-115217964D01*
X222517898Y-118891174D02*
X222505942Y-118903610D01*
X222529763Y-118878659D02*
X222517898Y-118891174D01*
X222541535Y-118866064D02*
X222529763Y-118878659D01*
X220472875Y-124549106D02*
X220538563Y-124542812D01*
X220406986Y-124555114D02*
X220472875Y-124549106D01*
X220340898Y-124560833D02*
X220406986Y-124555114D01*
X220274611Y-124566265D02*
X220340898Y-124560833D01*
X220208126Y-124571408D02*
X220274611Y-124566265D01*
X221615952Y-114349299D02*
X221634531Y-114358723D01*
X222619613Y-115142564D02*
X222631623Y-115157488D01*
X228164995Y-112988631D02*
X228143742Y-112947983D01*
X228185968Y-113029473D02*
X228164995Y-112988631D01*
X228206663Y-113070508D02*
X228185968Y-113029473D01*
X228227077Y-113111736D02*
X228206663Y-113070508D01*
X228247211Y-113153156D02*
X228227077Y-113111736D01*
X228267065Y-113194768D02*
X228247211Y-113153156D01*
X228286638Y-113236572D02*
X228267065Y-113194768D01*
X228305929Y-113278567D02*
X228286638Y-113236572D01*
X228324938Y-113320753D02*
X228305929Y-113278567D01*
X228343666Y-113363130D02*
X228324938Y-113320753D01*
X228362110Y-113405698D02*
X228343666Y-113363130D01*
X228380272Y-113448456D02*
X228362110Y-113405698D01*
X228398151Y-113491404D02*
X228380272Y-113448456D01*
X220389740Y-113965628D02*
X220413208Y-113969417D01*
X221884812Y-114500143D02*
X221901977Y-114510913D01*
X223197295Y-117443660D02*
X223194469Y-117462775D01*
X223200013Y-117424477D02*
X223197295Y-117443660D01*
X221901977Y-114510913D02*
X221919046Y-114521771D01*
X223202513Y-116504719D02*
X223205253Y-116525044D01*
X223199642Y-116484457D02*
X223202513Y-116504719D01*
X219854642Y-113908754D02*
X219879725Y-113910225D01*
X227650481Y-120801814D02*
X227679058Y-120759291D01*
X227621604Y-120844135D02*
X227650481Y-120801814D01*
X227592426Y-120886251D02*
X227621604Y-120844135D01*
X227562950Y-120928163D02*
X227592426Y-120886251D01*
X227533174Y-120969871D02*
X227562950Y-120928163D01*
X227503101Y-121011373D02*
X227533174Y-120969871D01*
X227472731Y-121052669D02*
X227503101Y-121011373D01*
X227442064Y-121093758D02*
X227472731Y-121052669D01*
X222988596Y-115745061D02*
X222996353Y-115762731D01*
X222980718Y-115727461D02*
X222988596Y-115745061D01*
X221171752Y-119655444D02*
X221152541Y-119660528D01*
X221190886Y-119650269D02*
X221171752Y-119655444D01*
X221209944Y-119645003D02*
X221190886Y-119650269D01*
X221228924Y-119639646D02*
X221209944Y-119645003D01*
X219728182Y-113903018D02*
X219753613Y-113903949D01*
X222019417Y-114588760D02*
X222035804Y-114600229D01*
X221540720Y-114312517D02*
X221559665Y-114321575D01*
X226911608Y-121722629D02*
X226946928Y-121684922D01*
X226876003Y-121760120D02*
X226911608Y-121722629D01*
X226840114Y-121797394D02*
X226876003Y-121760120D01*
X226803940Y-121834450D02*
X226840114Y-121797394D01*
X226767484Y-121871289D02*
X226803940Y-121834450D01*
X226730746Y-121907909D02*
X226767484Y-121871289D01*
X226693725Y-121944310D02*
X226730746Y-121907909D01*
X223226690Y-116752671D02*
X223227840Y-116773728D01*
X223225405Y-116731674D02*
X223226690Y-116752671D01*
X220366196Y-113961943D02*
X220389740Y-113965628D01*
X228071167Y-120097439D02*
X228094841Y-120051741D01*
X228047182Y-120142942D02*
X228071167Y-120097439D01*
X228022886Y-120188251D02*
X228047182Y-120142942D01*
X227998280Y-120233365D02*
X228022886Y-120188251D01*
X227973364Y-120278283D02*
X227998280Y-120233365D01*
X227948139Y-120323004D02*
X227973364Y-120278283D01*
X227922606Y-120367528D02*
X227948139Y-120323004D01*
X227896766Y-120411855D02*
X227922606Y-120367528D01*
X222910498Y-118345469D02*
X222902271Y-118360906D01*
X222918625Y-118329958D02*
X222910498Y-118345469D01*
X222926653Y-118314372D02*
X222918625Y-118329958D01*
X222654133Y-118735776D02*
X222643295Y-118749157D01*
X222664877Y-118722316D02*
X222654133Y-118735776D01*
X222675526Y-118708779D02*
X222664877Y-118722316D01*
X228751868Y-114625923D02*
X228741202Y-114578327D01*
X228762240Y-114673701D02*
X228751868Y-114625923D01*
X228772319Y-114721661D02*
X228762240Y-114673701D01*
X228782103Y-114769802D02*
X228772319Y-114721661D01*
X228791592Y-114818124D02*
X228782103Y-114769802D01*
X228800787Y-114866626D02*
X228791592Y-114818124D01*
X228809685Y-114915309D02*
X228800787Y-114866626D01*
X228818288Y-114964172D02*
X228809685Y-114915309D01*
X228826594Y-115013215D02*
X228818288Y-114964172D01*
X228834603Y-115062438D02*
X228826594Y-115013215D01*
X228842315Y-115111839D02*
X228834603Y-115062438D01*
X228849729Y-115161420D02*
X228842315Y-115111839D01*
X223227623Y-117128778D02*
X223226556Y-117148950D01*
X223228578Y-117108540D02*
X223227623Y-117128778D01*
X227133316Y-111549572D02*
X227101491Y-111516700D01*
X227164878Y-111582649D02*
X227133316Y-111549572D01*
X227196175Y-111615932D02*
X227164878Y-111582649D01*
X227227208Y-111649419D02*
X227196175Y-111615932D01*
X227257976Y-111683110D02*
X227227208Y-111649419D01*
X227288479Y-111717005D02*
X227257976Y-111683110D01*
X227318717Y-111751104D02*
X227288479Y-111717005D01*
X227348689Y-111785406D02*
X227318717Y-111751104D01*
X227378394Y-111819912D02*
X227348689Y-111785406D01*
X227407832Y-111854620D02*
X227378394Y-111819912D01*
X227437004Y-111889530D02*
X227407832Y-111854620D01*
X227465908Y-111924643D02*
X227437004Y-111889530D01*
X227494544Y-111959958D02*
X227465908Y-111924643D01*
X222553214Y-118853389D02*
X222541535Y-118866064D01*
X222564801Y-118840636D02*
X222553214Y-118853389D01*
X222576294Y-118827803D02*
X222564801Y-118840636D01*
X222808639Y-115406736D02*
X222818742Y-115422957D01*
X222798422Y-115390590D02*
X222808639Y-115406736D01*
X221055697Y-109116927D02*
X220993402Y-109112850D01*
X221117780Y-109121248D02*
X221055697Y-109116927D01*
X221179650Y-109125813D02*
X221117780Y-109121248D01*
X221241306Y-109130622D02*
X221179650Y-109125813D01*
X221302747Y-109135675D02*
X221241306Y-109130622D01*
X221363975Y-109140971D02*
X221302747Y-109135675D01*
X221424987Y-109146510D02*
X221363975Y-109140971D01*
X221485784Y-109152291D02*
X221424987Y-109146510D01*
X221546365Y-109158315D02*
X221485784Y-109152291D01*
X221606730Y-109164580D02*
X221546365Y-109158315D01*
X221666879Y-109171087D02*
X221606730Y-109164580D01*
X221726811Y-109177836D02*
X221666879Y-109171087D01*
X221786525Y-109184825D02*
X221726811Y-109177836D01*
X221846022Y-109192056D02*
X221786525Y-109184825D01*
X221905301Y-109199526D02*
X221846022Y-109192056D01*
X221122277Y-114143910D02*
X221143076Y-114150989D01*
X223167964Y-116304939D02*
X223172000Y-116324630D01*
X223163801Y-116285311D02*
X223167964Y-116304939D01*
X223225378Y-117169058D02*
X223224089Y-117189101D01*
X223226556Y-117148950D02*
X223225378Y-117169058D01*
X223222689Y-117209078D02*
X223221178Y-117228990D01*
X223224089Y-117189101D02*
X223222689Y-117209078D01*
X223164172Y-117631771D02*
X223160269Y-117650208D01*
X223167968Y-117613266D02*
X223164172Y-117631771D01*
X222655313Y-115187571D02*
X222666993Y-115202729D01*
X223191534Y-117481823D02*
X223188491Y-117500804D01*
X223194469Y-117462775D02*
X223191534Y-117481823D01*
X223207513Y-117366528D02*
X223205122Y-117385911D01*
X223209795Y-117347078D02*
X223207513Y-117366528D01*
X222621336Y-118775686D02*
X222610216Y-118788833D01*
X222632363Y-118762461D02*
X222621336Y-118775686D01*
X222643295Y-118749157D02*
X222632363Y-118762461D01*
X228856846Y-115211179D02*
X228849729Y-115161420D01*
X228863664Y-115261116D02*
X228856846Y-115211179D01*
X228870183Y-115311232D02*
X228863664Y-115261116D01*
X228876404Y-115361525D02*
X228870183Y-115311232D01*
X228882324Y-115411995D02*
X228876404Y-115361525D01*
X228887945Y-115462643D02*
X228882324Y-115411995D01*
X228893265Y-115513467D02*
X228887945Y-115462643D01*
X228898285Y-115564467D02*
X228893265Y-115513467D01*
X228903003Y-115615644D02*
X228898285Y-115564467D01*
X228907420Y-115666997D02*
X228903003Y-115615644D01*
X228911535Y-115718525D02*
X228907420Y-115666997D01*
X221521684Y-114303551D02*
X221540720Y-114312517D01*
X221891310Y-119369971D02*
X221875391Y-119378686D01*
X221907145Y-119361170D02*
X221891310Y-119369971D01*
X221922895Y-119352284D02*
X221907145Y-119361170D01*
X220866126Y-114066541D02*
X220887930Y-114072449D01*
X220519946Y-119772094D02*
X220498377Y-119774184D01*
X220541445Y-119769908D02*
X220519946Y-119772094D01*
X220562873Y-119767627D02*
X220541445Y-119769908D01*
X220584229Y-119765250D02*
X220562873Y-119767627D01*
X223823304Y-123771274D02*
X223876699Y-123749813D01*
X223769670Y-123792479D02*
X223823304Y-123771274D01*
X223715799Y-123813429D02*
X223769670Y-123792479D01*
X223661691Y-123834122D02*
X223715799Y-123813429D01*
X223607347Y-123854558D02*
X223661691Y-123834122D01*
X223552768Y-123874737D02*
X223607347Y-123854558D01*
X220459913Y-113977302D02*
X220483150Y-113981399D01*
X223230483Y-116837256D02*
X223231094Y-116858551D01*
X223229737Y-116816021D02*
X223230483Y-116837256D01*
X223156259Y-117668576D02*
X223152143Y-117686876D01*
X223160269Y-117650208D02*
X223156259Y-117668576D01*
X221985052Y-119315886D02*
X221969640Y-119325113D01*
X222000378Y-119306574D02*
X221985052Y-119315886D01*
X222015620Y-119297177D02*
X222000378Y-119306574D01*
X220822274Y-114055021D02*
X220844241Y-114060731D01*
X220688772Y-114022852D02*
X220711223Y-114027964D01*
X223033334Y-115852134D02*
X223040367Y-115870223D01*
X223026180Y-115834114D02*
X223033334Y-115852134D01*
X222084369Y-114635155D02*
X222100359Y-114646969D01*
X220175133Y-113936201D02*
X220199277Y-113939054D01*
X222068280Y-114623427D02*
X222084369Y-114635155D01*
X220256482Y-119790820D02*
X220234075Y-119791751D01*
X220278820Y-119789791D02*
X220256482Y-119790820D01*
X220301088Y-119788666D02*
X220278820Y-119789791D01*
X220323288Y-119787443D02*
X220301088Y-119788666D01*
X222052091Y-114611785D02*
X222068280Y-114623427D01*
X222595263Y-115112949D02*
X222607492Y-115127717D01*
X220436599Y-113973308D02*
X220459913Y-113977302D01*
X223089028Y-117918450D02*
X223083441Y-117935772D01*
X223094512Y-117901057D02*
X223089028Y-117918450D01*
X222247726Y-119135416D02*
X222233875Y-119146150D01*
X222261489Y-119124600D02*
X222247726Y-119135416D01*
X222275163Y-119113701D02*
X222261489Y-119124600D01*
X221120641Y-124473344D02*
X221184290Y-124464211D01*
X221056784Y-124482195D02*
X221120641Y-124473344D01*
X220992722Y-124490765D02*
X221056784Y-124482195D01*
X220928453Y-124499052D02*
X220992722Y-124490765D01*
X220863980Y-124507056D02*
X220928453Y-124499052D01*
X220887930Y-114072449D02*
X220909651Y-114078456D01*
X220909651Y-114078456D02*
X220931289Y-114084562D01*
X220931289Y-114084562D02*
X220952845Y-114090766D01*
X220271264Y-113948239D02*
X220295110Y-113951509D01*
X221815193Y-114457947D02*
X221832741Y-114468363D01*
X223223988Y-116710737D02*
X223225405Y-116731674D01*
X223222436Y-116689860D02*
X223223988Y-116710737D01*
X219879725Y-113910225D02*
X219904737Y-113911803D01*
X222519600Y-115025995D02*
X222532481Y-115040289D01*
X223230773Y-117047438D02*
X223230153Y-117067870D01*
X223231280Y-117026942D02*
X223230773Y-117047438D01*
X223139158Y-117741360D02*
X223134618Y-117759383D01*
X223143592Y-117723268D02*
X223139158Y-117741360D01*
X220318881Y-113954883D02*
X220342576Y-113958361D01*
X223231675Y-117006381D02*
X223231280Y-117026942D01*
X223231957Y-116985757D02*
X223231675Y-117006381D01*
X220433244Y-119779878D02*
X220411392Y-119781584D01*
X220455025Y-119778076D02*
X220433244Y-119779878D01*
X220476736Y-119776178D02*
X220455025Y-119778076D01*
X220498377Y-119774184D02*
X220476736Y-119776178D01*
X222002933Y-114577377D02*
X222019417Y-114588760D01*
X220099124Y-109081607D02*
X220033681Y-109081233D01*
X220164359Y-109082230D02*
X220099124Y-109081607D01*
X220229387Y-109083102D02*
X220164359Y-109082230D01*
X220294207Y-109084222D02*
X220229387Y-109083102D01*
X220358819Y-109085591D02*
X220294207Y-109084222D01*
X220423223Y-109087207D02*
X220358819Y-109085591D01*
X220487417Y-109089070D02*
X220423223Y-109087207D01*
X220551402Y-109091181D02*
X220487417Y-109089070D01*
X220615177Y-109093538D02*
X220551402Y-109091181D01*
X220678742Y-109096142D02*
X220615177Y-109093538D01*
X220742097Y-109098992D02*
X220678742Y-109096142D01*
X220805241Y-109102089D02*
X220742097Y-109098992D01*
X220868173Y-109105430D02*
X220805241Y-109102089D01*
X220930893Y-109109018D02*
X220868173Y-109105430D01*
X220993402Y-109112850D02*
X220930893Y-109109018D01*
X220711223Y-114027964D02*
X220733595Y-114033175D01*
X222848361Y-115472066D02*
X222858004Y-115488583D01*
X222838603Y-115455622D02*
X222848361Y-115472066D01*
X221464032Y-114277210D02*
X221483340Y-114285898D01*
X222937046Y-124079542D02*
X222994171Y-124062234D01*
X222879694Y-124096587D02*
X222937046Y-124079542D01*
X222822115Y-124113366D02*
X222879694Y-124096587D01*
X222764310Y-124129880D02*
X222822115Y-124113366D01*
X222706280Y-124146127D02*
X222764310Y-124129880D01*
X223497954Y-123894657D02*
X223552768Y-123874737D01*
X223442905Y-123914319D02*
X223497954Y-123894657D01*
X223387623Y-123933722D02*
X223442905Y-123914319D01*
X223332109Y-123952864D02*
X223387623Y-123933722D01*
X223276362Y-123971747D02*
X223332109Y-123952864D01*
X222100359Y-114646969D02*
X222116249Y-114658868D01*
X228936758Y-116296830D02*
X228935990Y-116243391D01*
X228937218Y-116350440D02*
X228936758Y-116296830D01*
X228937372Y-116404222D02*
X228937218Y-116350440D01*
X228937192Y-116462103D02*
X228937372Y-116404222D01*
X228936653Y-116519829D02*
X228937192Y-116462103D01*
X228935756Y-116577401D02*
X228936653Y-116519829D01*
X228934501Y-116634816D02*
X228935756Y-116577401D01*
X228932889Y-116692076D02*
X228934501Y-116634816D01*
X228930921Y-116749179D02*
X228932889Y-116692076D01*
X228928597Y-116806124D02*
X228930921Y-116749179D01*
X219651477Y-113900880D02*
X219677114Y-113901484D01*
X221761980Y-114427235D02*
X221779813Y-114437383D01*
X221502557Y-114294678D02*
X221521684Y-114303551D01*
X220773200Y-119739590D02*
X220752493Y-119742819D01*
X220793834Y-119736267D02*
X220773200Y-119739590D01*
X220814394Y-119732850D02*
X220793834Y-119736267D01*
X220834882Y-119729339D02*
X220814394Y-119732850D01*
X223099892Y-117883593D02*
X223094512Y-117901057D01*
X223105167Y-117866059D02*
X223099892Y-117883593D01*
X217241617Y-113899505D02*
X219522278Y-113899505D01*
X217241617Y-119795731D02*
X217241617Y-113899505D01*
X220029353Y-119795731D02*
X217241617Y-119795731D01*
X220052370Y-119795682D02*
X220029353Y-119795731D01*
X225590197Y-122842275D02*
X225634565Y-122812002D01*
X225545566Y-122872314D02*
X225590197Y-122842275D01*
X225500673Y-122902116D02*
X225545566Y-122872314D01*
X225455519Y-122931683D02*
X225500673Y-122902116D01*
X225410105Y-122961013D02*
X225455519Y-122931683D01*
X225364430Y-122990106D02*
X225410105Y-122961013D01*
X222648025Y-124162109D02*
X222706280Y-124146127D01*
X222589546Y-124177823D02*
X222648025Y-124162109D01*
X222530844Y-124193269D02*
X222589546Y-124177823D01*
X222471919Y-124208447D02*
X222530844Y-124193269D01*
X222412773Y-124223356D02*
X222471919Y-124208447D01*
X222747408Y-118611851D02*
X222737425Y-118625929D01*
X222757294Y-118597697D02*
X222747408Y-118611851D01*
X222767084Y-118583465D02*
X222757294Y-118597697D01*
X228415746Y-113534541D02*
X228398151Y-113491404D01*
X228433056Y-113577868D02*
X228415746Y-113534541D01*
X228450082Y-113621384D02*
X228433056Y-113577868D01*
X228466823Y-113665088D02*
X228450082Y-113621384D01*
X228483279Y-113708981D02*
X228466823Y-113665088D01*
X228499449Y-113753062D02*
X228483279Y-113708981D01*
X228515333Y-113797330D02*
X228499449Y-113753062D01*
X228530931Y-113841786D02*
X228515333Y-113797330D01*
X228546241Y-113886430D02*
X228530931Y-113841786D01*
X228561265Y-113931260D02*
X228546241Y-113886430D01*
X228576000Y-113976276D02*
X228561265Y-113931260D01*
X228590448Y-114021479D02*
X228576000Y-113976276D01*
X226105086Y-122463657D02*
X226146249Y-122430610D01*
X226063651Y-122496477D02*
X226105086Y-122463657D01*
X226021947Y-122529068D02*
X226063651Y-122496477D01*
X225979973Y-122561429D02*
X226021947Y-122529068D01*
X225937731Y-122593561D02*
X225979973Y-122561429D01*
X225895220Y-122625463D02*
X225937731Y-122593561D01*
X222406992Y-119000219D02*
X222394214Y-119011933D01*
X222419680Y-118988424D02*
X222406992Y-119000219D01*
X222432277Y-118976549D02*
X222419680Y-118988424D01*
X142111900Y-123387712D02*
X146647278Y-123387712D01*
X142111900Y-107972618D02*
X142111900Y-123387712D01*
X134218032Y-107972618D02*
X142111900Y-107972618D01*
X134218032Y-123387712D02*
X134218032Y-107972618D01*
X129682655Y-123387712D02*
X134218032Y-123387712D01*
X138166146Y-131871203D02*
X129682655Y-123387712D01*
X146647278Y-123387712D02*
X138166146Y-131871203D01*
X223211967Y-117327562D02*
X223209795Y-117347078D01*
X223214029Y-117307980D02*
X223211967Y-117327562D01*
X219805092Y-124596173D02*
X219872752Y-124592774D01*
X219737239Y-124599280D02*
X219805092Y-124596173D01*
X219669193Y-124602093D02*
X219737239Y-124599280D01*
X219600955Y-124604613D02*
X219669193Y-124602093D01*
X219532526Y-124606838D02*
X219600955Y-124604613D01*
X228798841Y-117964626D02*
X228808477Y-117911116D01*
X228788864Y-118017967D02*
X228798841Y-117964626D01*
X228778548Y-118071137D02*
X228788864Y-118017967D01*
X228767891Y-118124136D02*
X228778548Y-118071137D01*
X228756897Y-118176964D02*
X228767891Y-118124136D01*
X228745564Y-118229619D02*
X228756897Y-118176964D01*
X228733894Y-118282102D02*
X228745564Y-118229619D01*
X228721887Y-118334412D02*
X228733894Y-118282102D01*
X228709545Y-118386548D02*
X228721887Y-118334412D01*
X228696867Y-118438510D02*
X228709545Y-118386548D01*
X223120614Y-116111599D02*
X223125917Y-116130638D01*
X223115185Y-116092628D02*
X223120614Y-116111599D01*
X222545254Y-115054663D02*
X222557919Y-115069116D01*
X220995707Y-114103467D02*
X221017012Y-114109965D01*
X222972721Y-115709932D02*
X222980718Y-115727461D01*
X222964605Y-115692474D02*
X222972721Y-115709932D01*
X220166445Y-119793960D02*
X220143765Y-119794501D01*
X220189057Y-119793321D02*
X220166445Y-119793960D01*
X220211600Y-119792585D02*
X220189057Y-119793321D01*
X220234075Y-119791751D02*
X220211600Y-119792585D01*
X222832907Y-118481716D02*
X222823795Y-118496479D01*
X222841921Y-118466877D02*
X222832907Y-118481716D01*
X222850837Y-118451963D02*
X222841921Y-118466877D01*
X221377973Y-119593527D02*
X221359615Y-119599608D01*
X221396252Y-119587357D02*
X221377973Y-119593527D01*
X221414452Y-119581097D02*
X221396252Y-119587357D01*
X221643796Y-119491621D02*
X221626638Y-119499034D01*
X221660874Y-119484120D02*
X221643796Y-119491621D01*
X221677869Y-119476531D02*
X221660874Y-119484120D01*
X221694783Y-119468855D02*
X221677869Y-119476531D01*
X223231570Y-116879904D02*
X223231911Y-116901316D01*
X223231094Y-116858551D02*
X223231570Y-116879904D01*
X221747711Y-124369452D02*
X221809253Y-124357537D01*
X221685954Y-124381091D02*
X221747711Y-124369452D01*
X221623985Y-124392454D02*
X221685954Y-124381091D01*
X221561803Y-124403539D02*
X221623985Y-124392454D01*
X221499410Y-124414348D02*
X221561803Y-124403539D01*
X220643630Y-114012931D02*
X220666240Y-114017841D01*
X221843301Y-119395858D02*
X221827131Y-119404315D01*
X221859388Y-119387315D02*
X221843301Y-119395858D01*
X221875391Y-119378686D02*
X221859388Y-119387315D01*
X223003991Y-115780472D02*
X223011508Y-115798283D01*
X222996353Y-115762731D02*
X223003991Y-115780472D01*
X222288748Y-119102720D02*
X222275163Y-119113701D01*
X222302245Y-119091658D02*
X222288748Y-119102720D01*
X222315652Y-119080513D02*
X222302245Y-119091658D01*
X224140079Y-123638701D02*
X224192031Y-123615721D01*
X224087885Y-123661430D02*
X224140079Y-123638701D01*
X224035449Y-123683906D02*
X224087885Y-123661430D01*
X223982772Y-123706129D02*
X224035449Y-123683906D01*
X223929855Y-123728098D02*
X223982772Y-123706129D01*
X223876699Y-123749813D02*
X223929855Y-123728098D01*
X222030775Y-119287696D02*
X222015620Y-119297177D01*
X222045846Y-119278130D02*
X222030775Y-119287696D01*
X222060830Y-119268480D02*
X222045846Y-119278130D01*
X220799302Y-124514777D02*
X220863980Y-124507056D01*
X220734421Y-124522213D02*
X220799302Y-124514777D01*
X220669337Y-124529365D02*
X220734421Y-124522213D01*
X220604051Y-124536231D02*
X220669337Y-124529365D01*
X220538563Y-124542812D02*
X220604051Y-124536231D01*
X221850194Y-114478868D02*
X221867551Y-114489461D01*
X228925918Y-116862911D02*
X228928597Y-116806124D01*
X228922885Y-116919540D02*
X228925918Y-116862911D01*
X228919498Y-116976010D02*
X228922885Y-116919540D01*
X228915759Y-117032321D02*
X228919498Y-116976010D01*
X228911667Y-117088471D02*
X228915759Y-117032321D01*
X228907223Y-117144460D02*
X228911667Y-117088471D01*
X228902429Y-117200288D02*
X228907223Y-117144460D01*
X228897284Y-117255954D02*
X228902429Y-117200288D01*
X228891790Y-117311458D02*
X228897284Y-117255954D01*
X228885947Y-117366799D02*
X228891790Y-117311458D01*
X228879755Y-117421976D02*
X228885947Y-117366799D01*
X228873216Y-117476989D02*
X228879755Y-117421976D01*
X228866331Y-117531837D02*
X228873216Y-117476989D01*
X228859099Y-117586520D02*
X228866331Y-117531837D01*
X228851522Y-117641038D02*
X228859099Y-117586520D01*
X228843599Y-117695388D02*
X228851522Y-117641038D01*
X228835333Y-117749572D02*
X228843599Y-117695388D01*
X228826724Y-117803588D02*
X228835333Y-117749572D01*
X228817771Y-117857437D02*
X228826724Y-117803588D01*
X228808477Y-117911116D02*
X228817771Y-117857437D01*
X220028728Y-113921300D02*
X220053311Y-113923519D01*
X219979346Y-113917181D02*
X220004073Y-113919188D01*
X220004073Y-113919188D02*
X220028728Y-113921300D01*
X222224668Y-114744545D02*
X222239751Y-114757122D01*
X222776778Y-118569158D02*
X222767084Y-118583465D01*
X222786375Y-118554774D02*
X222776778Y-118569158D01*
X222795875Y-118540314D02*
X222786375Y-118554774D01*
X221969670Y-114554873D02*
X221986351Y-114566082D01*
X222643523Y-115172491D02*
X222655313Y-115187571D01*
X221483340Y-114285898D02*
X221502557Y-114294678D01*
X221405572Y-114251705D02*
X221425148Y-114260113D01*
X220689936Y-119751941D02*
X220668939Y-119754792D01*
X220710861Y-119748995D02*
X220689936Y-119751941D01*
X220731713Y-119745954D02*
X220710861Y-119748995D01*
X220752493Y-119742819D02*
X220731713Y-119745954D01*
X220778096Y-114043899D02*
X220800226Y-114049410D01*
X219829490Y-113907390D02*
X219854642Y-113908754D01*
X222178808Y-114707318D02*
X222194196Y-114719643D01*
X220755886Y-114038487D02*
X220778096Y-114043899D01*
X222342457Y-114847498D02*
X222356715Y-114860740D01*
X220053311Y-113923519D02*
X220077821Y-113925844D01*
X223202622Y-117405227D02*
X223200013Y-117424477D01*
X223205122Y-117385911D02*
X223202622Y-117405227D01*
X219954547Y-113915282D02*
X219979346Y-113917181D01*
X219753613Y-113903949D02*
X219778975Y-113904988D01*
X221711615Y-119461092D02*
X221694783Y-119468855D01*
X221728365Y-119453242D02*
X221711615Y-119461092D01*
X221745033Y-119445304D02*
X221728365Y-119453242D01*
X221761618Y-119437280D02*
X221745033Y-119445304D01*
X221964361Y-109207237D02*
X221905301Y-109199526D01*
X222023202Y-109215188D02*
X221964361Y-109207237D01*
X222081825Y-109223378D02*
X222023202Y-109215188D01*
X222140227Y-109231807D02*
X222081825Y-109223378D01*
X222198409Y-109240476D02*
X222140227Y-109231807D01*
X222256371Y-109249382D02*
X222198409Y-109240476D01*
X222314113Y-109258527D02*
X222256371Y-109249382D01*
X222371632Y-109267911D02*
X222314113Y-109258527D01*
X222428931Y-109277531D02*
X222371632Y-109267911D01*
X222486007Y-109287389D02*
X222428931Y-109277531D01*
X222542861Y-109297485D02*
X222486007Y-109287389D01*
X222599492Y-109307817D02*
X222542861Y-109297485D01*
X222655899Y-109318385D02*
X222599492Y-109307817D01*
X222712083Y-109329189D02*
X222655899Y-109318385D01*
X222768044Y-109340230D02*
X222712083Y-109329189D01*
X175031712Y-131824033D02*
X163036429Y-131824033D01*
X175031712Y-119828750D02*
X175031712Y-131824033D01*
X171828881Y-123031580D02*
X175031712Y-119828750D01*
X160916146Y-112135354D02*
X171828881Y-123031580D01*
X155345391Y-117708467D02*
X160916146Y-112135354D01*
X166241617Y-128621203D02*
X155345391Y-117708467D01*
X163036429Y-131824033D02*
X166241617Y-128621203D01*
X195229825Y-117196675D02*
X195229825Y-112663656D01*
X179814730Y-117196675D02*
X195229825Y-117196675D01*
X179814730Y-125090543D02*
X179814730Y-117196675D01*
X195229825Y-125090543D02*
X179814730Y-125090543D01*
X195229825Y-129625920D02*
X195229825Y-125090543D01*
X203710957Y-121144788D02*
X195229825Y-129625920D01*
X195229825Y-112663656D02*
X203710957Y-121144788D01*
X211758127Y-109081109D02*
X211758127Y-131081109D01*
X219968032Y-109081109D02*
X211758127Y-109081109D01*
X220033681Y-109081233D02*
X219968032Y-109081109D01*
X222885521Y-118391558D02*
X222876998Y-118406771D01*
X222893946Y-118376269D02*
X222885521Y-118391558D01*
X222902271Y-118360906D02*
X222893946Y-118376269D01*
X223220384Y-123990368D02*
X223276362Y-123971747D01*
X223164175Y-124008728D02*
X223220384Y-123990368D01*
X223107736Y-124026826D02*
X223164175Y-124008728D01*
X223051068Y-124044662D02*
X223107736Y-124026826D01*
X222994171Y-124062234D02*
X223051068Y-124044662D01*
X220733595Y-114033175D02*
X220755886Y-114038487D01*
X222239751Y-114757122D02*
X222254732Y-114769784D01*
X223129972Y-117777337D02*
X223125221Y-117795221D01*
X223134618Y-117759383D02*
X223129972Y-117777337D01*
X225002513Y-110054832D02*
X224956801Y-110033718D01*
X225047983Y-110076168D02*
X225002513Y-110054832D01*
X225093211Y-110097725D02*
X225047983Y-110076168D01*
X225138196Y-110119504D02*
X225093211Y-110097725D01*
X225182938Y-110141505D02*
X225138196Y-110119504D01*
X225227437Y-110163726D02*
X225182938Y-110141505D01*
X225271693Y-110186167D02*
X225227437Y-110163726D01*
X225315704Y-110208829D02*
X225271693Y-110186167D01*
X225359470Y-110231711D02*
X225315704Y-110208829D01*
X225402992Y-110254812D02*
X225359470Y-110231711D01*
X225446268Y-110278133D02*
X225402992Y-110254812D01*
X225489298Y-110301673D02*
X225446268Y-110278133D01*
X225532082Y-110325431D02*
X225489298Y-110301673D01*
X225574620Y-110349408D02*
X225532082Y-110325431D01*
X222209483Y-114732052D02*
X222224668Y-114744545D01*
X220077821Y-113925844D02*
X220102259Y-113928275D01*
X222587695Y-118814892D02*
X222576294Y-118827803D01*
X222599002Y-118801902D02*
X222587695Y-118814892D01*
X222610216Y-118788833D02*
X222599002Y-118801902D01*
X223021888Y-118105081D02*
X223015169Y-118121617D01*
X223028505Y-118088472D02*
X223021888Y-118105081D01*
X223035020Y-118071792D02*
X223028505Y-118088472D01*
X221867551Y-114489461D02*
X221884812Y-114500143D01*
X219625773Y-113900385D02*
X219651477Y-113900880D01*
X221204956Y-114172804D02*
X221225411Y-114180267D01*
X221245779Y-114187826D02*
X221266060Y-114195479D01*
X223216984Y-116627594D02*
X223218934Y-116648289D01*
X223214902Y-116606961D02*
X223216984Y-116627594D01*
X222745630Y-115310985D02*
X222756415Y-115326755D01*
X222734732Y-115295291D02*
X222745630Y-115310985D01*
X220075320Y-119795534D02*
X220052370Y-119795682D01*
X220098203Y-119795288D02*
X220075320Y-119795534D01*
X220121018Y-119794943D02*
X220098203Y-119795288D01*
X220143765Y-119794501D02*
X220121018Y-119794943D01*
X222886235Y-115538576D02*
X222895413Y-115555386D01*
X222876941Y-115521838D02*
X222886235Y-115538576D01*
X221832741Y-114468363D02*
X221850194Y-114478868D01*
X223220752Y-116669044D02*
X223222436Y-116689860D01*
X223218934Y-116648289D02*
X223220752Y-116669044D01*
X222678562Y-115217964D02*
X222690019Y-115233276D01*
X222723722Y-115279672D02*
X222734732Y-115295291D01*
X222712600Y-115264130D02*
X222723722Y-115279672D01*
X220666240Y-114017841D02*
X220688772Y-114022852D01*
X222788091Y-115374519D02*
X222798422Y-115390590D01*
X222777646Y-115358522D02*
X222788091Y-115374519D01*
X223232127Y-116965068D02*
X223231957Y-116985757D01*
X223232183Y-116944316D02*
X223232127Y-116965068D01*
X221539630Y-119534778D02*
X221521987Y-119541662D01*
X221557193Y-119527806D02*
X221539630Y-119534778D01*
X221574675Y-119520745D02*
X221557193Y-119527806D01*
X223150545Y-116226819D02*
X223155091Y-116246251D01*
X223145872Y-116207451D02*
X223150545Y-116226819D01*
X219904737Y-113911803D02*
X219929678Y-113913489D01*
X219702683Y-113902196D02*
X219728182Y-113903018D01*
X222035804Y-114600229D02*
X222052091Y-114611785D01*
X223175907Y-116344386D02*
X223179686Y-116364206D01*
X223172000Y-116324630D02*
X223175907Y-116344386D01*
X227867094Y-112475385D02*
X227842250Y-112437276D01*
X227891663Y-112513690D02*
X227867094Y-112475385D01*
X227915959Y-112552193D02*
X227891663Y-112513690D01*
X227939980Y-112590892D02*
X227915959Y-112552193D01*
X227963725Y-112629787D02*
X227939980Y-112590892D01*
X227987196Y-112668879D02*
X227963725Y-112629787D01*
X228010390Y-112708166D02*
X227987196Y-112668879D01*
X228033308Y-112747649D02*
X228010390Y-112708166D01*
X228055950Y-112787327D02*
X228033308Y-112747649D01*
X228078315Y-112827199D02*
X228055950Y-112787327D01*
X228100402Y-112867266D02*
X228078315Y-112827199D01*
X228122211Y-112907527D02*
X228100402Y-112867266D01*
X228143742Y-112947983D02*
X228122211Y-112907527D01*
X227411101Y-121134640D02*
X227442064Y-121093758D01*
X227379842Y-121175315D02*
X227411101Y-121134640D01*
X227348290Y-121215781D02*
X227379842Y-121175315D01*
X227316443Y-121256038D02*
X227348290Y-121215781D01*
X227284303Y-121296086D02*
X227316443Y-121256038D01*
X227251871Y-121335924D02*
X227284303Y-121296086D01*
X227219147Y-121375551D02*
X227251871Y-121335924D01*
X227186131Y-121414967D02*
X227219147Y-121375551D01*
X222075728Y-119258746D02*
X222060830Y-119268480D01*
X222090540Y-119248927D02*
X222075728Y-119258746D01*
X222105265Y-119239025D02*
X222090540Y-119248927D01*
X224340720Y-109779584D02*
X224291664Y-109761611D01*
X224389539Y-109797783D02*
X224340720Y-109779584D01*
X224438122Y-109816208D02*
X224389539Y-109797783D01*
X224486468Y-109834859D02*
X224438122Y-109816208D01*
X224534576Y-109853736D02*
X224486468Y-109834859D01*
X224582447Y-109872838D02*
X224534576Y-109853736D01*
X224630079Y-109892164D02*
X224582447Y-109872838D01*
X224677473Y-109911715D02*
X224630079Y-109892164D01*
X224724627Y-109931490D02*
X224677473Y-109911715D01*
X224771542Y-109951489D02*
X224724627Y-109931490D01*
X224818218Y-109971712D02*
X224771542Y-109951489D01*
X224864653Y-109992157D02*
X224818218Y-109971712D01*
X224910847Y-110012826D02*
X224864653Y-109992157D01*
X224956801Y-110033718D02*
X224910847Y-110012826D01*
X222904474Y-115572270D02*
X222913417Y-115589226D01*
X222895413Y-115555386D02*
X222904474Y-115572270D01*
X222163299Y-119198579D02*
X222148921Y-119208816D01*
X222177589Y-119188260D02*
X222163299Y-119198579D01*
X222191792Y-119177857D02*
X222177589Y-119188260D01*
X224747318Y-123346477D02*
X224796309Y-123320518D01*
X224698076Y-123372190D02*
X224747318Y-123346477D01*
X224648584Y-123397658D02*
X224698076Y-123372190D01*
X224598843Y-123422880D02*
X224648584Y-123397658D01*
X224548853Y-123447855D02*
X224598843Y-123422880D01*
X224498616Y-123472582D02*
X224548853Y-123447855D01*
X220598171Y-114003414D02*
X220620940Y-114008122D01*
X221436805Y-124424879D02*
X221499410Y-124414348D01*
X221373990Y-124435131D02*
X221436805Y-124424879D01*
X221310966Y-124445104D02*
X221373990Y-124435131D01*
X221247732Y-124454798D02*
X221310966Y-124445104D01*
X221184290Y-124464211D02*
X221247732Y-124454798D01*
X222132040Y-114670853D02*
X222147730Y-114682923D01*
X221936018Y-114532718D02*
X221952893Y-114543752D01*
X219463906Y-124608769D02*
X219532526Y-124606838D01*
X219395096Y-124610404D02*
X219463906Y-124608769D01*
X219326097Y-124611743D02*
X219395096Y-124610404D01*
X219256909Y-124612785D02*
X219326097Y-124611743D01*
X219187534Y-124613531D02*
X219256909Y-124612785D01*
X222570476Y-115083648D02*
X222582924Y-115098259D01*
X221726033Y-114407209D02*
X221744054Y-114417177D01*
X221059372Y-114123252D02*
X221080425Y-114130041D01*
X223178713Y-117557341D02*
X223175239Y-117576051D01*
X223182080Y-117538563D02*
X223178713Y-117557341D01*
X226387506Y-122227566D02*
X226426755Y-122192937D01*
X226347981Y-122261970D02*
X226387506Y-122227566D01*
X226308182Y-122296150D02*
X226347981Y-122261970D01*
X226268108Y-122330104D02*
X226308182Y-122296150D01*
X226227761Y-122363833D02*
X226268108Y-122330104D01*
X226187141Y-122397335D02*
X226227761Y-122363833D01*
X226146249Y-122430610D02*
X226187141Y-122397335D01*
X220575323Y-113998808D02*
X220598171Y-114003414D01*
X223141073Y-116188149D02*
X223145872Y-116207451D01*
X223136147Y-116168913D02*
X223141073Y-116188149D01*
X222453587Y-114955723D02*
X222467004Y-114969617D01*
X223077749Y-117953024D02*
X223071954Y-117970205D01*
X223083441Y-117935772D02*
X223077749Y-117953024D01*
X223232115Y-116922787D02*
X223232183Y-116944316D01*
X223231911Y-116901316D02*
X223232115Y-116922787D01*
X222957768Y-118251292D02*
X222950139Y-118267172D01*
X222965296Y-118235338D02*
X222957768Y-118251292D01*
X222972723Y-118219311D02*
X222965296Y-118235338D01*
X220223347Y-113942011D02*
X220247343Y-113945072D01*
X222163320Y-114695078D02*
X222178808Y-114707318D01*
X221797550Y-114447620D02*
X221815193Y-114457947D01*
X222398863Y-114900958D02*
X222412703Y-114914528D01*
X223207863Y-116545430D02*
X223210341Y-116565879D01*
X223205253Y-116525044D02*
X223207863Y-116545430D01*
X223120365Y-117813035D02*
X223115404Y-117830780D01*
X223125221Y-117795221D02*
X223120365Y-117813035D01*
X220413208Y-113969417D02*
X220436599Y-113973308D01*
X220952845Y-114090766D02*
X220974317Y-114097067D01*
X223190247Y-116424047D02*
X223193509Y-116444121D01*
X223186856Y-116404036D02*
X223190247Y-116424047D01*
X222701365Y-115248665D02*
X222712600Y-115264130D01*
X222690019Y-115233276D02*
X222701365Y-115248665D01*
X223086171Y-115998772D02*
X223092223Y-116017409D01*
X223079997Y-115980204D02*
X223086171Y-115998772D01*
X220150915Y-113933454D02*
X220175133Y-113936201D01*
X220552397Y-113994303D02*
X220575323Y-113998808D01*
X221597282Y-114339966D02*
X221615952Y-114349299D01*
X221919046Y-114521771D02*
X221936018Y-114532718D01*
X220295110Y-113951509D02*
X220318881Y-113954883D01*
X221184415Y-114165437D02*
X221204956Y-114172804D01*
X219804267Y-113906135D02*
X219829490Y-113907390D01*
X219677114Y-113901484D02*
X219702683Y-113902196D01*
X222939543Y-115640527D02*
X222948016Y-115657771D01*
X222930953Y-115623354D02*
X222939543Y-115640527D01*
X221653017Y-114368239D02*
X221671411Y-114377845D01*
X223109631Y-116073722D02*
X223115185Y-116092628D01*
X223103953Y-116054884D02*
X223109631Y-116073722D01*
X222426437Y-114928178D02*
X222440065Y-114941910D01*
X220844241Y-114060731D02*
X220866126Y-114066541D01*
X222607492Y-115127717D02*
X222619613Y-115142564D01*
X221080425Y-114130041D02*
X221101394Y-114136927D01*
X222440065Y-114941910D02*
X222453587Y-114955723D01*
X221634531Y-114358723D02*
X221653017Y-114368239D01*
X222717174Y-118653854D02*
X222706904Y-118667701D01*
X222727347Y-118639930D02*
X222717174Y-118653854D01*
X222737425Y-118625929D02*
X222727347Y-118639930D01*
X222116249Y-114658868D02*
X222132040Y-114670853D01*
X220102259Y-113928275D02*
X220126624Y-113930812D01*
X222328095Y-114834339D02*
X222342457Y-114847498D01*
X219929678Y-113913489D02*
X219954547Y-113915282D01*
X220247343Y-113945072D02*
X220271264Y-113948239D01*
X222828730Y-115439253D02*
X222838603Y-115455622D01*
X222818742Y-115422957D02*
X222828730Y-115439253D01*
X221689711Y-114387543D02*
X221707919Y-114397330D01*
X221038234Y-114116560D02*
X221059372Y-114123252D01*
X222480313Y-114983591D02*
X222493516Y-114997645D01*
X223098150Y-116036113D02*
X223103953Y-116054884D01*
X223092223Y-116017409D02*
X223098150Y-116036113D01*
X223131095Y-116149742D02*
X223136147Y-116168913D01*
X223125917Y-116130638D02*
X223131095Y-116149742D01*
X222532481Y-115040289D02*
X222545254Y-115054663D01*
X223183335Y-116384089D02*
X223186856Y-116404036D01*
X223179686Y-116364206D02*
X223183335Y-116384089D01*
X222147730Y-114682923D02*
X222163320Y-114695078D01*
X220506310Y-113985598D02*
X220529392Y-113989899D01*
X221952893Y-114543752D02*
X221969670Y-114554873D01*
X223073699Y-115961703D02*
X223079997Y-115980204D01*
X223067277Y-115943270D02*
X223073699Y-115961703D01*
X219548252Y-113899560D02*
X219574160Y-113899725D01*
X219778975Y-113904988D02*
X219804267Y-113906135D01*
X219574160Y-113899725D02*
X219600000Y-113900000D01*
X219600000Y-113900000D02*
X219625773Y-113900385D01*
M02*
