M48
INCH,TZ
T1C0.0157
T2C0.0390
T3C0.0430
T4C0.0512
T5C0.0579
%
G90
G05
T1
X14629Y-16251
X16561Y-19969
X20239Y-31015
X22109Y-16054
X22208Y-38594
X27719Y-31113
X29590Y-38594
X29688Y-16153
X32050Y-28357
X33527Y-31901
X35200Y-31113
X37168Y-16153
X37168Y-38495
X38123Y-19969
X38842Y-15168
X39061Y-14344
X40936Y-27469
X41991Y-53161
X43271Y-17334
X66597Y-22846
X66893Y-18416
X74767Y-31212
X76538Y-38692
X82149Y-31310
X84019Y-38692
X89727Y-31212
X91499Y-38692
X97306Y-31212
X97995Y-19007
X98192Y-16153
X98979Y-38692
X99964Y-14676
X102129Y-17727
X103901Y-17629
X104590Y-16251
X107050Y-17727
T2
X72637Y-10538
X74605Y-10538
T3
X64105Y-9725
X64105Y-10725
X64105Y-11725
X64105Y-12725
X64105Y-13725
X64105Y-14725
X64105Y-15725
X64105Y-16725
X64105Y-17725
X64105Y-18725
X64105Y-19725
X64105Y-20725
X70105Y-9725
X70105Y-10725
X70105Y-11725
X70105Y-12725
X70105Y-13725
X70105Y-14725
X70105Y-15725
X70105Y-16725
X70105Y-17725
X70105Y-18725
X70105Y-19725
X70105Y-20725
T4
X72239Y-11518
X74999Y-11518
T5
X80625Y-26400
X81141Y-25825
X83109Y-25628
X83125Y-25400
X28125Y-33900
X28641Y-33325
X30609Y-33128
X30625Y-32900
X28125Y-11412
X28641Y-10838
X30609Y-10641
X30625Y-10413
X35625Y-33913
X36141Y-33338
X38109Y-33141
X38125Y-32912
X82500Y-33900
X83016Y-33325
X84984Y-33128
X85000Y-32900
X33750Y-26413
X34266Y-25838
X36234Y-25641
X36250Y-25412
X75000Y-33900
X75516Y-33325
X77484Y-33128
X77500Y-32900
X95625Y-26400
X96141Y-25825
X98109Y-25628
X98125Y-25400
X20625Y-33913
X21141Y-33338
X23109Y-33141
X23125Y-32912
X26250Y-26400
X26766Y-25825
X28734Y-25628
X28750Y-25400
X38438Y-48913
X38953Y-48338
X40922Y-48141
X40938Y-47912
X13125Y-11412
X13641Y-10838
X15609Y-10641
X15625Y-10413
X97500Y-33900
X98016Y-33325
X99984Y-33128
X100000Y-32900
X103100Y-11400
X103616Y-10825
X105584Y-10628
X105600Y-10400
X20625Y-11412
X21141Y-10838
X23109Y-10641
X23125Y-10413
X35625Y-11412
X36141Y-10838
X38109Y-10641
X38125Y-10413
X88125Y-26413
X88641Y-25838
X90609Y-25641
X90625Y-25412
X18750Y-26400
X19266Y-25825
X21234Y-25628
X21250Y-25400
X90000Y-33900
X90516Y-33325
X92484Y-33128
X92500Y-32900
X73125Y-26413
X73641Y-25838
X75609Y-25641
X75625Y-25412
T0
M30
