G04 #@! TF.GenerationSoftware,KiCad,Pcbnew,5.0.1*
G04 #@! TF.CreationDate,2018-12-01T17:23:48-05:00*
G04 #@! TF.ProjectId,fightkeyb-pcb,66696768746B6579622D7063622E6B69,rev?*
G04 #@! TF.SameCoordinates,Original*
G04 #@! TF.FileFunction,Paste,Top*
G04 #@! TF.FilePolarity,Positive*
%FSLAX46Y46*%
G04 Gerber Fmt 4.6, Leading zero omitted, Abs format (unit mm)*
G04 Created by KiCad (PCBNEW 5.0.1) date Sat 01 Dec 2018 05:23:48 PM EST*
%MOMM*%
%LPD*%
G01*
G04 APERTURE LIST*
%ADD10R,1.651000X0.998220*%
%ADD11C,0.100000*%
%ADD12C,1.150000*%
G04 APERTURE END LIST*
D10*
G04 #@! TO.C,D21*
X34581940Y-39625410D03*
X34581940Y-36430090D03*
X39733060Y-36430090D03*
X39733060Y-39625410D03*
G04 #@! TD*
G04 #@! TO.C,D22*
X58733060Y-39625410D03*
X58733060Y-36430090D03*
X53581940Y-36430090D03*
X53581940Y-39625410D03*
G04 #@! TD*
G04 #@! TO.C,D23*
X72671940Y-39625410D03*
X72671940Y-36430090D03*
X77823060Y-36430090D03*
X77823060Y-39625410D03*
G04 #@! TD*
G04 #@! TO.C,D24*
X96873060Y-39625410D03*
X96873060Y-36430090D03*
X91721940Y-36430090D03*
X91721940Y-39625410D03*
G04 #@! TD*
G04 #@! TO.C,D25*
X268259560Y-39625410D03*
X268259560Y-36430090D03*
X263108440Y-36430090D03*
X263108440Y-39625410D03*
G04 #@! TD*
G04 #@! TO.C,D26*
X48859440Y-77875410D03*
X48859440Y-74680090D03*
X54010560Y-74680090D03*
X54010560Y-77875410D03*
G04 #@! TD*
G04 #@! TO.C,D27*
X73060560Y-77875410D03*
X73060560Y-74680090D03*
X67909440Y-74680090D03*
X67909440Y-77875410D03*
G04 #@! TD*
G04 #@! TO.C,D28*
X86959440Y-77875410D03*
X86959440Y-74680090D03*
X92110560Y-74680090D03*
X92110560Y-77875410D03*
G04 #@! TD*
G04 #@! TO.C,D29*
X192186560Y-77875410D03*
X192186560Y-74680090D03*
X187035440Y-74680090D03*
X187035440Y-77875410D03*
G04 #@! TD*
G04 #@! TO.C,D30*
X206021940Y-77875410D03*
X206021940Y-74680090D03*
X211173060Y-74680090D03*
X211173060Y-77875410D03*
G04 #@! TD*
G04 #@! TO.C,D31*
X230233060Y-77875410D03*
X230233060Y-74680090D03*
X225081940Y-74680090D03*
X225081940Y-77875410D03*
G04 #@! TD*
G04 #@! TO.C,D32*
X244121940Y-77875410D03*
X244121940Y-74680090D03*
X249273060Y-74680090D03*
X249273060Y-77875410D03*
G04 #@! TD*
G04 #@! TO.C,D33*
X58983060Y-96875410D03*
X58983060Y-93680090D03*
X53831940Y-93680090D03*
X53831940Y-96875410D03*
G04 #@! TD*
G04 #@! TO.C,D34*
X72671940Y-96875410D03*
X72671940Y-93680090D03*
X77823060Y-93680090D03*
X77823060Y-96875410D03*
G04 #@! TD*
G04 #@! TO.C,D35*
X96873060Y-96875410D03*
X96873060Y-93680090D03*
X91721940Y-93680090D03*
X91721940Y-96875410D03*
G04 #@! TD*
G04 #@! TO.C,D36*
X196885560Y-96875410D03*
X196885560Y-93680090D03*
X191734440Y-93680090D03*
X191734440Y-96875410D03*
G04 #@! TD*
G04 #@! TO.C,D37*
X210784440Y-96875410D03*
X210784440Y-93680090D03*
X215935560Y-93680090D03*
X215935560Y-96875410D03*
G04 #@! TD*
G04 #@! TO.C,D38*
X234983060Y-96875410D03*
X234983060Y-93680090D03*
X229831940Y-93680090D03*
X229831940Y-96875410D03*
G04 #@! TD*
G04 #@! TO.C,D39*
X248884440Y-96875410D03*
X248884440Y-93680090D03*
X254035560Y-93680090D03*
X254035560Y-96875410D03*
G04 #@! TD*
G04 #@! TO.C,D40*
X98831940Y-135125410D03*
X98831940Y-131930090D03*
X103983060Y-131930090D03*
X103983060Y-135125410D03*
G04 #@! TD*
D11*
G04 #@! TO.C,R1*
G36*
X185413255Y-44360204D02*
X185437523Y-44363804D01*
X185461322Y-44369765D01*
X185484421Y-44378030D01*
X185506600Y-44388520D01*
X185527643Y-44401132D01*
X185547349Y-44415747D01*
X185565527Y-44432223D01*
X185582003Y-44450401D01*
X185596618Y-44470107D01*
X185609230Y-44491150D01*
X185619720Y-44513329D01*
X185627985Y-44536428D01*
X185633946Y-44560227D01*
X185637546Y-44584495D01*
X185638750Y-44608999D01*
X185638750Y-45259001D01*
X185637546Y-45283505D01*
X185633946Y-45307773D01*
X185627985Y-45331572D01*
X185619720Y-45354671D01*
X185609230Y-45376850D01*
X185596618Y-45397893D01*
X185582003Y-45417599D01*
X185565527Y-45435777D01*
X185547349Y-45452253D01*
X185527643Y-45466868D01*
X185506600Y-45479480D01*
X185484421Y-45489970D01*
X185461322Y-45498235D01*
X185437523Y-45504196D01*
X185413255Y-45507796D01*
X185388751Y-45509000D01*
X184488749Y-45509000D01*
X184464245Y-45507796D01*
X184439977Y-45504196D01*
X184416178Y-45498235D01*
X184393079Y-45489970D01*
X184370900Y-45479480D01*
X184349857Y-45466868D01*
X184330151Y-45452253D01*
X184311973Y-45435777D01*
X184295497Y-45417599D01*
X184280882Y-45397893D01*
X184268270Y-45376850D01*
X184257780Y-45354671D01*
X184249515Y-45331572D01*
X184243554Y-45307773D01*
X184239954Y-45283505D01*
X184238750Y-45259001D01*
X184238750Y-44608999D01*
X184239954Y-44584495D01*
X184243554Y-44560227D01*
X184249515Y-44536428D01*
X184257780Y-44513329D01*
X184268270Y-44491150D01*
X184280882Y-44470107D01*
X184295497Y-44450401D01*
X184311973Y-44432223D01*
X184330151Y-44415747D01*
X184349857Y-44401132D01*
X184370900Y-44388520D01*
X184393079Y-44378030D01*
X184416178Y-44369765D01*
X184439977Y-44363804D01*
X184464245Y-44360204D01*
X184488749Y-44359000D01*
X185388751Y-44359000D01*
X185413255Y-44360204D01*
X185413255Y-44360204D01*
G37*
D12*
X184938750Y-44934000D03*
D11*
G36*
X185413255Y-46410204D02*
X185437523Y-46413804D01*
X185461322Y-46419765D01*
X185484421Y-46428030D01*
X185506600Y-46438520D01*
X185527643Y-46451132D01*
X185547349Y-46465747D01*
X185565527Y-46482223D01*
X185582003Y-46500401D01*
X185596618Y-46520107D01*
X185609230Y-46541150D01*
X185619720Y-46563329D01*
X185627985Y-46586428D01*
X185633946Y-46610227D01*
X185637546Y-46634495D01*
X185638750Y-46658999D01*
X185638750Y-47309001D01*
X185637546Y-47333505D01*
X185633946Y-47357773D01*
X185627985Y-47381572D01*
X185619720Y-47404671D01*
X185609230Y-47426850D01*
X185596618Y-47447893D01*
X185582003Y-47467599D01*
X185565527Y-47485777D01*
X185547349Y-47502253D01*
X185527643Y-47516868D01*
X185506600Y-47529480D01*
X185484421Y-47539970D01*
X185461322Y-47548235D01*
X185437523Y-47554196D01*
X185413255Y-47557796D01*
X185388751Y-47559000D01*
X184488749Y-47559000D01*
X184464245Y-47557796D01*
X184439977Y-47554196D01*
X184416178Y-47548235D01*
X184393079Y-47539970D01*
X184370900Y-47529480D01*
X184349857Y-47516868D01*
X184330151Y-47502253D01*
X184311973Y-47485777D01*
X184295497Y-47467599D01*
X184280882Y-47447893D01*
X184268270Y-47426850D01*
X184257780Y-47404671D01*
X184249515Y-47381572D01*
X184243554Y-47357773D01*
X184239954Y-47333505D01*
X184238750Y-47309001D01*
X184238750Y-46658999D01*
X184239954Y-46634495D01*
X184243554Y-46610227D01*
X184249515Y-46586428D01*
X184257780Y-46563329D01*
X184268270Y-46541150D01*
X184280882Y-46520107D01*
X184295497Y-46500401D01*
X184311973Y-46482223D01*
X184330151Y-46465747D01*
X184349857Y-46451132D01*
X184370900Y-46438520D01*
X184393079Y-46428030D01*
X184416178Y-46419765D01*
X184439977Y-46413804D01*
X184464245Y-46410204D01*
X184488749Y-46409000D01*
X185388751Y-46409000D01*
X185413255Y-46410204D01*
X185413255Y-46410204D01*
G37*
D12*
X184938750Y-46984000D03*
G04 #@! TD*
M02*
